RecursiveMonoVar-CasualBlack.ufo
<glyph name="exclam" format="1">
  <advance width="600"/>
  <unicode hex="0021"/>
  <outline>
    <contour>
      <point x="368" y="306" type="line"/>
      <point x="390" y="370"/>
      <point x="408" y="461"/>
      <point x="408" y="548" type="curve"/>
      <point x="408" y="630" type="line" smooth="yes"/>
      <point x="408" y="686"/>
      <point x="338" y="710"/>
      <point x="262" y="710" type="curve" smooth="yes"/>
      <point x="230" y="710"/>
      <point x="206" y="708"/>
      <point x="178" y="702" type="curve"/>
      <point x="188" y="666"/>
      <point x="193" y="628"/>
      <point x="193" y="587" type="curve" smooth="yes"/>
      <point x="193" y="556" type="line"/>
      <point x="193" y="478"/>
      <point x="209" y="368"/>
      <point x="236" y="340" type="curve" smooth="yes"/>
      <point x="260" y="317"/>
      <point x="292" y="306"/>
      <point x="349" y="306" type="curve"/>
    </contour>
    <contour>
      <point x="417" y="-2" type="curve"/>
      <point x="417" y="132" type="line" smooth="yes"/>
      <point x="417" y="208"/>
      <point x="357" y="228"/>
      <point x="277" y="228" type="curve" smooth="yes"/>
      <point x="241" y="228"/>
      <point x="212" y="226"/>
      <point x="183" y="220" type="curve"/>
      <point x="183" y="84" type="line" smooth="yes"/>
      <point x="183" y="9"/>
      <point x="243" y="-12"/>
      <point x="323" y="-12" type="curve" smooth="yes"/>
      <point x="359" y="-12"/>
      <point x="388" y="-8"/>
    </contour>
  </outline>
</glyph>
<glyph name="quotedbl" format="1">
  <advance width="600"/>
  <unicode hex="0022"/>
  <outline>
    <contour>
      <point x="252" y="448" type="curve"/>
      <point x="267" y="620" type="line" smooth="yes"/>
      <point x="274" y="712"/>
      <point x="226" y="754"/>
      <point x="114" y="754" type="curve" smooth="yes"/>
      <point x="98" y="754"/>
      <point x="80" y="754"/>
      <point x="62" y="750" type="curve"/>
      <point x="71" y="724"/>
      <point x="77" y="688"/>
      <point x="82" y="638" type="curve" smooth="yes"/>
      <point x="92" y="512" type="line" smooth="yes"/>
      <point x="96" y="460"/>
      <point x="120" y="440"/>
      <point x="178" y="440" type="curve" smooth="yes"/>
      <point x="208" y="440"/>
      <point x="232" y="443"/>
    </contour>
    <contour>
      <point x="498" y="448" type="curve"/>
      <point x="517" y="624" type="line" smooth="yes"/>
      <point x="526" y="712"/>
      <point x="476" y="754"/>
      <point x="380" y="754" type="curve" smooth="yes"/>
      <point x="358" y="754"/>
      <point x="343" y="753"/>
      <point x="324" y="752" type="curve"/>
      <point x="342" y="512" type="line"/>
      <point x="346" y="460"/>
      <point x="370" y="440"/>
      <point x="428" y="440" type="curve" smooth="yes"/>
      <point x="458" y="440"/>
      <point x="479" y="443"/>
    </contour>
  </outline>
</glyph>
<glyph name="numbersign" format="1">
  <advance width="600"/>
  <unicode hex="0023"/>
  <outline>
    <contour>
      <point x="163" y="712" type="curve"/>
      <point x="163" y="466"/>
      <point x="128" y="238"/>
      <point x="23" y="-5" type="curve"/>
      <point x="43" y="-16"/>
      <point x="60" y="-20"/>
      <point x="92" y="-20" type="curve"/>
      <point x="136" y="-20"/>
      <point x="162" y="-6"/>
      <point x="171" y="16" type="curve" smooth="yes"/>
      <point x="273" y="266"/>
      <point x="300" y="468"/>
      <point x="300" y="680" type="curve" smooth="yes"/>
      <point x="300" y="704"/>
      <point x="270" y="720"/>
      <point x="226" y="720" type="curve" smooth="yes"/>
      <point x="203" y="720"/>
      <point x="186" y="718"/>
    </contour>
    <contour>
      <point x="388" y="712" type="curve"/>
      <point x="388" y="466"/>
      <point x="354" y="238"/>
      <point x="248" y="-5" type="curve"/>
      <point x="268" y="-16"/>
      <point x="284" y="-20"/>
      <point x="317" y="-20" type="curve"/>
      <point x="361" y="-20"/>
      <point x="387" y="-6"/>
      <point x="396" y="16" type="curve" smooth="yes"/>
      <point x="498" y="266"/>
      <point x="526" y="468"/>
      <point x="526" y="680" type="curve" smooth="yes"/>
      <point x="526" y="704"/>
      <point x="495" y="720"/>
      <point x="451" y="720" type="curve" smooth="yes"/>
      <point x="428" y="720"/>
      <point x="411" y="718"/>
    </contour>
    <contour>
      <point x="592" y="410" type="line"/>
      <point x="592" y="416"/>
      <point x="592" y="422"/>
      <point x="592" y="429" type="curve" smooth="yes"/>
      <point x="592" y="487"/>
      <point x="582" y="524"/>
      <point x="566" y="540" type="curve" smooth="yes"/>
      <point x="552" y="555"/>
      <point x="532" y="560"/>
      <point x="486" y="560" type="curve"/>
      <point x="47" y="560" type="line"/>
      <point x="43" y="539"/>
      <point x="40" y="516"/>
      <point x="40" y="497" type="curve" smooth="yes"/>
      <point x="40" y="446"/>
      <point x="57" y="410"/>
      <point x="113" y="410" type="curve"/>
    </contour>
    <contour>
      <point x="8" y="290" type="line"/>
      <point x="8" y="284"/>
      <point x="8" y="278"/>
      <point x="8" y="271" type="curve" smooth="yes"/>
      <point x="8" y="213"/>
      <point x="17" y="176"/>
      <point x="34" y="160" type="curve" smooth="yes"/>
      <point x="48" y="145"/>
      <point x="68" y="140"/>
      <point x="114" y="140" type="curve"/>
      <point x="553" y="140" type="line"/>
      <point x="557" y="161"/>
      <point x="560" y="194"/>
      <point x="560" y="213" type="curve" smooth="yes"/>
      <point x="560" y="264"/>
      <point x="543" y="290"/>
      <point x="487" y="290" type="curve"/>
    </contour>
  </outline>
</glyph>
<glyph name="dollar" format="1">
  <advance width="600"/>
  <unicode hex="0024"/>
  <outline>
    <contour>
      <point x="358" y="720" type="curve" smooth="yes"/>
      <point x="190" y="720"/>
      <point x="59" y="634"/>
      <point x="59" y="501" type="curve" smooth="yes"/>
      <point x="59" y="492" type="line" smooth="yes"/>
      <point x="59" y="462"/>
      <point x="136" y="415"/>
      <point x="234" y="416" type="curve"/>
      <point x="226" y="438"/>
      <point x="224" y="464"/>
      <point x="224" y="484" type="curve" smooth="yes"/>
      <point x="224" y="528"/>
      <point x="283" y="547"/>
      <point x="372" y="547" type="curve" smooth="yes"/>
      <point x="440" y="547"/>
      <point x="483" y="537"/>
      <point x="527" y="510" type="curve"/>
      <point x="531" y="510" type="line"/>
      <point x="545" y="541"/>
      <point x="552" y="570"/>
      <point x="552" y="600" type="curve" smooth="yes"/>
      <point x="552" y="632"/>
      <point x="548" y="660"/>
      <point x="524" y="685" type="curve" smooth="yes"/>
      <point x="501" y="708"/>
      <point x="446" y="720"/>
    </contour>
    <contour>
      <point x="401" y="384" type="curve" smooth="yes"/>
      <point x="299" y="418" type="line" smooth="yes"/>
      <point x="251" y="435"/>
      <point x="224" y="454"/>
      <point x="224" y="484" type="curve" smooth="yes"/>
      <point x="224" y="523"/>
      <point x="227" y="547"/>
      <point x="238" y="568" type="curve"/>
      <point x="139" y="569"/>
      <point x="59" y="553"/>
      <point x="59" y="492" type="curve" smooth="yes"/>
      <point x="59" y="418"/>
      <point x="90" y="350"/>
      <point x="244" y="294" type="curve" smooth="yes"/>
      <point x="340" y="259" type="line" smooth="yes"/>
      <point x="395" y="239"/>
      <point x="414" y="219"/>
      <point x="414" y="168" type="curve" smooth="yes"/>
      <point x="414" y="149"/>
      <point x="414" y="140"/>
      <point x="414" y="128" type="curve"/>
      <point x="486" y="126"/>
      <point x="571" y="159"/>
      <point x="571" y="196" type="curve"/>
      <point x="571" y="257"/>
      <point x="536" y="337"/>
    </contour>
    <contour>
      <point x="300" y="-22" type="curve" smooth="yes"/>
      <point x="486" y="-22"/>
      <point x="571" y="70"/>
      <point x="571" y="181" type="curve" smooth="yes"/>
      <point x="571" y="196" type="line" smooth="yes"/>
      <point x="571" y="217"/>
      <point x="517" y="247"/>
      <point x="459" y="252" type="curve"/>
      <point x="459" y="244"/>
      <point x="459" y="240"/>
      <point x="459" y="234" type="curve" smooth="yes"/>
      <point x="459" y="192"/>
      <point x="382" y="149"/>
      <point x="300" y="149" type="curve" smooth="yes"/>
      <point x="194" y="149"/>
      <point x="116" y="180"/>
      <point x="53" y="236" type="curve"/>
      <point x="49" y="236" type="line"/>
      <point x="44" y="220"/>
      <point x="42" y="196"/>
      <point x="42" y="166" type="curve" smooth="yes"/>
      <point x="42" y="101"/>
      <point x="57" y="59"/>
      <point x="84" y="32" type="curve" smooth="yes"/>
      <point x="118" y="-2"/>
      <point x="204" y="-22"/>
    </contour>
    <contour>
      <point x="379" y="438" type="line"/>
      <point x="463" y="748" type="line" smooth="yes"/>
      <point x="486" y="831"/>
      <point x="448" y="885"/>
      <point x="364" y="885" type="curve" smooth="yes"/>
      <point x="347" y="885"/>
      <point x="316" y="880"/>
      <point x="296" y="873" type="curve"/>
      <point x="308" y="842"/>
      <point x="317" y="812"/>
      <point x="316" y="769" type="curve"/>
      <point x="310" y="487" type="line" smooth="yes"/>
      <point x="310" y="456"/>
      <point x="348" y="438"/>
      <point x="375" y="438" type="curve" smooth="yes"/>
    </contour>
    <contour>
      <point x="256" y="239" type="line"/>
      <point x="172" y="-58" type="line" smooth="yes"/>
      <point x="149" y="-142"/>
      <point x="187" y="-195"/>
      <point x="272" y="-195" type="curve" smooth="yes"/>
      <point x="288" y="-195"/>
      <point x="319" y="-190"/>
      <point x="340" y="-183" type="curve"/>
      <point x="327" y="-152"/>
      <point x="319" y="-122"/>
      <point x="320" y="-79" type="curve"/>
      <point x="324" y="189" type="line" smooth="yes"/>
      <point x="324" y="220"/>
      <point x="286" y="239"/>
      <point x="260" y="239" type="curve" smooth="yes"/>
    </contour>
  </outline>
</glyph>
<glyph name="ampersand" format="1">
  <advance width="600"/>
  <unicode hex="0026"/>
  <outline>
    <contour>
      <point x="329" y="715" type="curve" smooth="yes"/>
      <point x="169" y="715"/>
      <point x="86" y="603"/>
      <point x="86" y="530" type="curve" smooth="yes"/>
      <point x="86" y="482"/>
      <point x="124" y="451"/>
      <point x="228" y="451" type="curve"/>
      <point x="225" y="461"/>
      <point x="224" y="467"/>
      <point x="224" y="480" type="curve" smooth="yes"/>
      <point x="224" y="517"/>
      <point x="270" y="538"/>
      <point x="334" y="538" type="curve" smooth="yes"/>
      <point x="398" y="538"/>
      <point x="445" y="529"/>
      <point x="492" y="506" type="curve"/>
      <point x="496" y="506" type="line"/>
      <point x="504" y="524"/>
      <point x="509" y="549"/>
      <point x="509" y="576" type="curve"/>
      <point x="509" y="620"/>
      <point x="498" y="658"/>
      <point x="475" y="681" type="curve" smooth="yes"/>
      <point x="451" y="705"/>
      <point x="408" y="715"/>
    </contour>
    <contour>
      <point x="274" y="402" type="curve" smooth="yes"/>
      <point x="253" y="448"/>
      <point x="245" y="484"/>
      <point x="245" y="518" type="curve" smooth="yes"/>
      <point x="245" y="561"/>
      <point x="251" y="588"/>
      <point x="266" y="618" type="curve"/>
      <point x="183" y="635"/>
      <point x="86" y="599"/>
      <point x="86" y="530" type="curve" smooth="yes"/>
      <point x="86" y="526" type="line" smooth="yes"/>
      <point x="86" y="474"/>
      <point x="104" y="418"/>
      <point x="145" y="343" type="curve" smooth="yes"/>
      <point x="194" y="258"/>
      <point x="264" y="166"/>
      <point x="331" y="99" type="curve" smooth="yes"/>
      <point x="427" y="3"/>
      <point x="476" y="-12"/>
      <point x="510" y="-12" type="curve" smooth="yes"/>
      <point x="516" y="-12" type="line" smooth="yes"/>
      <point x="558" y="-12"/>
      <point x="583" y="18"/>
      <point x="583" y="100" type="curve" smooth="yes"/>
      <point x="583" y="136"/>
      <point x="581" y="158"/>
      <point x="576" y="184" type="curve"/>
      <point x="572" y="184" type="line"/>
      <point x="558" y="178"/>
      <point x="546" y="176"/>
      <point x="525" y="176" type="curve" smooth="yes"/>
      <point x="484" y="176"/>
      <point x="430" y="198"/>
      <point x="390" y="238" type="curve" smooth="yes"/>
      <point x="342" y="284"/>
      <point x="302" y="343"/>
    </contour>
    <contour>
      <point x="202" y="-12" type="curve" smooth="yes"/>
      <point x="292" y="-12"/>
      <point x="346" y="38"/>
      <point x="367" y="84" type="curve" smooth="yes"/>
      <point x="378" y="113"/>
      <point x="361" y="153"/>
      <point x="320" y="170" type="curve"/>
      <point x="292" y="142"/>
      <point x="269" y="131"/>
      <point x="232" y="131" type="curve" smooth="yes"/>
      <point x="196" y="131"/>
      <point x="172" y="160"/>
      <point x="172" y="195" type="curve" smooth="yes"/>
      <point x="172" y="198" type="line" smooth="yes"/>
      <point x="172" y="240"/>
      <point x="195" y="268"/>
      <point x="242" y="280" type="curve"/>
      <point x="229" y="316"/>
      <point x="202" y="370"/>
      <point x="171" y="365" type="curve" smooth="yes"/>
      <point x="94" y="352"/>
      <point x="16" y="284"/>
      <point x="16" y="172" type="curve" smooth="yes"/>
      <point x="16" y="168" type="line" smooth="yes"/>
      <point x="16" y="60"/>
      <point x="90" y="-12"/>
    </contour>
    <contour>
      <point x="454" y="436" type="curve" smooth="yes"/>
      <point x="434" y="436"/>
      <point x="418" y="434"/>
      <point x="403" y="430" type="curve"/>
      <point x="403" y="421"/>
      <point x="403" y="412"/>
      <point x="403" y="402" type="curve" smooth="yes"/>
      <point x="403" y="337"/>
      <point x="394" y="291"/>
      <point x="369" y="242" type="curve" smooth="yes"/>
      <point x="356" y="213"/>
      <point x="382" y="186"/>
      <point x="432" y="178" type="curve"/>
      <point x="512" y="222"/>
      <point x="574" y="302"/>
      <point x="574" y="358" type="curve" smooth="yes"/>
      <point x="574" y="371" type="line" smooth="yes"/>
      <point x="574" y="408"/>
      <point x="524" y="436"/>
    </contour>
  </outline>
</glyph>
<glyph name="quotesingle" format="1">
  <advance width="600"/>
  <unicode hex="0027"/>
  <outline>
    <contour>
      <point x="377" y="448" type="curve"/>
      <point x="392" y="624" type="line" smooth="yes"/>
      <point x="400" y="712"/>
      <point x="352" y="754"/>
      <point x="241" y="754" type="curve" smooth="yes"/>
      <point x="223" y="754"/>
      <point x="206" y="754"/>
      <point x="188" y="750" type="curve"/>
      <point x="196" y="724"/>
      <point x="203" y="688"/>
      <point x="208" y="638" type="curve" smooth="yes"/>
      <point x="218" y="512" type="line" smooth="yes"/>
      <point x="221" y="460"/>
      <point x="246" y="440"/>
      <point x="304" y="440" type="curve" smooth="yes"/>
      <point x="333" y="440"/>
      <point x="358" y="443"/>
    </contour>
  </outline>
</glyph>
<glyph name="parenleft" format="1">
  <advance width="600"/>
  <unicode hex="0028"/>
  <outline>
    <contour>
      <point x="290" y="718" type="curve" smooth="yes"/>
      <point x="204" y="632"/>
      <point x="150" y="484"/>
      <point x="150" y="314" type="curve" smooth="yes"/>
      <point x="150" y="302" type="line" smooth="yes"/>
      <point x="150" y="134"/>
      <point x="204" y="-16"/>
      <point x="290" y="-101" type="curve" smooth="yes"/>
      <point x="330" y="-142"/>
      <point x="360" y="-153"/>
      <point x="404" y="-153" type="curve" smooth="yes"/>
      <point x="458" y="-153"/>
      <point x="491" y="-134"/>
      <point x="517" y="-108" type="curve"/>
      <point x="517" y="-104" type="line"/>
      <point x="410" y="-1"/>
      <point x="350" y="144"/>
      <point x="350" y="302" type="curve" smooth="yes"/>
      <point x="350" y="314" type="line" smooth="yes"/>
      <point x="350" y="472"/>
      <point x="410" y="618"/>
      <point x="517" y="721" type="curve"/>
      <point x="517" y="725" type="line"/>
      <point x="491" y="750"/>
      <point x="458" y="770"/>
      <point x="404" y="770" type="curve" smooth="yes"/>
      <point x="360" y="770"/>
      <point x="330" y="758"/>
    </contour>
  </outline>
</glyph>
<glyph name="parenright" format="1">
  <advance width="600"/>
  <unicode hex="0029"/>
  <outline>
    <contour>
      <point x="310" y="-122" type="curve" smooth="yes"/>
      <point x="396" y="-36"/>
      <point x="450" y="113"/>
      <point x="450" y="282" type="curve" smooth="yes"/>
      <point x="450" y="294" type="line" smooth="yes"/>
      <point x="450" y="463"/>
      <point x="396" y="612"/>
      <point x="310" y="698" type="curve" smooth="yes"/>
      <point x="270" y="738"/>
      <point x="240" y="750"/>
      <point x="196" y="750" type="curve" smooth="yes"/>
      <point x="142" y="750"/>
      <point x="109" y="730"/>
      <point x="83" y="704" type="curve"/>
      <point x="83" y="700" type="line"/>
      <point x="190" y="598"/>
      <point x="250" y="452"/>
      <point x="250" y="294" type="curve" smooth="yes"/>
      <point x="250" y="282" type="line" smooth="yes"/>
      <point x="250" y="124"/>
      <point x="190" y="-22"/>
      <point x="83" y="-124" type="curve"/>
      <point x="83" y="-128" type="line"/>
      <point x="109" y="-154"/>
      <point x="142" y="-174"/>
      <point x="196" y="-174" type="curve" smooth="yes"/>
      <point x="240" y="-174"/>
      <point x="270" y="-162"/>
    </contour>
  </outline>
</glyph>
<glyph name="asterisk" format="1">
  <advance width="600"/>
  <unicode hex="002A"/>
  <outline>
    <contour>
      <point x="210" y="566" type="curve"/>
      <point x="224" y="536"/>
      <point x="234" y="510"/>
      <point x="242" y="467" type="curve" smooth="yes"/>
      <point x="273" y="309" type="line"/>
      <point x="231" y="157" type="line" smooth="yes"/>
      <point x="210" y="84"/>
      <point x="248" y="40"/>
      <point x="319" y="40" type="curve"/>
      <point x="346" y="40"/>
      <point x="368" y="44"/>
      <point x="390" y="53" type="curve"/>
      <point x="377" y="82"/>
      <point x="367" y="108"/>
      <point x="358" y="152" type="curve" smooth="yes"/>
      <point x="328" y="309" type="line"/>
      <point x="370" y="462" type="line" smooth="yes"/>
      <point x="390" y="536"/>
      <point x="352" y="578"/>
      <point x="282" y="578" type="curve" smooth="yes"/>
      <point x="256" y="578"/>
      <point x="234" y="574"/>
    </contour>
    <contour>
      <point x="489" y="504" type="curve"/>
      <point x="280" y="336" type="line"/>
      <point x="94" y="272" type="line" smooth="yes"/>
      <point x="52" y="258"/>
      <point x="48" y="216"/>
      <point x="76" y="169" type="curve"/>
      <point x="86" y="150"/>
      <point x="99" y="136"/>
      <point x="114" y="122" type="curve"/>
      <point x="321" y="291" type="line"/>
      <point x="508" y="354" type="line" smooth="yes"/>
      <point x="550" y="369"/>
      <point x="554" y="408"/>
      <point x="526" y="458" type="curve" smooth="yes"/>
      <point x="516" y="474"/>
      <point x="506" y="488"/>
    </contour>
    <contour>
      <point x="560" y="246" type="curve"/>
      <point x="314" y="340" type="line"/>
      <point x="162" y="471" type="line" smooth="yes"/>
      <point x="128" y="500"/>
      <point x="92" y="484"/>
      <point x="64" y="436" type="curve"/>
      <point x="53" y="418"/>
      <point x="46" y="400"/>
      <point x="42" y="380" type="curve"/>
      <point x="288" y="287" type="line"/>
      <point x="440" y="155" type="line" smooth="yes"/>
      <point x="474" y="126"/>
      <point x="510" y="142"/>
      <point x="538" y="190" type="curve"/>
      <point x="548" y="208"/>
      <point x="556" y="224"/>
    </contour>
  </outline>
</glyph>
<glyph name="plus" format="1">
  <advance width="600"/>
  <unicode hex="002B"/>
  <outline>
    <contour>
      <point x="305" y="284" type="line"/>
      <point x="305" y="286"/>
      <point x="305" y="286"/>
      <point x="305" y="287" type="curve" smooth="yes"/>
      <point x="305" y="300"/>
      <point x="304" y="308"/>
      <point x="300" y="311" type="curve" smooth="yes"/>
      <point x="298" y="314"/>
      <point x="296" y="316"/>
      <point x="288" y="316" type="curve"/>
      <point x="304" y="316" type="line"/>
      <point x="304" y="310"/>
      <point x="302" y="304"/>
      <point x="302" y="299" type="curve" smooth="yes"/>
      <point x="302" y="286"/>
      <point x="306" y="284"/>
      <point x="318" y="284" type="curve"/>
    </contour>
    <contour>
      <point x="394" y="52" type="curve"/>
      <point x="394" y="438" type="line" smooth="yes"/>
      <point x="394" y="488"/>
      <point x="387" y="510"/>
      <point x="369" y="528" type="curve" smooth="yes"/>
      <point x="348" y="548"/>
      <point x="313" y="555"/>
      <point x="264" y="555" type="curve" smooth="yes"/>
      <point x="240" y="555"/>
      <point x="217" y="553"/>
      <point x="194" y="548" type="curve"/>
      <point x="202" y="512"/>
      <point x="207" y="476"/>
      <point x="207" y="430" type="curve" smooth="yes"/>
      <point x="207" y="118" type="line" smooth="yes"/>
      <point x="207" y="57"/>
      <point x="238" y="45"/>
      <point x="323" y="45" type="curve" smooth="yes"/>
      <point x="350" y="45"/>
      <point x="374" y="47"/>
    </contour>
  </outline>
</glyph>
<glyph name="hyphen" format="1">
  <advance width="600"/>
  <unicode hex="002D"/>
  <outline>
    <contour>
      <point x="97" y="390" type="line"/>
      <point x="97" y="382"/>
      <point x="97" y="376"/>
      <point x="97" y="368" type="curve" smooth="yes"/>
      <point x="97" y="295"/>
      <point x="106" y="256"/>
      <point x="128" y="234" type="curve" smooth="yes"/>
      <point x="146" y="216"/>
      <point x="172" y="210"/>
      <point x="230" y="210" type="curve"/>
      <point x="510" y="210" type="line"/>
      <point x="515" y="236"/>
      <point x="519" y="265"/>
      <point x="519" y="289" type="curve" smooth="yes"/>
      <point x="519" y="368"/>
      <point x="498" y="390"/>
      <point x="430" y="390" type="curve"/>
    </contour>
  </outline>
</glyph>
<glyph name="period" format="1">
  <advance width="600"/>
  <unicode hex="002E"/>
  <outline>
    <contour>
      <point x="417" y="-2" type="curve"/>
      <point x="417" y="132" type="line" smooth="yes"/>
      <point x="417" y="208"/>
      <point x="357" y="228"/>
      <point x="277" y="228" type="curve" smooth="yes"/>
      <point x="241" y="228"/>
      <point x="212" y="226"/>
      <point x="183" y="220" type="curve"/>
      <point x="183" y="84" type="line" smooth="yes"/>
      <point x="183" y="9"/>
      <point x="243" y="-12"/>
      <point x="323" y="-12" type="curve" smooth="yes"/>
      <point x="359" y="-12"/>
      <point x="388" y="-8"/>
    </contour>
  </outline>
</glyph>
<glyph name="zero" format="1">
  <advance width="600"/>
  <unicode hex="0030"/>
  <outline>
    <contour>
      <point x="300" y="720" type="curve" smooth="yes"/>
      <point x="144" y="720"/>
      <point x="38" y="569"/>
      <point x="38" y="344" type="curve" smooth="yes"/>
      <point x="38" y="313" type="line" smooth="yes"/>
      <point x="38" y="108"/>
      <point x="143" y="-20"/>
      <point x="301" y="-20" type="curve"/>
      <point x="355" y="-20"/>
      <point x="394" y="26"/>
      <point x="394" y="88" type="curve"/>
      <point x="262" y="87"/>
      <point x="226" y="128"/>
      <point x="226" y="308" type="curve" smooth="yes"/>
      <point x="226" y="338" type="line" smooth="yes"/>
      <point x="226" y="478"/>
      <point x="252" y="549"/>
      <point x="312" y="549" type="curve" smooth="yes"/>
      <point x="365" y="549"/>
      <point x="381" y="543"/>
      <point x="412" y="518" type="curve"/>
      <point x="462" y="580"/>
      <point x="387" y="720"/>
    </contour>
    <contour>
      <point x="301" y="-20" type="curve" smooth="yes"/>
      <point x="458" y="-20"/>
      <point x="562" y="110"/>
      <point x="562" y="310" type="curve" smooth="yes"/>
      <point x="562" y="342" type="line" smooth="yes"/>
      <point x="562" y="570"/>
      <point x="455" y="720"/>
      <point x="300" y="720" type="curve"/>
      <point x="246" y="720"/>
      <point x="206" y="674"/>
      <point x="206" y="613" type="curve"/>
      <point x="338" y="613"/>
      <point x="374" y="566"/>
      <point x="374" y="368" type="curve" smooth="yes"/>
      <point x="374" y="337" type="line" smooth="yes"/>
      <point x="374" y="212"/>
      <point x="348" y="151"/>
      <point x="288" y="151" type="curve" smooth="yes"/>
      <point x="235" y="151"/>
      <point x="219" y="157"/>
      <point x="188" y="182" type="curve"/>
      <point x="138" y="119"/>
      <point x="213" y="-20"/>
    </contour>
    <contour>
      <point x="180" y="221" type="curve"/>
      <point x="282" y="269"/>
      <point x="348" y="312"/>
      <point x="417" y="388" type="curve"/>
      <point x="438" y="412"/>
      <point x="442" y="443"/>
      <point x="398" y="493" type="curve"/>
      <point x="320" y="404"/>
      <point x="251" y="344"/>
      <point x="168" y="293" type="curve" smooth="yes"/>
      <point x="146" y="280"/>
      <point x="158" y="252"/>
    </contour>
  </outline>
</glyph>
<glyph name="one" format="1">
  <advance width="600"/>
  <unicode hex="0031"/>
  <outline>
    <contour>
      <point x="429" y="77" type="curve"/>
      <point x="429" y="272"/>
      <point x="429" y="460"/>
      <point x="429" y="656" type="curve" smooth="yes"/>
      <point x="429" y="696"/>
      <point x="348" y="710"/>
      <point x="264" y="710" type="curve" smooth="yes"/>
      <point x="243" y="710" type="line"/>
      <point x="243" y="537"/>
      <point x="243" y="366"/>
      <point x="243" y="257" type="curve" smooth="yes"/>
      <point x="243" y="132"/>
      <point x="320" y="77"/>
    </contour>
    <contour>
      <point x="58" y="180" type="line"/>
      <point x="56" y="164"/>
      <point x="54" y="148"/>
      <point x="54" y="131" type="curve" smooth="yes"/>
      <point x="54" y="73"/>
      <point x="63" y="39"/>
      <point x="82" y="20" type="curve" smooth="yes"/>
      <point x="97" y="5"/>
      <point x="116" y="0"/>
      <point x="163" y="0" type="curve" smooth="yes"/>
      <point x="561" y="0" type="line"/>
      <point x="566" y="16"/>
      <point x="569" y="36"/>
      <point x="569" y="58" type="curve" smooth="yes"/>
      <point x="569" y="138"/>
      <point x="521" y="180"/>
      <point x="416" y="180" type="curve" smooth="yes"/>
    </contour>
    <contour>
      <point x="114" y="401" type="curve" smooth="yes"/>
      <point x="142" y="401"/>
      <point x="170" y="417"/>
      <point x="202" y="450" type="curve" smooth="yes"/>
      <point x="256" y="502"/>
      <point x="294" y="580"/>
      <point x="294" y="630" type="curve" smooth="yes"/>
      <point x="294" y="684"/>
      <point x="272" y="710"/>
      <point x="246" y="710" type="curve"/>
      <point x="231" y="710" type="line"/>
      <point x="216" y="688"/>
      <point x="202" y="670"/>
      <point x="184" y="650" type="curve"/>
      <point x="152" y="620"/>
      <point x="106" y="590"/>
      <point x="54" y="570" type="curve"/>
      <point x="54" y="542" type="line" smooth="yes"/>
      <point x="54" y="462"/>
      <point x="81" y="401"/>
    </contour>
  </outline>
</glyph>
<glyph name="two" format="1">
  <advance width="600"/>
  <unicode hex="0032"/>
  <outline>
    <contour>
      <point x="335" y="602" type="curve"/>
      <point x="367" y="564"/>
      <point x="374" y="546"/>
      <point x="374" y="512" type="curve" smooth="yes"/>
      <point x="374" y="464"/>
      <point x="346" y="436"/>
      <point x="250" y="386" type="curve" smooth="yes"/>
      <point x="95" y="306"/>
      <point x="46" y="219"/>
      <point x="46" y="142" type="curve" smooth="yes"/>
      <point x="46" y="104"/>
      <point x="88" y="90"/>
      <point x="182" y="90" type="curve"/>
      <point x="182" y="171"/>
      <point x="205" y="206"/>
      <point x="328" y="264" type="curve" smooth="yes"/>
      <point x="495" y="336"/>
      <point x="548" y="410"/>
      <point x="548" y="513" type="curve" smooth="yes"/>
      <point x="548" y="517" type="line" smooth="yes"/>
      <point x="548" y="608"/>
      <point x="472" y="644"/>
    </contour>
    <contour>
      <point x="552" y="0" type="line"/>
      <point x="558" y="24"/>
      <point x="562" y="54"/>
      <point x="562" y="83" type="curve" smooth="yes"/>
      <point x="562" y="160"/>
      <point x="540" y="180"/>
      <point x="470" y="180" type="curve" smooth="yes"/>
      <point x="323" y="180" type="line" smooth="yes"/>
      <point x="218" y="180"/>
      <point x="134" y="168"/>
      <point x="46" y="142" type="curve"/>
      <point x="46" y="139"/>
      <point x="46" y="137"/>
      <point x="46" y="134" type="curve" smooth="yes"/>
      <point x="46" y="78"/>
      <point x="88" y="0"/>
      <point x="122" y="0" type="curve" smooth="yes"/>
    </contour>
    <contour>
      <point x="308" y="720" type="curve" smooth="yes"/>
      <point x="223" y="720"/>
      <point x="142" y="700"/>
      <point x="109" y="668" type="curve" smooth="yes"/>
      <point x="83" y="642"/>
      <point x="74" y="606"/>
      <point x="74" y="560" type="curve" smooth="yes"/>
      <point x="74" y="526"/>
      <point x="78" y="503"/>
      <point x="88" y="482" type="curve"/>
      <point x="92" y="482" type="line"/>
      <point x="155" y="520"/>
      <point x="222" y="538"/>
      <point x="298" y="538" type="curve" smooth="yes"/>
      <point x="393" y="538"/>
      <point x="456" y="512"/>
      <point x="456" y="476" type="curve" smooth="yes"/>
      <point x="456" y="456"/>
      <point x="454" y="443"/>
      <point x="448" y="424" type="curve"/>
      <point x="509" y="424"/>
      <point x="548" y="464"/>
      <point x="548" y="517" type="curve" smooth="yes"/>
      <point x="548" y="650"/>
      <point x="461" y="720"/>
    </contour>
  </outline>
</glyph>
<glyph name="three" format="1">
  <advance width="600"/>
  <unicode hex="0033"/>
  <outline>
    <contour>
      <point x="271" y="533" type="curve" smooth="yes"/>
      <point x="370" y="533"/>
      <point x="423" y="498"/>
      <point x="423" y="452" type="curve" smooth="yes"/>
      <point x="423" y="440"/>
      <point x="422" y="432"/>
      <point x="420" y="424" type="curve"/>
      <point x="487" y="428"/>
      <point x="550" y="493"/>
      <point x="550" y="531" type="curve" smooth="yes"/>
      <point x="550" y="543" type="line" smooth="yes"/>
      <point x="550" y="642"/>
      <point x="462" y="720"/>
      <point x="295" y="720" type="curve" smooth="yes"/>
      <point x="212" y="720"/>
      <point x="140" y="702"/>
      <point x="106" y="669" type="curve" smooth="yes"/>
      <point x="77" y="640"/>
      <point x="66" y="605"/>
      <point x="66" y="540" type="curve" smooth="yes"/>
      <point x="66" y="508"/>
      <point x="69" y="489"/>
      <point x="75" y="469" type="curve"/>
      <point x="79" y="469" type="line"/>
      <point x="144" y="518"/>
      <point x="196" y="533"/>
    </contour>
    <contour>
      <point x="223" y="326" type="curve" smooth="yes"/>
      <point x="446" y="326"/>
      <point x="550" y="427"/>
      <point x="550" y="531" type="curve" smooth="yes"/>
      <point x="550" y="580"/>
      <point x="463" y="612"/>
      <point x="400" y="611" type="curve"/>
      <point x="402" y="604"/>
      <point x="404" y="589"/>
      <point x="404" y="568" type="curve" smooth="yes"/>
      <point x="404" y="448"/>
      <point x="321" y="404"/>
      <point x="170" y="404" type="curve"/>
      <point x="166" y="387"/>
      <point x="164" y="377"/>
      <point x="164" y="350" type="curve" smooth="yes"/>
      <point x="164" y="332"/>
      <point x="193" y="326"/>
    </contour>
    <contour>
      <point x="215" y="272" type="curve" smooth="yes"/>
      <point x="345" y="267"/>
      <point x="428" y="226"/>
      <point x="428" y="161" type="curve" smooth="yes"/>
      <point x="428" y="154"/>
      <point x="428" y="146"/>
      <point x="423" y="133" type="curve"/>
      <point x="495" y="134"/>
      <point x="560" y="158"/>
      <point x="560" y="182" type="curve" smooth="yes"/>
      <point x="560" y="309"/>
      <point x="392" y="369"/>
      <point x="171" y="369" type="curve"/>
      <point x="168" y="363"/>
      <point x="164" y="358"/>
      <point x="164" y="350" type="curve" smooth="yes"/>
      <point x="164" y="294"/>
      <point x="178" y="273"/>
    </contour>
    <contour>
      <point x="271" y="168" type="curve" smooth="yes"/>
      <point x="186" y="168"/>
      <point x="128" y="182"/>
      <point x="57" y="234" type="curve"/>
      <point x="53" y="234" type="line"/>
      <point x="46" y="214"/>
      <point x="42" y="192"/>
      <point x="42" y="158" type="curve" smooth="yes"/>
      <point x="42" y="94"/>
      <point x="52" y="60"/>
      <point x="80" y="32" type="curve" smooth="yes"/>
      <point x="114" y="-2"/>
      <point x="201" y="-20"/>
      <point x="300" y="-20" type="curve" smooth="yes"/>
      <point x="482" y="-20"/>
      <point x="560" y="64"/>
      <point x="560" y="168" type="curve" smooth="yes"/>
      <point x="560" y="182" type="line" smooth="yes"/>
      <point x="560" y="218"/>
      <point x="503" y="278"/>
      <point x="434" y="280" type="curve"/>
      <point x="436" y="270"/>
      <point x="438" y="262"/>
      <point x="438" y="250" type="curve" smooth="yes"/>
      <point x="438" y="192"/>
      <point x="382" y="168"/>
    </contour>
  </outline>
</glyph>
<glyph name="four" format="1">
  <advance width="600"/>
  <unicode hex="0034"/>
  <outline>
    <contour>
      <point x="181" y="259" type="curve"/>
      <point x="258" y="417"/>
      <point x="392" y="558"/>
      <point x="561" y="642" type="curve"/>
      <point x="561" y="646" type="line"/>
      <point x="525" y="694"/>
      <point x="460" y="715"/>
      <point x="382" y="715" type="curve" smooth="yes"/>
      <point x="327" y="715"/>
      <point x="292" y="700"/>
      <point x="240" y="648" type="curve" smooth="yes"/>
      <point x="138" y="548"/>
      <point x="34" y="376"/>
      <point x="34" y="290" type="curve" smooth="yes"/>
      <point x="34" y="268"/>
      <point x="83" y="259"/>
    </contour>
    <contour>
      <point x="572" y="135" type="line"/>
      <point x="577" y="154"/>
      <point x="580" y="180"/>
      <point x="580" y="201" type="curve" smooth="yes"/>
      <point x="580" y="268"/>
      <point x="567" y="318"/>
      <point x="532" y="318" type="curve" smooth="yes"/>
      <point x="367" y="318" type="line"/>
      <point x="268" y="318"/>
      <point x="122" y="306"/>
      <point x="34" y="290" type="curve"/>
      <point x="34" y="278" type="line" smooth="yes"/>
      <point x="34" y="225"/>
      <point x="52" y="175"/>
      <point x="76" y="150" type="curve" smooth="yes"/>
      <point x="88" y="138"/>
      <point x="98" y="135"/>
      <point x="121" y="135" type="curve" smooth="yes"/>
    </contour>
    <contour>
      <point x="522" y="0" type="curve"/>
      <point x="514" y="32"/>
      <point x="511" y="61"/>
      <point x="511" y="98" type="curve" smooth="yes"/>
      <point x="511" y="372" type="line" smooth="yes"/>
      <point x="511" y="402"/>
      <point x="458" y="425"/>
      <point x="394" y="425" type="curve" smooth="yes"/>
      <point x="391" y="425" type="line"/>
      <point x="348" y="363"/>
      <point x="310" y="266"/>
      <point x="310" y="206" type="curve"/>
      <point x="310" y="60" type="line" smooth="yes"/>
      <point x="310" y="12"/>
      <point x="364" y="-6"/>
      <point x="452" y="-6" type="curve" smooth="yes"/>
      <point x="479" y="-6"/>
      <point x="501" y="-4"/>
    </contour>
  </outline>
</glyph>
<glyph name="seven" format="1">
  <advance width="600"/>
  <unicode hex="0037"/>
  <outline>
    <contour>
      <point x="329" y="512" type="line" smooth="yes"/>
      <point x="386" y="512"/>
      <point x="488" y="522"/>
      <point x="563" y="540" type="curve"/>
      <point x="563" y="546" type="line"/>
      <point x="563" y="616"/>
      <point x="535" y="700"/>
      <point x="496" y="700" type="curve"/>
      <point x="100" y="700" type="line"/>
      <point x="100" y="666" type="line" smooth="yes"/>
      <point x="100" y="574"/>
      <point x="120" y="512"/>
      <point x="167" y="512" type="curve" smooth="yes"/>
    </contour>
    <contour>
      <point x="367" y="-15" type="line"/>
      <point x="367" y="212"/>
      <point x="563" y="435"/>
      <point x="563" y="540" type="curve" smooth="yes"/>
      <point x="563" y="556"/>
      <point x="498" y="568"/>
      <point x="394" y="568" type="curve"/>
      <point x="394" y="461"/>
      <point x="184" y="244"/>
      <point x="184" y="70" type="curve" smooth="yes"/>
      <point x="184" y="8"/>
      <point x="254" y="-15"/>
      <point x="347" y="-15" type="curve" smooth="yes"/>
    </contour>
    <contour>
      <point x="220" y="434" type="curve"/>
      <point x="220" y="528"/>
      <point x="234" y="596"/>
      <point x="234" y="654" type="curve"/>
      <point x="234" y="694"/>
      <point x="152" y="720"/>
      <point x="78" y="720" type="curve" smooth="yes"/>
      <point x="74" y="720" type="line"/>
      <point x="51" y="645"/>
      <point x="42" y="575"/>
      <point x="42" y="498" type="curve"/>
      <point x="42" y="432"/>
      <point x="78" y="425"/>
      <point x="150" y="425" type="curve" smooth="yes"/>
      <point x="178" y="425"/>
      <point x="200" y="428"/>
    </contour>
  </outline>
</glyph>
<glyph name="nine" format="1">
  <advance width="600"/>
  <unicode hex="0039"/>
  <outline>
    <contour>
      <point x="446" y="500" type="curve"/>
      <point x="476" y="626"/>
      <point x="401" y="720"/>
      <point x="291" y="720" type="curve"/>
      <point x="140" y="720"/>
      <point x="39" y="617"/>
      <point x="39" y="462" type="curve" smooth="yes"/>
      <point x="39" y="456" type="line" smooth="yes"/>
      <point x="39" y="358"/>
      <point x="117" y="312"/>
      <point x="239" y="350" type="curve"/>
      <point x="223" y="375"/>
      <point x="218" y="406"/>
      <point x="218" y="449" type="curve" smooth="yes"/>
      <point x="218" y="453" type="line" smooth="yes"/>
      <point x="218" y="509"/>
      <point x="246" y="545"/>
      <point x="304" y="545" type="curve" smooth="yes"/>
      <point x="364" y="545"/>
      <point x="403" y="532"/>
    </contour>
    <contour>
      <point x="428" y="208" type="curve"/>
      <point x="371" y="169"/>
      <point x="316" y="155"/>
      <point x="241" y="155" type="curve" smooth="yes"/>
      <point x="174" y="155"/>
      <point x="136" y="164"/>
      <point x="82" y="186" type="curve"/>
      <point x="78" y="186" type="line"/>
      <point x="71" y="165"/>
      <point x="68" y="144"/>
      <point x="68" y="116" type="curve" smooth="yes"/>
      <point x="68" y="62"/>
      <point x="80" y="34"/>
      <point x="101" y="13" type="curve" smooth="yes"/>
      <point x="119" y="-5"/>
      <point x="161" y="-20"/>
      <point x="244" y="-20" type="curve" smooth="yes"/>
      <point x="397" y="-20"/>
      <point x="480" y="85"/>
    </contour>
    <contour>
      <point x="562" y="393" type="curve" smooth="yes"/>
      <point x="562" y="400" type="line" smooth="yes"/>
      <point x="562" y="612"/>
      <point x="456" y="720"/>
      <point x="291" y="720" type="curve" smooth="yes"/>
      <point x="266" y="720"/>
      <point x="248" y="708"/>
      <point x="258" y="620" type="curve"/>
      <point x="346" y="597"/>
      <point x="378" y="538"/>
      <point x="378" y="426" type="curve" smooth="yes"/>
      <point x="378" y="396" type="line" smooth="yes"/>
      <point x="378" y="180"/>
      <point x="348" y="118"/>
      <point x="206" y="56" type="curve"/>
      <point x="206" y="9"/>
      <point x="220" y="-20"/>
      <point x="244" y="-20" type="curve" smooth="yes"/>
      <point x="433" y="-20"/>
      <point x="562" y="99"/>
    </contour>
    <contour>
      <point x="244" y="238" type="curve" smooth="yes"/>
      <point x="302" y="238"/>
      <point x="364" y="255"/>
      <point x="388" y="278" type="curve" smooth="yes"/>
      <point x="412" y="302"/>
      <point x="416" y="336"/>
      <point x="418" y="408" type="curve"/>
      <point x="370" y="389"/>
      <point x="329" y="380"/>
      <point x="286" y="380" type="curve" smooth="yes"/>
      <point x="200" y="380"/>
      <point x="146" y="422"/>
      <point x="146" y="488" type="curve" smooth="yes"/>
      <point x="146" y="504"/>
      <point x="148" y="520"/>
      <point x="156" y="536" type="curve"/>
      <point x="94" y="536"/>
      <point x="39" y="499"/>
      <point x="39" y="457" type="curve" smooth="yes"/>
      <point x="39" y="316"/>
      <point x="122" y="238"/>
    </contour>
  </outline>
</glyph>
<glyph name="colon" format="1">
  <advance width="600"/>
  <unicode hex="003A"/>
  <outline>
    <contour>
      <point x="417" y="324" type="curve"/>
      <point x="417" y="460" type="line" smooth="yes"/>
      <point x="417" y="535"/>
      <point x="357" y="556"/>
      <point x="277" y="556" type="curve" smooth="yes"/>
      <point x="241" y="556"/>
      <point x="212" y="552"/>
      <point x="183" y="546" type="curve"/>
      <point x="183" y="412" type="line" smooth="yes"/>
      <point x="183" y="336"/>
      <point x="243" y="316"/>
      <point x="323" y="316" type="curve" smooth="yes"/>
      <point x="359" y="316"/>
      <point x="388" y="318"/>
    </contour>
    <contour>
      <point x="417" y="-2" type="curve"/>
      <point x="417" y="132" type="line" smooth="yes"/>
      <point x="417" y="208"/>
      <point x="357" y="228"/>
      <point x="277" y="228" type="curve" smooth="yes"/>
      <point x="241" y="228"/>
      <point x="212" y="226"/>
      <point x="183" y="220" type="curve"/>
      <point x="183" y="84" type="line" smooth="yes"/>
      <point x="183" y="9"/>
      <point x="243" y="-12"/>
      <point x="323" y="-12" type="curve" smooth="yes"/>
      <point x="359" y="-12"/>
      <point x="388" y="-8"/>
    </contour>
  </outline>
</glyph>
<glyph name="semicolon" format="1">
  <advance width="600"/>
  <unicode hex="003B"/>
  <outline>
    <contour>
      <point x="417" y="322" type="curve"/>
      <point x="417" y="457" type="line" smooth="yes"/>
      <point x="417" y="533"/>
      <point x="357" y="553"/>
      <point x="277" y="553" type="curve" smooth="yes"/>
      <point x="241" y="553"/>
      <point x="212" y="550"/>
      <point x="183" y="544" type="curve"/>
      <point x="183" y="409" type="line" smooth="yes"/>
      <point x="183" y="333"/>
      <point x="243" y="313"/>
      <point x="323" y="313" type="curve" smooth="yes"/>
      <point x="359" y="313"/>
      <point x="388" y="316"/>
    </contour>
    <contour>
      <point x="270" y="-203" type="curve" smooth="yes"/>
      <point x="301" y="-203"/>
      <point x="317" y="-198"/>
      <point x="334" y="-180" type="curve"/>
      <point x="390" y="-125"/>
      <point x="443" y="-6"/>
      <point x="443" y="77" type="curve"/>
      <point x="443" y="142"/>
      <point x="405" y="168"/>
      <point x="294" y="168" type="curve" smooth="yes"/>
      <point x="266" y="168"/>
      <point x="248" y="166"/>
      <point x="212" y="162" type="curve"/>
      <point x="212" y="37"/>
      <point x="191" y="-78"/>
      <point x="143" y="-160" type="curve"/>
      <point x="180" y="-191"/>
      <point x="217" y="-203"/>
    </contour>
  </outline>
</glyph>
<glyph name="less" format="1">
  <advance width="600"/>
  <unicode hex="003C"/>
  <outline>
    <contour>
      <point x="536" y="446" type="curve"/>
      <point x="536" y="474" type="line"/>
      <point x="536" y="522"/>
      <point x="506" y="602"/>
      <point x="458" y="602" type="curve" smooth="yes"/>
      <point x="445" y="602"/>
      <point x="419" y="596"/>
      <point x="381" y="578" type="curve" smooth="yes"/>
      <point x="260" y="524"/>
      <point x="122" y="414"/>
      <point x="68" y="330" type="curve"/>
      <point x="68" y="311" type="line"/>
      <point x="68" y="262"/>
      <point x="111" y="256"/>
      <point x="228" y="250" type="curve"/>
      <point x="282" y="332"/>
      <point x="378" y="415"/>
    </contour>
    <contour>
      <point x="523" y="-12" type="curve"/>
      <point x="529" y="6"/>
      <point x="531" y="26"/>
      <point x="531" y="54" type="curve" smooth="yes"/>
      <point x="531" y="122"/>
      <point x="518" y="170"/>
      <point x="486" y="180" type="curve" smooth="yes"/>
      <point x="354" y="226"/>
      <point x="256" y="292"/>
      <point x="188" y="381" type="curve" smooth="yes"/>
      <point x="181" y="390"/>
      <point x="180" y="398"/>
      <point x="180" y="402" type="curve" smooth="yes"/>
      <point x="180" y="408"/>
      <point x="180" y="412"/>
      <point x="180" y="416" type="curve"/>
      <point x="112" y="388"/>
      <point x="68" y="344"/>
      <point x="68" y="314" type="curve" smooth="yes"/>
      <point x="68" y="306" type="line" smooth="yes"/>
      <point x="68" y="274"/>
      <point x="70" y="258"/>
      <point x="120" y="209" type="curve" smooth="yes"/>
      <point x="207" y="122"/>
      <point x="340" y="34"/>
    </contour>
  </outline>
</glyph>
<glyph name="equal" format="1">
  <advance width="600"/>
  <unicode hex="003D"/>
  <outline>
    <contour>
      <point x="47" y="525" type="line"/>
      <point x="47" y="518"/>
      <point x="47" y="512"/>
      <point x="47" y="504" type="curve" smooth="yes"/>
      <point x="47" y="431"/>
      <point x="56" y="390"/>
      <point x="78" y="368" type="curve" smooth="yes"/>
      <point x="96" y="350"/>
      <point x="122" y="344"/>
      <point x="180" y="344" type="curve"/>
      <point x="552" y="344" type="line"/>
      <point x="558" y="370"/>
      <point x="562" y="400"/>
      <point x="562" y="424" type="curve" smooth="yes"/>
      <point x="562" y="503"/>
      <point x="540" y="525"/>
      <point x="473" y="525" type="curve"/>
    </contour>
    <contour>
      <point x="562" y="75" type="line"/>
      <point x="562" y="82"/>
      <point x="562" y="88"/>
      <point x="562" y="96" type="curve" smooth="yes"/>
      <point x="562" y="169"/>
      <point x="552" y="210"/>
      <point x="530" y="232" type="curve" smooth="yes"/>
      <point x="512" y="250"/>
      <point x="487" y="256"/>
      <point x="428" y="256" type="curve"/>
      <point x="56" y="256" type="line"/>
      <point x="51" y="230"/>
      <point x="47" y="200"/>
      <point x="47" y="176" type="curve" smooth="yes"/>
      <point x="47" y="97"/>
      <point x="68" y="75"/>
      <point x="136" y="75" type="curve"/>
    </contour>
  </outline>
</glyph>
<glyph name="greater" format="1">
  <advance width="600"/>
  <unicode hex="003E"/>
  <outline>
    <contour>
      <point x="64" y="151" type="curve"/>
      <point x="64" y="124" type="line"/>
      <point x="64" y="76"/>
      <point x="95" y="-5"/>
      <point x="142" y="-5" type="curve" smooth="yes"/>
      <point x="155" y="-5"/>
      <point x="181" y="2"/>
      <point x="219" y="19" type="curve" smooth="yes"/>
      <point x="340" y="73"/>
      <point x="478" y="184"/>
      <point x="532" y="267" type="curve"/>
      <point x="532" y="287" type="line"/>
      <point x="532" y="335"/>
      <point x="489" y="342"/>
      <point x="372" y="347" type="curve"/>
      <point x="318" y="266"/>
      <point x="222" y="183"/>
    </contour>
    <contour>
      <point x="77" y="609" type="curve"/>
      <point x="71" y="591"/>
      <point x="69" y="572"/>
      <point x="69" y="543" type="curve" smooth="yes"/>
      <point x="69" y="476"/>
      <point x="83" y="428"/>
      <point x="114" y="418" type="curve" smooth="yes"/>
      <point x="247" y="372"/>
      <point x="344" y="306"/>
      <point x="412" y="217" type="curve" smooth="yes"/>
      <point x="419" y="208"/>
      <point x="420" y="200"/>
      <point x="420" y="196" type="curve" smooth="yes"/>
      <point x="420" y="189"/>
      <point x="420" y="186"/>
      <point x="420" y="181" type="curve"/>
      <point x="488" y="210"/>
      <point x="532" y="254"/>
      <point x="532" y="283" type="curve" smooth="yes"/>
      <point x="532" y="292" type="line" smooth="yes"/>
      <point x="532" y="323"/>
      <point x="530" y="340"/>
      <point x="480" y="389" type="curve" smooth="yes"/>
      <point x="393" y="476"/>
      <point x="260" y="563"/>
    </contour>
  </outline>
</glyph>
<glyph name="question" format="1">
  <advance width="600"/>
  <unicode hex="003F"/>
  <outline>
    <contour>
      <point x="315" y="720" type="curve" smooth="yes"/>
      <point x="206" y="720"/>
      <point x="136" y="702"/>
      <point x="102" y="669" type="curve" smooth="yes"/>
      <point x="83" y="650"/>
      <point x="72" y="615"/>
      <point x="72" y="572" type="curve" smooth="yes"/>
      <point x="72" y="542"/>
      <point x="76" y="522"/>
      <point x="84" y="498" type="curve"/>
      <point x="88" y="498" type="line"/>
      <point x="160" y="534"/>
      <point x="224" y="548"/>
      <point x="299" y="548" type="curve" smooth="yes"/>
      <point x="391" y="548"/>
      <point x="424" y="523"/>
      <point x="424" y="483" type="curve" smooth="yes"/>
      <point x="424" y="464"/>
      <point x="422" y="450"/>
      <point x="417" y="433" type="curve"/>
      <point x="499" y="430"/>
      <point x="544" y="466"/>
      <point x="544" y="516" type="curve" smooth="yes"/>
      <point x="544" y="618"/>
      <point x="454" y="720"/>
    </contour>
    <contour>
      <point x="334" y="626" type="curve"/>
      <point x="357" y="584"/>
      <point x="362" y="566"/>
      <point x="362" y="536" type="curve" smooth="yes"/>
      <point x="362" y="515"/>
      <point x="360" y="494"/>
      <point x="306" y="458" type="curve" smooth="yes"/>
      <point x="284" y="442" type="line" smooth="yes"/>
      <point x="212" y="392"/>
      <point x="200" y="370"/>
      <point x="200" y="340" type="curve" smooth="yes"/>
      <point x="200" y="336" type="line" smooth="yes"/>
      <point x="200" y="293"/>
      <point x="252" y="256"/>
      <point x="348" y="256" type="curve" smooth="yes"/>
      <point x="357" y="256" type="line"/>
      <point x="357" y="259" type="line" smooth="yes"/>
      <point x="357" y="280"/>
      <point x="368" y="300"/>
      <point x="392" y="316" type="curve" smooth="yes"/>
      <point x="425" y="336" type="line" smooth="yes"/>
      <point x="512" y="391"/>
      <point x="544" y="454"/>
      <point x="544" y="514" type="curve" smooth="yes"/>
      <point x="544" y="516" type="line" smooth="yes"/>
      <point x="544" y="594"/>
      <point x="444" y="666"/>
    </contour>
    <contour>
      <point x="397" y="-2" type="curve"/>
      <point x="397" y="98" type="line" smooth="yes"/>
      <point x="397" y="174"/>
      <point x="337" y="194"/>
      <point x="257" y="194" type="curve" smooth="yes"/>
      <point x="221" y="194"/>
      <point x="192" y="190"/>
      <point x="163" y="184" type="curve"/>
      <point x="163" y="84" type="line" smooth="yes"/>
      <point x="163" y="8"/>
      <point x="223" y="-12"/>
      <point x="303" y="-12" type="curve" smooth="yes"/>
      <point x="339" y="-12"/>
      <point x="368" y="-8"/>
    </contour>
  </outline>
</glyph>
<glyph name="at" format="1">
  <advance width="600"/>
  <unicode hex="0040"/>
  <outline>
    <contour>
      <point x="452" y="526" type="curve" smooth="yes"/>
      <point x="438" y="541"/>
      <point x="423" y="550"/>
      <point x="380" y="550" type="curve" smooth="yes"/>
      <point x="363" y="550"/>
      <point x="337" y="545"/>
      <point x="308" y="516" type="curve" smooth="yes"/>
      <point x="280" y="489"/>
      <point x="278" y="420"/>
      <point x="297" y="384" type="curve"/>
      <point x="340" y="408"/>
      <point x="358" y="417"/>
      <point x="396" y="417" type="curve" smooth="yes"/>
      <point x="412" y="417"/>
      <point x="434" y="414"/>
      <point x="455" y="398" type="curve"/>
      <point x="474" y="445"/>
      <point x="472" y="506"/>
    </contour>
    <contour>
      <point x="495" y="236" type="curve"/>
      <point x="462" y="188"/>
      <point x="424" y="150"/>
      <point x="394" y="150" type="curve" smooth="yes"/>
      <point x="376" y="150"/>
      <point x="368" y="180"/>
      <point x="368" y="236" type="curve" smooth="yes"/>
      <point x="368" y="244" type="line" smooth="yes"/>
      <point x="368" y="362"/>
      <point x="378" y="442"/>
      <point x="418" y="510" type="curve"/>
      <point x="382" y="538"/>
      <point x="338" y="547"/>
      <point x="308" y="516" type="curve" smooth="yes"/>
      <point x="262" y="471"/>
      <point x="232" y="373"/>
      <point x="232" y="220" type="curve" smooth="yes"/>
      <point x="232" y="210" type="line" smooth="yes"/>
      <point x="232" y="76"/>
      <point x="277" y="8"/>
      <point x="358" y="8" type="curve" smooth="yes"/>
      <point x="414" y="8"/>
      <point x="446" y="31"/>
      <point x="485" y="88" type="curve" smooth="yes"/>
      <point x="506" y="116"/>
      <point x="514" y="174"/>
    </contour>
    <contour>
      <point x="560" y="13" type="line"/>
      <point x="556" y="52"/>
      <point x="554" y="94"/>
      <point x="554" y="120" type="curve"/>
      <point x="554" y="516" type="line" smooth="yes"/>
      <point x="554" y="675"/>
      <point x="480" y="760"/>
      <point x="341" y="760" type="curve" smooth="yes"/>
      <point x="298" y="760"/>
      <point x="304" y="708"/>
      <point x="304" y="684" type="curve"/>
      <point x="382" y="691"/>
      <point x="398" y="639"/>
      <point x="398" y="572" type="curve" smooth="yes"/>
      <point x="398" y="144" type="line" smooth="yes"/>
      <point x="398" y="78"/>
      <point x="456" y="13"/>
      <point x="542" y="13" type="curve" smooth="yes"/>
    </contour>
    <contour>
      <point x="46" y="220" type="curve" smooth="yes"/>
      <point x="46" y="205" type="line" smooth="yes"/>
      <point x="46" y="12"/>
      <point x="84" y="-78"/>
      <point x="136" y="-130" type="curve" smooth="yes"/>
      <point x="171" y="-164"/>
      <point x="224" y="-159"/>
      <point x="268" y="-113" type="curve"/>
      <point x="170" y="-22"/>
      <point x="162" y="44"/>
      <point x="162" y="207" type="curve" smooth="yes"/>
      <point x="162" y="218" type="line" smooth="yes"/>
      <point x="162" y="438"/>
      <point x="228" y="644"/>
      <point x="355" y="644" type="curve" smooth="yes"/>
      <point x="412" y="644"/>
      <point x="418" y="612"/>
      <point x="423" y="572" type="curve"/>
      <point x="462" y="590"/>
      <point x="479" y="618"/>
      <point x="479" y="652" type="curve" smooth="yes"/>
      <point x="479" y="724"/>
      <point x="428" y="760"/>
      <point x="341" y="760" type="curve" smooth="yes"/>
      <point x="158" y="760"/>
      <point x="46" y="529"/>
    </contour>
    <contour>
      <point x="322" y="-195" type="curve" smooth="yes"/>
      <point x="392" y="-195"/>
      <point x="436" y="-186"/>
      <point x="455" y="-168" type="curve" smooth="yes"/>
      <point x="474" y="-149"/>
      <point x="478" y="-110"/>
      <point x="478" y="-60" type="curve" smooth="yes"/>
      <point x="478" y="-46" type="line"/>
      <point x="474" y="-46" type="line"/>
      <point x="432" y="-67"/>
      <point x="392" y="-80"/>
      <point x="328" y="-80" type="curve" smooth="yes"/>
      <point x="250" y="-80"/>
      <point x="198" y="-46"/>
      <point x="142" y="13" type="curve"/>
      <point x="106" y="-18"/>
      <point x="95" y="-89"/>
      <point x="136" y="-130" type="curve"/>
      <point x="178" y="-172"/>
      <point x="242" y="-195"/>
    </contour>
  </outline>
</glyph>
<glyph name="C" format="1">
  <advance width="600"/>
  <unicode hex="0043"/>
  <outline>
    <contour>
      <point x="350" y="559" type="curve" smooth="yes"/>
      <point x="412" y="559"/>
      <point x="458" y="525"/>
      <point x="486" y="418" type="curve"/>
      <point x="542" y="418"/>
      <point x="555" y="425"/>
      <point x="555" y="444" type="curve" smooth="yes"/>
      <point x="555" y="543"/>
      <point x="532" y="618"/>
      <point x="486" y="663" type="curve" smooth="yes"/>
      <point x="450" y="699"/>
      <point x="402" y="720"/>
      <point x="339" y="720" type="curve" smooth="yes"/>
      <point x="176" y="720"/>
      <point x="38" y="575"/>
      <point x="38" y="299" type="curve" smooth="yes"/>
      <point x="38" y="282" type="line" smooth="yes"/>
      <point x="38" y="206"/>
      <point x="128" y="140"/>
      <point x="248" y="140" type="curve"/>
      <point x="238" y="166"/>
      <point x="229" y="222"/>
      <point x="229" y="278" type="curve" smooth="yes"/>
      <point x="229" y="291" type="line" smooth="yes"/>
      <point x="229" y="464"/>
      <point x="283" y="559"/>
    </contour>
    <contour>
      <point x="332" y="-20" type="curve" smooth="yes"/>
      <point x="422" y="-20"/>
      <point x="491" y="1"/>
      <point x="526" y="36" type="curve" smooth="yes"/>
      <point x="552" y="62"/>
      <point x="563" y="111"/>
      <point x="563" y="176" type="curve" smooth="yes"/>
      <point x="563" y="201"/>
      <point x="560" y="222"/>
      <point x="557" y="242" type="curve"/>
      <point x="553" y="242" type="line"/>
      <point x="500" y="188"/>
      <point x="426" y="160"/>
      <point x="340" y="160" type="curve" smooth="yes"/>
      <point x="250" y="160"/>
      <point x="220" y="200"/>
      <point x="220" y="332" type="curve"/>
      <point x="102" y="333"/>
      <point x="38" y="321"/>
      <point x="38" y="282" type="curve" smooth="yes"/>
      <point x="38" y="106"/>
      <point x="142" y="-20"/>
    </contour>
    <contour>
      <point x="555" y="372" type="curve"/>
      <point x="555" y="444" type="line" smooth="yes"/>
      <point x="555" y="579"/>
      <point x="492" y="636"/>
      <point x="403" y="636" type="curve"/>
      <point x="372" y="547"/>
      <point x="362" y="504"/>
      <point x="362" y="439" type="curve" smooth="yes"/>
      <point x="362" y="434" type="line"/>
      <point x="362" y="412"/>
      <point x="368" y="395"/>
      <point x="378" y="384" type="curve" smooth="yes"/>
      <point x="394" y="368"/>
      <point x="423" y="362"/>
      <point x="477" y="362" type="curve"/>
      <point x="508" y="362"/>
      <point x="534" y="366"/>
    </contour>
    <contour>
      <point x="300" y="711" type="move" name="top"/>
    </contour>
    <contour>
      <point x="313" y="0" type="move" name="bottom"/>
    </contour>
  </outline>
</glyph>
<glyph name="D" format="1">
  <advance width="600"/>
  <unicode hex="0044"/>
  <outline>
    <contour>
      <point x="248" y="35" type="curve"/>
      <point x="248" y="468" type="line" smooth="yes"/>
      <point x="248" y="560"/>
      <point x="180" y="608"/>
      <point x="55" y="608" type="curve"/>
      <point x="55" y="95" type="line" smooth="yes"/>
      <point x="55" y="62"/>
      <point x="140" y="35"/>
    </contour>
    <contour>
      <point x="22" y="695" type="curve"/>
      <point x="16" y="674"/>
      <point x="12" y="648"/>
      <point x="12" y="612" type="curve"/>
      <point x="12" y="560"/>
      <point x="18" y="535"/>
      <point x="30" y="522" type="curve" smooth="yes"/>
      <point x="36" y="516"/>
      <point x="40" y="515"/>
      <point x="50" y="515" type="curve" smooth="yes"/>
      <point x="62" y="515"/>
      <point x="81" y="519"/>
      <point x="120" y="524" type="curve" smooth="yes"/>
      <point x="162" y="530"/>
      <point x="208" y="535"/>
      <point x="276" y="535" type="curve" smooth="yes"/>
      <point x="358" y="535"/>
      <point x="392" y="516"/>
      <point x="438" y="486" type="curve"/>
      <point x="512" y="572"/>
      <point x="421" y="715"/>
      <point x="308" y="715" type="curve" smooth="yes"/>
      <point x="209" y="715"/>
      <point x="108" y="710"/>
    </contour>
    <contour>
      <point x="569" y="406" type="curve" smooth="yes"/>
      <point x="569" y="423" type="line" smooth="yes"/>
      <point x="569" y="601"/>
      <point x="485" y="715"/>
      <point x="308" y="715" type="curve"/>
      <point x="289" y="715"/>
      <point x="270" y="697"/>
      <point x="270" y="602" type="curve"/>
      <point x="364" y="563"/>
      <point x="375" y="528"/>
      <point x="375" y="413" type="curve" smooth="yes"/>
      <point x="375" y="402" type="line" smooth="yes"/>
      <point x="375" y="248"/>
      <point x="330" y="170"/>
      <point x="254" y="170" type="curve" smooth="yes"/>
      <point x="186" y="170"/>
      <point x="154" y="176"/>
      <point x="98" y="196" type="curve"/>
      <point x="72" y="171"/>
      <point x="55" y="138"/>
      <point x="55" y="95" type="curve" smooth="yes"/>
      <point x="55" y="41"/>
      <point x="144" y="-10"/>
      <point x="236" y="-10" type="curve" smooth="yes"/>
      <point x="244" y="-10" type="line" smooth="yes"/>
      <point x="442" y="-10"/>
      <point x="569" y="138"/>
    </contour>
    <contour>
      <point x="290" y="711" type="move" name="top"/>
    </contour>
  </outline>
</glyph>
<glyph name="E" format="1">
  <advance width="600"/>
  <unicode hex="0045"/>
  <outline>
    <contour>
      <point x="18" y="700" type="line"/>
      <point x="16" y="682"/>
      <point x="15" y="663"/>
      <point x="15" y="645" type="curve" smooth="yes"/>
      <point x="15" y="588"/>
      <point x="20" y="546"/>
      <point x="33" y="533" type="curve" smooth="yes"/>
      <point x="40" y="526"/>
      <point x="42" y="525"/>
      <point x="50" y="525" type="curve" smooth="yes"/>
      <point x="558" y="525" type="line"/>
      <point x="564" y="546"/>
      <point x="565" y="562"/>
      <point x="565" y="584" type="curve" smooth="yes"/>
      <point x="565" y="620"/>
      <point x="556" y="662"/>
      <point x="537" y="682" type="curve" smooth="yes"/>
      <point x="522" y="696"/>
      <point x="512" y="700"/>
      <point x="488" y="700" type="curve" smooth="yes"/>
    </contour>
    <contour>
      <point x="248" y="115" type="curve"/>
      <point x="248" y="460" type="line" smooth="yes"/>
      <point x="248" y="546"/>
      <point x="178" y="596"/>
      <point x="55" y="596" type="curve"/>
      <point x="55" y="170" type="line"/>
      <point x="55" y="128"/>
      <point x="124" y="115"/>
    </contour>
    <contour>
      <point x="55" y="175" type="line"/>
      <point x="55" y="154" type="line" smooth="yes"/>
      <point x="55" y="81"/>
      <point x="108" y="0"/>
      <point x="154" y="0" type="curve" smooth="yes"/>
      <point x="558" y="0" type="line"/>
      <point x="563" y="18"/>
      <point x="566" y="39"/>
      <point x="566" y="62" type="curve" smooth="yes"/>
      <point x="566" y="140"/>
      <point x="542" y="175"/>
      <point x="490" y="175" type="curve" smooth="yes"/>
    </contour>
    <contour>
      <point x="147" y="408" type="line"/>
      <point x="147" y="312"/>
      <point x="162" y="268"/>
      <point x="200" y="268" type="curve" smooth="yes"/>
      <point x="496" y="268" type="line"/>
      <point x="498" y="278"/>
      <point x="500" y="291"/>
      <point x="500" y="302" type="curve" smooth="yes"/>
      <point x="500" y="334"/>
      <point x="490" y="368"/>
      <point x="470" y="388" type="curve" smooth="yes"/>
      <point x="454" y="404"/>
      <point x="443" y="408"/>
      <point x="419" y="408" type="curve" smooth="yes"/>
    </contour>
    <contour>
      <point x="296" y="712" type="move" name="top"/>
    </contour>
    <contour>
      <point x="559" y="0" type="move" name="ogonek"/>
    </contour>
    <contour>
      <point x="330" y="-1" type="move" name="bottom"/>
    </contour>
  </outline>
</glyph>
<glyph name="F" format="1">
  <advance width="600"/>
  <unicode hex="0046"/>
  <outline>
    <contour>
      <point x="276" y="-6" type="curve"/>
      <point x="270" y="31"/>
      <point x="268" y="65"/>
      <point x="268" y="96" type="curve" smooth="yes"/>
      <point x="268" y="454" type="line"/>
      <point x="268" y="553"/>
      <point x="199" y="590"/>
      <point x="75" y="590" type="curve"/>
      <point x="75" y="61" type="line" smooth="yes"/>
      <point x="75" y="14"/>
      <point x="130" y="-6"/>
      <point x="260" y="-6" type="curve" smooth="yes"/>
      <point x="266" y="-6"/>
      <point x="270" y="-6"/>
    </contour>
    <contour>
      <point x="18" y="700" type="line"/>
      <point x="16" y="682"/>
      <point x="15" y="663"/>
      <point x="15" y="645" type="curve" smooth="yes"/>
      <point x="15" y="582"/>
      <point x="22" y="542"/>
      <point x="33" y="531" type="curve" smooth="yes"/>
      <point x="41" y="523"/>
      <point x="46" y="520"/>
      <point x="60" y="520" type="curve"/>
      <point x="560" y="520" type="line"/>
      <point x="564" y="535"/>
      <point x="565" y="549"/>
      <point x="565" y="570" type="curve" smooth="yes"/>
      <point x="565" y="616"/>
      <point x="552" y="662"/>
      <point x="528" y="685" type="curve" smooth="yes"/>
      <point x="516" y="697"/>
      <point x="508" y="700"/>
      <point x="488" y="700" type="curve"/>
    </contour>
    <contour>
      <point x="132" y="362" type="line"/>
      <point x="132" y="239"/>
      <point x="140" y="188"/>
      <point x="185" y="188" type="curve"/>
      <point x="496" y="188" type="line"/>
      <point x="498" y="202"/>
      <point x="500" y="219"/>
      <point x="500" y="234" type="curve"/>
      <point x="500" y="268"/>
      <point x="488" y="316"/>
      <point x="460" y="344" type="curve" smooth="yes"/>
      <point x="444" y="360"/>
      <point x="435" y="362"/>
      <point x="410" y="362" type="curve"/>
    </contour>
  </outline>
</glyph>
<glyph name="G" format="1">
  <advance width="600"/>
  <unicode hex="0047"/>
  <outline>
    <contour>
      <point x="360" y="556" type="curve" smooth="yes"/>
      <point x="426" y="556"/>
      <point x="450" y="528"/>
      <point x="461" y="468" type="curve"/>
      <point x="522" y="468"/>
      <point x="550" y="489"/>
      <point x="550" y="504" type="curve" smooth="yes"/>
      <point x="550" y="565"/>
      <point x="540" y="604"/>
      <point x="488" y="657" type="curve" smooth="yes"/>
      <point x="446" y="698"/>
      <point x="408" y="720"/>
      <point x="353" y="720" type="curve" smooth="yes"/>
      <point x="180" y="720"/>
      <point x="35" y="587"/>
      <point x="35" y="294" type="curve" smooth="yes"/>
      <point x="35" y="286" type="line" smooth="yes"/>
      <point x="35" y="204"/>
      <point x="124" y="130"/>
      <point x="246" y="130" type="curve"/>
      <point x="236" y="160"/>
      <point x="228" y="226"/>
      <point x="228" y="292" type="curve" smooth="yes"/>
      <point x="228" y="301" type="line" smooth="yes"/>
      <point x="228" y="492"/>
      <point x="290" y="556"/>
    </contour>
    <contour>
      <point x="335" y="150" type="curve" smooth="yes"/>
      <point x="239" y="150"/>
      <point x="213" y="204"/>
      <point x="213" y="332" type="curve"/>
      <point x="106" y="333"/>
      <point x="35" y="324"/>
      <point x="35" y="286" type="curve" smooth="yes"/>
      <point x="35" y="106"/>
      <point x="130" y="-20"/>
      <point x="330" y="-20" type="curve" smooth="yes"/>
      <point x="460" y="-20"/>
      <point x="559" y="44"/>
      <point x="559" y="138" type="curve" smooth="yes"/>
      <point x="559" y="146" type="line" smooth="yes"/>
      <point x="559" y="218"/>
      <point x="500" y="284"/>
      <point x="435" y="284" type="curve"/>
      <point x="438" y="270"/>
      <point x="438" y="257"/>
      <point x="438" y="236" type="curve" smooth="yes"/>
      <point x="438" y="178"/>
      <point x="398" y="150"/>
    </contour>
    <contour>
      <point x="316" y="370" type="line"/>
      <point x="314" y="360"/>
      <point x="314" y="348"/>
      <point x="314" y="336" type="curve" smooth="yes"/>
      <point x="314" y="296"/>
      <point x="324" y="274"/>
      <point x="340" y="258" type="curve" smooth="yes"/>
      <point x="364" y="235"/>
      <point x="390" y="226"/>
      <point x="470" y="226" type="curve"/>
      <point x="580" y="226" type="line"/>
      <point x="580" y="240" type="line" smooth="yes"/>
      <point x="580" y="338"/>
      <point x="562" y="370"/>
      <point x="507" y="370" type="curve" smooth="yes"/>
    </contour>
    <contour>
      <point x="550" y="445" type="curve"/>
      <point x="550" y="504" type="line" smooth="yes"/>
      <point x="550" y="605"/>
      <point x="482" y="642"/>
      <point x="415" y="642" type="curve"/>
      <point x="378" y="586"/>
      <point x="362" y="546"/>
      <point x="362" y="502" type="curve" smooth="yes"/>
      <point x="362" y="497" type="line" smooth="yes"/>
      <point x="362" y="451"/>
      <point x="388" y="435"/>
      <point x="472" y="435" type="curve" smooth="yes"/>
      <point x="503" y="435"/>
      <point x="530" y="440"/>
    </contour>
    <contour>
      <point x="307" y="711" type="move" name="top"/>
    </contour>
    <contour>
      <point x="307" y="-1" type="move" name="bottom"/>
    </contour>
  </outline>
</glyph>
<glyph name="H" format="1">
  <advance width="600"/>
  <unicode hex="0048"/>
  <outline>
    <contour>
      <point x="42" y="702" type="curve"/>
      <point x="51" y="664"/>
      <point x="55" y="624"/>
      <point x="55" y="575" type="curve" smooth="yes"/>
      <point x="55" y="66" type="line" smooth="yes"/>
      <point x="55" y="10"/>
      <point x="89" y="-8"/>
      <point x="186" y="-8" type="curve" smooth="yes"/>
      <point x="210" y="-8"/>
      <point x="230" y="-7"/>
      <point x="248" y="-4" type="curve"/>
      <point x="248" y="617" type="line" smooth="yes"/>
      <point x="248" y="653"/>
      <point x="242" y="672"/>
      <point x="228" y="686" type="curve" smooth="yes"/>
      <point x="211" y="704"/>
      <point x="182" y="710"/>
      <point x="124" y="710" type="curve" smooth="yes"/>
      <point x="95" y="710"/>
      <point x="70" y="708"/>
    </contour>
    <contour>
      <point x="562" y="-2" type="curve"/>
      <point x="554" y="36"/>
      <point x="550" y="76"/>
      <point x="550" y="125" type="curve" smooth="yes"/>
      <point x="550" y="634" type="line" smooth="yes"/>
      <point x="550" y="689"/>
      <point x="512" y="708"/>
      <point x="408" y="708" type="curve" smooth="yes"/>
      <point x="390" y="708"/>
      <point x="372" y="708"/>
      <point x="358" y="705" type="curve"/>
      <point x="358" y="83" type="line" smooth="yes"/>
      <point x="358" y="47"/>
      <point x="363" y="28"/>
      <point x="376" y="14" type="curve" smooth="yes"/>
      <point x="394" y="-4"/>
      <point x="422" y="-10"/>
      <point x="480" y="-10" type="curve" smooth="yes"/>
      <point x="510" y="-10"/>
      <point x="536" y="-8"/>
    </contour>
    <contour>
      <point x="15" y="415" type="line"/>
      <point x="15" y="388" type="line" smooth="yes"/>
      <point x="15" y="320"/>
      <point x="26" y="273"/>
      <point x="48" y="251" type="curve" smooth="yes"/>
      <point x="60" y="239"/>
      <point x="87" y="235"/>
      <point x="114" y="235" type="curve"/>
      <point x="428" y="235" type="line"/>
      <point x="428" y="346"/>
      <point x="390" y="415"/>
      <point x="292" y="415" type="curve" smooth="yes"/>
    </contour>
    <contour>
      <point x="288" y="711" type="move" name="top"/>
    </contour>
  </outline>
</glyph>
<glyph name="I" format="1">
  <advance width="600"/>
  <unicode hex="0049"/>
  <outline>
    <contour>
      <point x="394" y="94" type="curve"/>
      <point x="394" y="454" type="line" smooth="yes"/>
      <point x="394" y="553"/>
      <point x="326" y="590"/>
      <point x="201" y="590" type="curve"/>
      <point x="201" y="252" type="line" smooth="yes"/>
      <point x="201" y="142"/>
      <point x="268" y="94"/>
    </contour>
    <contour>
      <point x="42" y="700" type="line"/>
      <point x="38" y="684"/>
      <point x="36" y="664"/>
      <point x="36" y="643" type="curve"/>
      <point x="36" y="607"/>
      <point x="44" y="566"/>
      <point x="64" y="546" type="curve" smooth="yes"/>
      <point x="84" y="526"/>
      <point x="106" y="520"/>
      <point x="167" y="520" type="curve" smooth="yes"/>
      <point x="542" y="520" type="line"/>
      <point x="548" y="540"/>
      <point x="551" y="564"/>
      <point x="551" y="588" type="curve" smooth="yes"/>
      <point x="551" y="650"/>
      <point x="543" y="700"/>
      <point x="489" y="700" type="curve" smooth="yes"/>
    </contour>
    <contour>
      <point x="43" y="180" type="line"/>
      <point x="38" y="160"/>
      <point x="36" y="137"/>
      <point x="36" y="114" type="curve"/>
      <point x="36" y="82"/>
      <point x="41" y="41"/>
      <point x="61" y="21" type="curve" smooth="yes"/>
      <point x="77" y="5"/>
      <point x="90" y="0"/>
      <point x="134" y="0" type="curve" smooth="yes"/>
      <point x="542" y="0" type="line"/>
      <point x="548" y="17"/>
      <point x="551" y="42"/>
      <point x="551" y="68" type="curve" smooth="yes"/>
      <point x="551" y="130"/>
      <point x="543" y="180"/>
      <point x="489" y="180" type="curve" smooth="yes"/>
    </contour>
    <contour>
      <point x="296" y="712" type="move" name="top"/>
    </contour>
    <contour>
      <point x="544" y="0" type="move" name="ogonek"/>
    </contour>
    <contour>
      <point x="300" y="-1" type="move" name="bottom"/>
    </contour>
  </outline>
</glyph>
<glyph name="J" format="1">
  <advance width="600"/>
  <unicode hex="004A"/>
  <outline>
    <contour>
      <point x="87" y="700" type="line"/>
      <point x="84" y="684"/>
      <point x="81" y="664"/>
      <point x="81" y="643" type="curve" smooth="yes"/>
      <point x="81" y="607"/>
      <point x="89" y="566"/>
      <point x="110" y="546" type="curve" smooth="yes"/>
      <point x="129" y="526"/>
      <point x="152" y="520"/>
      <point x="212" y="520" type="curve" smooth="yes"/>
      <point x="437" y="520" type="line"/>
      <point x="437" y="646"/>
      <point x="416" y="700"/>
      <point x="358" y="700" type="curve"/>
    </contour>
    <contour>
      <point x="537" y="220" type="curve" smooth="yes"/>
      <point x="537" y="640" type="line" smooth="yes"/>
      <point x="537" y="680"/>
      <point x="495" y="700"/>
      <point x="390" y="700" type="curve" smooth="yes"/>
      <point x="341" y="700" type="line"/>
      <point x="341" y="235" type="line" smooth="yes"/>
      <point x="341" y="149"/>
      <point x="334" y="108"/>
      <point x="297" y="46" type="curve"/>
      <point x="423" y="5"/>
      <point x="537" y="120"/>
    </contour>
    <contour>
      <point x="285" y="162" type="curve" smooth="yes"/>
      <point x="192" y="162"/>
      <point x="152" y="176"/>
      <point x="70" y="218" type="curve"/>
      <point x="66" y="218" type="line"/>
      <point x="62" y="196"/>
      <point x="60" y="174"/>
      <point x="60" y="148" type="curve"/>
      <point x="60" y="75"/>
      <point x="74" y="40"/>
      <point x="93" y="21" type="curve" smooth="yes"/>
      <point x="122" y="-8"/>
      <point x="182" y="-20"/>
      <point x="250" y="-20" type="curve" smooth="yes"/>
      <point x="260" y="-20" type="line" smooth="yes"/>
      <point x="444" y="-20"/>
      <point x="537" y="112"/>
      <point x="537" y="220" type="curve"/>
      <point x="537" y="239"/>
      <point x="514" y="264"/>
      <point x="464" y="264" type="curve"/>
      <point x="424" y="200"/>
      <point x="358" y="162"/>
    </contour>
    <contour>
      <point x="298" y="711" type="move" name="top"/>
    </contour>
  </outline>
</glyph>
<glyph name="L" format="1">
  <advance width="600"/>
  <unicode hex="004C"/>
  <outline>
    <contour>
      <point x="242" y="82" type="curve"/>
      <point x="242" y="617" type="line" smooth="yes"/>
      <point x="242" y="653"/>
      <point x="237" y="672"/>
      <point x="224" y="686" type="curve" smooth="yes"/>
      <point x="206" y="704"/>
      <point x="178" y="710"/>
      <point x="120" y="710" type="curve" smooth="yes"/>
      <point x="90" y="710"/>
      <point x="64" y="708"/>
      <point x="38" y="702" type="curve"/>
      <point x="46" y="664"/>
      <point x="50" y="624"/>
      <point x="50" y="575" type="curve" smooth="yes"/>
      <point x="50" y="173" type="line" smooth="yes"/>
      <point x="50" y="119"/>
      <point x="113" y="82"/>
    </contour>
    <contour>
      <point x="50" y="190" type="line"/>
      <point x="50" y="154" type="line" smooth="yes"/>
      <point x="50" y="74"/>
      <point x="102" y="0"/>
      <point x="149" y="0" type="curve" smooth="yes"/>
      <point x="564" y="0" type="line"/>
      <point x="568" y="20"/>
      <point x="570" y="49"/>
      <point x="570" y="78" type="curve" smooth="yes"/>
      <point x="570" y="152"/>
      <point x="546" y="190"/>
      <point x="500" y="190" type="curve" smooth="yes"/>
    </contour>
    <contour>
      <point x="432" y="550" type="move" name="caronslovak"/>
    </contour>
    <contour>
      <point x="144" y="711" type="move" name="top"/>
    </contour>
    <contour>
      <point x="454" y="400" type="move" name="dot"/>
    </contour>
    <contour>
      <point x="304" y="-1" type="move" name="bottom"/>
    </contour>
  </outline>
</glyph>
<glyph name="M" format="1">
  <advance width="600"/>
  <unicode hex="004D"/>
  <outline>
    <contour>
      <point x="216" y="-4" type="curve"/>
      <point x="216" y="46"/>
      <point x="216" y="89"/>
      <point x="216" y="138" type="curve" smooth="yes"/>
      <point x="216" y="264"/>
      <point x="160" y="345"/>
      <point x="160" y="658" type="curve" smooth="yes"/>
      <point x="160" y="677"/>
      <point x="158" y="688"/>
      <point x="152" y="694" type="curve" smooth="yes"/>
      <point x="139" y="706"/>
      <point x="131" y="710"/>
      <point x="110" y="710" type="curve" smooth="yes"/>
      <point x="84" y="710"/>
      <point x="58" y="708"/>
      <point x="32" y="703" type="curve"/>
      <point x="38" y="668"/>
      <point x="40" y="626"/>
      <point x="40" y="580" type="curve" smooth="yes"/>
      <point x="40" y="66" type="line" smooth="yes"/>
      <point x="40" y="42"/>
      <point x="44" y="29"/>
      <point x="56" y="17" type="curve" smooth="yes"/>
      <point x="73" y="0"/>
      <point x="113" y="-8"/>
      <point x="162" y="-8" type="curve" smooth="yes"/>
      <point x="185" y="-8"/>
      <point x="197" y="-8"/>
    </contour>
    <contour>
      <point x="570" y="-3" type="curve"/>
      <point x="563" y="33"/>
      <point x="560" y="73"/>
      <point x="560" y="120" type="curve" smooth="yes"/>
      <point x="560" y="654" type="line" smooth="yes"/>
      <point x="560" y="668"/>
      <point x="556" y="678"/>
      <point x="547" y="686" type="curve" smooth="yes"/>
      <point x="532" y="701"/>
      <point x="495" y="710"/>
      <point x="448" y="710" type="curve" smooth="yes"/>
      <point x="441" y="710" type="line"/>
      <point x="444" y="700"/>
      <point x="444" y="693"/>
      <point x="444" y="682" type="curve" smooth="yes"/>
      <point x="444" y="394"/>
      <point x="384" y="252"/>
      <point x="384" y="146" type="curve" smooth="yes"/>
      <point x="384" y="120"/>
      <point x="384" y="92"/>
      <point x="384" y="66" type="curve" smooth="yes"/>
      <point x="384" y="41"/>
      <point x="390" y="28"/>
      <point x="402" y="16" type="curve" smooth="yes"/>
      <point x="420" y="-2"/>
      <point x="451" y="-10"/>
      <point x="502" y="-10" type="curve"/>
      <point x="526" y="-10"/>
      <point x="548" y="-8"/>
    </contour>
    <contour>
      <point x="110" y="710" type="line"/>
      <point x="139" y="515"/>
      <point x="238" y="273"/>
      <point x="286" y="225" type="curve"/>
      <point x="290" y="221"/>
      <point x="294" y="220"/>
      <point x="298" y="220" type="curve"/>
      <point x="314" y="220"/>
      <point x="336" y="312"/>
      <point x="336" y="376" type="curve"/>
      <point x="289" y="439"/>
      <point x="255" y="529"/>
      <point x="236" y="668" type="curve"/>
      <point x="232" y="694"/>
      <point x="185" y="710"/>
      <point x="113" y="710" type="curve"/>
    </contour>
    <contour>
      <point x="441" y="710" type="curve" smooth="yes"/>
      <point x="417" y="710"/>
      <point x="395" y="709"/>
      <point x="372" y="704" type="curve"/>
      <point x="356" y="531"/>
      <point x="306" y="423"/>
      <point x="255" y="375" type="curve"/>
      <point x="253" y="337"/>
      <point x="274" y="220"/>
      <point x="298" y="220" type="curve"/>
      <point x="308" y="220" type="line"/>
      <point x="361" y="267"/>
      <point x="458" y="492"/>
      <point x="467" y="660" type="curve"/>
      <point x="468" y="693"/>
      <point x="460" y="710"/>
    </contour>
  </outline>
</glyph>
<glyph name="N" format="1">
  <advance width="600"/>
  <unicode hex="004E"/>
  <outline>
    <contour>
      <point x="230" y="-3" type="curve"/>
      <point x="230" y="80" type="line"/>
      <point x="230" y="334"/>
      <point x="186" y="657"/>
      <point x="146" y="698" type="curve" smooth="yes"/>
      <point x="139" y="704"/>
      <point x="129" y="710"/>
      <point x="121" y="710" type="curve"/>
      <point x="97" y="710"/>
      <point x="71" y="708"/>
      <point x="42" y="700" type="curve"/>
      <point x="51" y="664"/>
      <point x="55" y="624"/>
      <point x="55" y="575" type="curve" smooth="yes"/>
      <point x="55" y="51" type="line"/>
      <point x="55" y="3"/>
      <point x="124" y="-10"/>
      <point x="176" y="-10" type="curve"/>
      <point x="196" y="-10"/>
      <point x="212" y="-8"/>
    </contour>
    <contour>
      <point x="550" y="-10" type="line"/>
      <point x="550" y="646" type="line"/>
      <point x="550" y="690"/>
      <point x="484" y="710"/>
      <point x="400" y="710" type="curve"/>
      <point x="375" y="710" type="line"/>
      <point x="375" y="562" type="line"/>
      <point x="375" y="336"/>
      <point x="405" y="68"/>
      <point x="453" y="20" type="curve" smooth="yes"/>
      <point x="472" y="0"/>
      <point x="494" y="-10"/>
      <point x="510" y="-10" type="curve"/>
    </contour>
    <contour>
      <point x="121" y="710" type="line"/>
      <point x="146" y="680"/>
      <point x="161" y="628"/>
      <point x="170" y="578" type="curve" smooth="yes"/>
      <point x="214" y="354"/>
      <point x="316" y="106"/>
      <point x="386" y="35" type="curve"/>
      <point x="415" y="6"/>
      <point x="456" y="-10"/>
      <point x="510" y="-10" type="curve" smooth="yes"/>
      <point x="514" y="-10"/>
      <point x="515" y="-10"/>
      <point x="519" y="-10" type="curve"/>
      <point x="534" y="-10"/>
      <point x="541" y="17"/>
      <point x="538" y="58" type="curve"/>
      <point x="380" y="202"/>
      <point x="316" y="434"/>
      <point x="261" y="662" type="curve"/>
      <point x="253" y="695"/>
      <point x="186" y="710"/>
      <point x="127" y="710" type="curve"/>
    </contour>
    <contour>
      <point x="297" y="712" type="move" name="top"/>
    </contour>
    <contour>
      <point x="296" y="-1" type="move" name="bottom"/>
    </contour>
  </outline>
</glyph>
<glyph name="O" format="1">
  <advance width="600"/>
  <unicode hex="004F"/>
  <outline>
    <contour>
      <point x="296" y="720" type="curve" smooth="yes"/>
      <point x="135" y="720"/>
      <point x="35" y="584"/>
      <point x="35" y="351" type="curve" smooth="yes"/>
      <point x="35" y="333" type="line" smooth="yes"/>
      <point x="35" y="98"/>
      <point x="122" y="-20"/>
      <point x="304" y="-20" type="curve" smooth="yes"/>
      <point x="340" y="-20"/>
      <point x="365" y="39"/>
      <point x="365" y="122" type="curve"/>
      <point x="263" y="122"/>
      <point x="224" y="170"/>
      <point x="224" y="323" type="curve" smooth="yes"/>
      <point x="224" y="336" type="line" smooth="yes"/>
      <point x="224" y="471"/>
      <point x="252" y="540"/>
      <point x="308" y="540" type="curve" smooth="yes"/>
      <point x="356" y="540"/>
      <point x="386" y="528"/>
      <point x="424" y="491" type="curve"/>
      <point x="490" y="581"/>
      <point x="405" y="720"/>
    </contour>
    <contour>
      <point x="304" y="-20" type="curve" smooth="yes"/>
      <point x="466" y="-20"/>
      <point x="565" y="116"/>
      <point x="565" y="349" type="curve" smooth="yes"/>
      <point x="565" y="367" type="line" smooth="yes"/>
      <point x="565" y="602"/>
      <point x="478" y="720"/>
      <point x="296" y="720" type="curve" smooth="yes"/>
      <point x="260" y="720"/>
      <point x="235" y="661"/>
      <point x="235" y="578" type="curve"/>
      <point x="337" y="578"/>
      <point x="376" y="533"/>
      <point x="376" y="387" type="curve" smooth="yes"/>
      <point x="376" y="374" type="line" smooth="yes"/>
      <point x="376" y="232"/>
      <point x="348" y="160"/>
      <point x="292" y="160" type="curve" smooth="yes"/>
      <point x="244" y="160"/>
      <point x="212" y="171"/>
      <point x="176" y="209" type="curve"/>
      <point x="116" y="132"/>
      <point x="191" y="-20"/>
    </contour>
    <contour>
      <point x="300" y="712" type="move" name="top"/>
    </contour>
    <contour>
      <point x="418" y="14" type="move" name="ogonek"/>
    </contour>
    <contour>
      <point x="300" y="-1" type="move" name="bottom"/>
    </contour>
  </outline>
</glyph>
<glyph name="P" format="1">
  <advance width="600"/>
  <unicode hex="0050"/>
  <outline>
    <contour>
      <point x="260" y="-2" type="curve"/>
      <point x="252" y="36"/>
      <point x="248" y="76"/>
      <point x="248" y="125" type="curve" smooth="yes"/>
      <point x="248" y="458" type="line" smooth="yes"/>
      <point x="248" y="556"/>
      <point x="180" y="608"/>
      <point x="55" y="608" type="curve"/>
      <point x="55" y="83" type="line" smooth="yes"/>
      <point x="55" y="47"/>
      <point x="60" y="28"/>
      <point x="74" y="14" type="curve" smooth="yes"/>
      <point x="92" y="-4"/>
      <point x="120" y="-10"/>
      <point x="178" y="-10" type="curve" smooth="yes"/>
      <point x="208" y="-10"/>
      <point x="233" y="-8"/>
    </contour>
    <contour>
      <point x="22" y="695" type="curve"/>
      <point x="16" y="674"/>
      <point x="12" y="648"/>
      <point x="12" y="612" type="curve"/>
      <point x="12" y="560"/>
      <point x="18" y="535"/>
      <point x="30" y="522" type="curve" smooth="yes"/>
      <point x="36" y="516"/>
      <point x="40" y="515"/>
      <point x="50" y="515" type="curve" smooth="yes"/>
      <point x="62" y="515"/>
      <point x="81" y="519"/>
      <point x="120" y="524" type="curve" smooth="yes"/>
      <point x="162" y="530"/>
      <point x="208" y="535"/>
      <point x="276" y="535" type="curve" smooth="yes"/>
      <point x="358" y="535"/>
      <point x="392" y="519"/>
      <point x="434" y="484" type="curve"/>
      <point x="512" y="574"/>
      <point x="422" y="715"/>
      <point x="308" y="715" type="curve" smooth="yes"/>
      <point x="209" y="715"/>
      <point x="108" y="710"/>
    </contour>
    <contour>
      <point x="565" y="480" type="curve" smooth="yes"/>
      <point x="565" y="488" type="line" smooth="yes"/>
      <point x="565" y="616"/>
      <point x="466" y="715"/>
      <point x="308" y="715" type="curve"/>
      <point x="276" y="715"/>
      <point x="245" y="692"/>
      <point x="245" y="637" type="curve"/>
      <point x="346" y="604"/>
      <point x="371" y="556"/>
      <point x="371" y="473" type="curve" smooth="yes"/>
      <point x="371" y="460" type="line" smooth="yes"/>
      <point x="371" y="360"/>
      <point x="340" y="320"/>
      <point x="293" y="320" type="curve" smooth="yes"/>
      <point x="262" y="320"/>
      <point x="246" y="324"/>
      <point x="219" y="336" type="curve"/>
      <point x="209" y="325"/>
      <point x="202" y="312"/>
      <point x="202" y="296" type="curve" smooth="yes"/>
      <point x="202" y="245"/>
      <point x="267" y="154"/>
      <point x="333" y="154" type="curve" smooth="yes"/>
      <point x="337" y="154" type="line" smooth="yes"/>
      <point x="466" y="154"/>
      <point x="565" y="264"/>
    </contour>
  </outline>
</glyph>
<glyph name="Q" format="1">
  <advance width="600"/>
  <unicode hex="0051"/>
  <outline>
    <contour>
      <point x="296" y="720" type="curve" smooth="yes"/>
      <point x="134" y="720"/>
      <point x="35" y="584"/>
      <point x="35" y="351" type="curve" smooth="yes"/>
      <point x="35" y="333" type="line" smooth="yes"/>
      <point x="35" y="98"/>
      <point x="122" y="-20"/>
      <point x="304" y="-20" type="curve" smooth="yes"/>
      <point x="340" y="-20"/>
      <point x="365" y="39"/>
      <point x="365" y="122" type="curve"/>
      <point x="262" y="122"/>
      <point x="224" y="170"/>
      <point x="224" y="323" type="curve" smooth="yes"/>
      <point x="224" y="336" type="line" smooth="yes"/>
      <point x="224" y="471"/>
      <point x="252" y="540"/>
      <point x="308" y="540" type="curve" smooth="yes"/>
      <point x="356" y="540"/>
      <point x="386" y="528"/>
      <point x="424" y="491" type="curve"/>
      <point x="490" y="580"/>
      <point x="406" y="720"/>
    </contour>
    <contour>
      <point x="304" y="-20" type="curve" smooth="yes"/>
      <point x="466" y="-20"/>
      <point x="565" y="116"/>
      <point x="565" y="349" type="curve" smooth="yes"/>
      <point x="565" y="367" type="line" smooth="yes"/>
      <point x="565" y="602"/>
      <point x="478" y="720"/>
      <point x="296" y="720" type="curve" smooth="yes"/>
      <point x="260" y="720"/>
      <point x="235" y="661"/>
      <point x="235" y="578" type="curve"/>
      <point x="338" y="578"/>
      <point x="376" y="533"/>
      <point x="376" y="387" type="curve" smooth="yes"/>
      <point x="376" y="374" type="line" smooth="yes"/>
      <point x="376" y="232"/>
      <point x="348" y="160"/>
      <point x="292" y="160" type="curve" smooth="yes"/>
      <point x="244" y="160"/>
      <point x="212" y="171"/>
      <point x="176" y="209" type="curve"/>
      <point x="116" y="132"/>
      <point x="191" y="-20"/>
    </contour>
    <contour>
      <point x="415" y="148" type="line"/>
      <point x="304" y="75"/>
      <point x="290" y="54"/>
      <point x="304" y="25" type="curve" smooth="yes"/>
      <point x="362" y="-96" type="line" smooth="yes"/>
      <point x="395" y="-166"/>
      <point x="438" y="-203"/>
      <point x="492" y="-203" type="curve" smooth="yes"/>
      <point x="496" y="-203" type="line" smooth="yes"/>
      <point x="552" y="-203"/>
      <point x="583" y="-168"/>
      <point x="583" y="-76" type="curve" smooth="yes"/>
      <point x="583" y="-42"/>
      <point x="580" y="-19"/>
      <point x="574" y="7" type="curve"/>
      <point x="570" y="7" type="line"/>
      <point x="560" y="0"/>
      <point x="550" y="-4"/>
      <point x="534" y="-4" type="curve" smooth="yes"/>
      <point x="509" y="-4"/>
      <point x="496" y="4"/>
      <point x="485" y="25" type="curve" smooth="yes"/>
    </contour>
  </outline>
</glyph>
<glyph name="T" format="1">
  <advance width="600"/>
  <unicode hex="0054"/>
  <outline>
    <contour>
      <point x="31" y="700" type="line"/>
      <point x="26" y="683"/>
      <point x="24" y="666"/>
      <point x="24" y="645" type="curve" smooth="yes"/>
      <point x="24" y="604"/>
      <point x="31" y="562"/>
      <point x="54" y="540" type="curve" smooth="yes"/>
      <point x="72" y="521"/>
      <point x="96" y="515"/>
      <point x="162" y="515" type="curve" smooth="yes"/>
      <point x="564" y="515" type="line"/>
      <point x="569" y="532"/>
      <point x="572" y="557"/>
      <point x="572" y="583" type="curve" smooth="yes"/>
      <point x="572" y="648"/>
      <point x="564" y="700"/>
      <point x="510" y="700" type="curve" smooth="yes"/>
    </contour>
    <contour>
      <point x="409" y="-2" type="curve"/>
      <point x="400" y="36"/>
      <point x="396" y="76"/>
      <point x="396" y="125" type="curve" smooth="yes"/>
      <point x="396" y="450" type="line" smooth="yes"/>
      <point x="396" y="548"/>
      <point x="327" y="586"/>
      <point x="204" y="586" type="curve"/>
      <point x="204" y="83" type="line" smooth="yes"/>
      <point x="204" y="47"/>
      <point x="209" y="28"/>
      <point x="222" y="14" type="curve" smooth="yes"/>
      <point x="240" y="-4"/>
      <point x="268" y="-10"/>
      <point x="326" y="-10" type="curve" smooth="yes"/>
      <point x="356" y="-10"/>
      <point x="382" y="-8"/>
    </contour>
    <contour>
      <point x="298" y="711" type="move" name="top"/>
    </contour>
    <contour>
      <point x="300" y="-1" type="move" name="bottom"/>
    </contour>
  </outline>
</glyph>
<glyph name="U" format="1">
  <advance width="600"/>
  <unicode hex="0055"/>
  <outline>
    <contour>
      <point x="35" y="704" type="curve"/>
      <point x="44" y="666"/>
      <point x="48" y="624"/>
      <point x="48" y="575" type="curve" smooth="yes"/>
      <point x="48" y="156" type="line"/>
      <point x="48" y="108"/>
      <point x="122" y="81"/>
      <point x="199" y="81" type="curve"/>
      <point x="238" y="306"/>
      <point x="250" y="424"/>
      <point x="250" y="569" type="curve" smooth="yes"/>
      <point x="250" y="580" type="line"/>
      <point x="250" y="678"/>
      <point x="207" y="710"/>
      <point x="118" y="710" type="curve"/>
      <point x="88" y="710"/>
      <point x="62" y="708"/>
    </contour>
    <contour>
      <point x="197" y="-12" type="curve" smooth="yes"/>
      <point x="256" y="-12"/>
      <point x="324" y="28"/>
      <point x="373" y="110" type="curve" smooth="yes"/>
      <point x="398" y="154"/>
      <point x="400" y="200"/>
      <point x="376" y="263" type="curve"/>
      <point x="346" y="196"/>
      <point x="296" y="178"/>
      <point x="244" y="178" type="curve" smooth="yes"/>
      <point x="219" y="178"/>
      <point x="200" y="190"/>
      <point x="191" y="215" type="curve"/>
      <point x="102" y="212"/>
      <point x="48" y="184"/>
      <point x="48" y="156" type="curve" smooth="yes"/>
      <point x="48" y="80"/>
      <point x="129" y="-12"/>
    </contour>
    <contour>
      <point x="564" y="-2" type="curve"/>
      <point x="556" y="34"/>
      <point x="552" y="74"/>
      <point x="552" y="120" type="curve" smooth="yes"/>
      <point x="552" y="638" type="line" smooth="yes"/>
      <point x="552" y="692"/>
      <point x="520" y="708"/>
      <point x="424" y="708" type="curve" smooth="yes"/>
      <point x="400" y="708"/>
      <point x="380" y="707"/>
      <point x="360" y="703" type="curve"/>
      <point x="360" y="266" type="line" smooth="yes"/>
      <point x="360" y="104"/>
      <point x="374" y="43"/>
      <point x="400" y="16" type="curve" smooth="yes"/>
      <point x="420" y="-4"/>
      <point x="446" y="-10"/>
      <point x="492" y="-10" type="curve" smooth="yes"/>
      <point x="518" y="-10"/>
      <point x="541" y="-8"/>
    </contour>
    <contour>
      <point x="300" y="712" type="move" name="top"/>
    </contour>
    <contour>
      <point x="565" y="-2" type="move" name="ogonek"/>
    </contour>
    <contour>
      <point x="300" y="711" type="move" name="ring"/>
    </contour>
    <contour>
      <point x="300" y="-1" type="move" name="bottom"/>
    </contour>
  </outline>
</glyph>
<glyph name="W" format="1">
  <advance width="600"/>
  <unicode hex="0057"/>
  <outline>
    <contour>
      <point x="23" y="706" type="curve"/>
      <point x="23" y="235"/>
      <point x="53" y="72"/>
      <point x="114" y="12" type="curve"/>
      <point x="128" y="-2"/>
      <point x="150" y="-10"/>
      <point x="172" y="-10" type="curve"/>
      <point x="190" y="-10" type="line" smooth="yes"/>
      <point x="205" y="-10"/>
      <point x="232" y="64"/>
      <point x="232" y="101" type="curve"/>
      <point x="198" y="120"/>
      <point x="187" y="214"/>
      <point x="187" y="653" type="curve"/>
      <point x="187" y="664"/>
      <point x="184" y="670"/>
      <point x="176" y="680" type="curve" smooth="yes"/>
      <point x="160" y="698"/>
      <point x="123" y="710"/>
      <point x="63" y="710" type="curve"/>
      <point x="50" y="710"/>
      <point x="36" y="709"/>
    </contour>
    <contour>
      <point x="412" y="708" type="curve"/>
      <point x="412" y="188"/>
      <point x="401" y="127"/>
      <point x="377" y="97" type="curve"/>
      <point x="379" y="42"/>
      <point x="401" y="-10"/>
      <point x="440" y="-10" type="curve"/>
      <point x="480" y="-10" type="line"/>
      <point x="538" y="80"/>
      <point x="576" y="252"/>
      <point x="576" y="644" type="curve"/>
      <point x="576" y="662"/>
      <point x="573" y="670"/>
      <point x="564" y="678" type="curve" smooth="yes"/>
      <point x="542" y="700"/>
      <point x="502" y="710"/>
      <point x="446" y="710" type="curve"/>
      <point x="435" y="710"/>
      <point x="423" y="710"/>
    </contour>
    <contour>
      <point x="268" y="568" type="curve"/>
      <point x="252" y="568" type="line"/>
      <point x="252" y="292"/>
      <point x="224" y="180"/>
      <point x="144" y="55" type="curve"/>
      <point x="145" y="18"/>
      <point x="153" y="-10"/>
      <point x="172" y="-10" type="curve"/>
      <point x="220" y="-10" type="line"/>
      <point x="303" y="131"/>
      <point x="324" y="341"/>
      <point x="324" y="518" type="curve"/>
      <point x="324" y="550"/>
      <point x="290" y="568"/>
    </contour>
    <contour>
      <point x="268" y="568" type="curve"/>
      <point x="262" y="568" type="line"/>
      <point x="267" y="357"/>
      <point x="308" y="90"/>
      <point x="377" y="11" type="curve"/>
      <point x="391" y="-4"/>
      <point x="411" y="-10"/>
      <point x="430" y="-10" type="curve"/>
      <point x="442" y="-10" type="line"/>
      <point x="458" y="-10"/>
      <point x="472" y="27"/>
      <point x="472" y="50" type="curve"/>
      <point x="407" y="99"/>
      <point x="348" y="272"/>
      <point x="348" y="528" type="curve"/>
      <point x="348" y="548"/>
      <point x="316" y="568"/>
    </contour>
    <contour>
      <point x="299" y="711" type="move" name="top"/>
    </contour>
  </outline>
</glyph>
<glyph name="X" format="1">
  <advance width="600"/>
  <unicode hex="0058"/>
  <outline>
    <contour>
      <point x="525" y="-10" type="curve" smooth="yes"/>
      <point x="550" y="-10"/>
      <point x="570" y="-8"/>
      <point x="584" y="-4" type="curve"/>
      <point x="511" y="84"/>
      <point x="440" y="213"/>
      <point x="385" y="344" type="curve" smooth="yes"/>
      <point x="375" y="366"/>
      <point x="341" y="383"/>
      <point x="330" y="405" type="curve" smooth="yes"/>
      <point x="289" y="498"/>
      <point x="260" y="576"/>
      <point x="240" y="658" type="curve" smooth="yes"/>
      <point x="230" y="694"/>
      <point x="151" y="710"/>
      <point x="34" y="710" type="curve" smooth="yes"/>
      <point x="10" y="710" type="line"/>
      <point x="58" y="582"/>
      <point x="127" y="429"/>
      <point x="206" y="287" type="curve" smooth="yes"/>
      <point x="219" y="266"/>
      <point x="246" y="252"/>
      <point x="257" y="231" type="curve" smooth="yes"/>
      <point x="293" y="156"/>
      <point x="326" y="95"/>
      <point x="365" y="41" type="curve" smooth="yes"/>
      <point x="394" y="0"/>
      <point x="457" y="-10"/>
    </contour>
    <contour>
      <point x="412" y="710" type="curve"/>
      <point x="388" y="710" type="line"/>
      <point x="365" y="552"/>
      <point x="323" y="444"/>
      <point x="266" y="376" type="curve"/>
      <point x="224" y="326"/>
      <point x="271" y="270"/>
      <point x="357" y="255" type="curve"/>
      <point x="478" y="384"/>
      <point x="526" y="497"/>
      <point x="566" y="641" type="curve"/>
      <point x="570" y="655"/>
      <point x="568" y="663"/>
      <point x="561" y="670" type="curve" smooth="yes"/>
      <point x="533" y="698"/>
      <point x="468" y="710"/>
    </contour>
    <contour>
      <point x="178" y="-10" type="curve" smooth="yes"/>
      <point x="197" y="-10" type="line"/>
      <point x="223" y="93"/>
      <point x="263" y="176"/>
      <point x="321" y="237" type="curve"/>
      <point x="358" y="276"/>
      <point x="332" y="360"/>
      <point x="242" y="387" type="curve"/>
      <point x="133" y="265"/>
      <point x="64" y="164"/>
      <point x="23" y="61" type="curve"/>
      <point x="17" y="46"/>
      <point x="21" y="37"/>
      <point x="28" y="30" type="curve" smooth="yes"/>
      <point x="59" y="-1"/>
      <point x="123" y="-10"/>
    </contour>
  </outline>
</glyph>
<glyph name="Z" format="1">
  <advance width="600"/>
  <unicode hex="005A"/>
  <outline>
    <contour>
      <point x="86" y="700" type="line"/>
      <point x="82" y="684"/>
      <point x="80" y="662"/>
      <point x="80" y="642" type="curve" smooth="yes"/>
      <point x="80" y="598"/>
      <point x="91" y="558"/>
      <point x="109" y="540" type="curve" smooth="yes"/>
      <point x="125" y="524"/>
      <point x="138" y="520"/>
      <point x="170" y="520" type="curve" smooth="yes"/>
      <point x="292" y="520" type="line" smooth="yes"/>
      <point x="402" y="520"/>
      <point x="464" y="510"/>
      <point x="526" y="486" type="curve" smooth="yes"/>
      <point x="543" y="497"/>
      <point x="557" y="506"/>
      <point x="565" y="512" type="curve"/>
      <point x="565" y="522" type="line" smooth="yes"/>
      <point x="565" y="620"/>
      <point x="514" y="700"/>
      <point x="456" y="700" type="curve" smooth="yes"/>
    </contour>
    <contour>
      <point x="404" y="598" type="curve"/>
      <point x="333" y="410"/>
      <point x="256" y="322"/>
      <point x="34" y="164" type="curve"/>
      <point x="34" y="124"/>
      <point x="112" y="106"/>
      <point x="184" y="128" type="curve" smooth="yes"/>
      <point x="324" y="174"/>
      <point x="565" y="420"/>
      <point x="565" y="512" type="curve"/>
      <point x="565" y="566"/>
      <point x="506" y="598"/>
    </contour>
    <contour>
      <point x="561" y="0" type="line"/>
      <point x="564" y="16"/>
      <point x="566" y="38"/>
      <point x="566" y="60" type="curve" smooth="yes"/>
      <point x="566" y="100"/>
      <point x="552" y="138"/>
      <point x="530" y="160" type="curve" smooth="yes"/>
      <point x="515" y="176"/>
      <point x="504" y="180"/>
      <point x="478" y="180" type="curve" smooth="yes"/>
      <point x="440" y="180" type="line" smooth="yes"/>
      <point x="350" y="180"/>
      <point x="216" y="166"/>
      <point x="34" y="164" type="curve"/>
      <point x="34" y="152" type="line" smooth="yes"/>
      <point x="34" y="51"/>
      <point x="56" y="0"/>
      <point x="99" y="0" type="curve" smooth="yes"/>
    </contour>
    <contour>
      <point x="220" y="436" type="curve"/>
      <point x="220" y="528"/>
      <point x="233" y="596"/>
      <point x="233" y="654" type="curve"/>
      <point x="233" y="690"/>
      <point x="161" y="720"/>
      <point x="78" y="720" type="curve" smooth="yes"/>
      <point x="74" y="720" type="line"/>
      <point x="52" y="652"/>
      <point x="42" y="584"/>
      <point x="42" y="500" type="curve"/>
      <point x="42" y="443"/>
      <point x="66" y="427"/>
      <point x="148" y="427" type="curve" smooth="yes"/>
      <point x="176" y="427"/>
      <point x="200" y="430"/>
    </contour>
    <contour>
      <point x="300" y="711" type="move" name="top"/>
    </contour>
  </outline>
</glyph>
<glyph name="bracketleft" format="1">
  <advance width="600"/>
  <unicode hex="005B"/>
  <outline>
    <contour>
      <point x="180" y="637" type="curve" smooth="yes"/>
      <point x="180" y="16" type="line" smooth="yes"/>
      <point x="180" y="-52"/>
      <point x="288" y="-64"/>
      <point x="372" y="-64" type="curve"/>
      <point x="372" y="680" type="line" smooth="yes"/>
      <point x="372" y="754"/>
      <point x="348" y="760"/>
      <point x="255" y="760" type="curve" smooth="yes"/>
      <point x="221" y="760"/>
      <point x="196" y="758"/>
      <point x="166" y="752" type="curve"/>
      <point x="176" y="715"/>
      <point x="180" y="678"/>
    </contour>
    <contour>
      <point x="515" y="579" type="line"/>
      <point x="521" y="600"/>
      <point x="523" y="618"/>
      <point x="523" y="644" type="curve" smooth="yes"/>
      <point x="523" y="683"/>
      <point x="514" y="726"/>
      <point x="496" y="745" type="curve" smooth="yes"/>
      <point x="484" y="757"/>
      <point x="474" y="760"/>
      <point x="452" y="760" type="curve" smooth="yes"/>
      <point x="255" y="760" type="line"/>
      <point x="255" y="634"/>
      <point x="316" y="579"/>
      <point x="468" y="579" type="curve"/>
    </contour>
    <contour>
      <point x="518" y="-161" type="line"/>
      <point x="523" y="-142"/>
      <point x="526" y="-117"/>
      <point x="526" y="-88" type="curve" smooth="yes"/>
      <point x="526" y="-10"/>
      <point x="504" y="20"/>
      <point x="452" y="20" type="curve" smooth="yes"/>
      <point x="180" y="20" type="line"/>
      <point x="180" y="-6" type="line" smooth="yes"/>
      <point x="180" y="-74"/>
      <point x="246" y="-161"/>
      <point x="298" y="-161" type="curve" smooth="yes"/>
    </contour>
  </outline>
</glyph>
<glyph name="backslash" format="1">
  <advance width="600"/>
  <unicode hex="005C"/>
  <outline>
    <contour>
      <point x="20" y="752" type="curve"/>
      <point x="82" y="454"/>
      <point x="180" y="192"/>
      <point x="314" y="-35" type="curve" smooth="yes"/>
      <point x="354" y="-101"/>
      <point x="402" y="-134"/>
      <point x="464" y="-134" type="curve" smooth="yes"/>
      <point x="504" y="-134"/>
      <point x="533" y="-126"/>
      <point x="567" y="-106" type="curve"/>
      <point x="544" y="-83"/>
      <point x="524" y="-55"/>
      <point x="505" y="-18" type="curve"/>
      <point x="381" y="202"/>
      <point x="290" y="440"/>
      <point x="235" y="697" type="curve"/>
      <point x="224" y="744"/>
      <point x="180" y="772"/>
      <point x="104" y="772" type="curve" smooth="yes"/>
      <point x="74" y="772"/>
      <point x="52" y="766"/>
    </contour>
  </outline>
</glyph>
<glyph name="bracketright" format="1">
  <advance width="600"/>
  <unicode hex="005D"/>
  <outline>
    <contour>
      <point x="420" y="-38" type="curve" smooth="yes"/>
      <point x="420" y="582" type="line" smooth="yes"/>
      <point x="420" y="650"/>
      <point x="312" y="663"/>
      <point x="228" y="663" type="curve"/>
      <point x="228" y="-82" type="line" smooth="yes"/>
      <point x="228" y="-156"/>
      <point x="252" y="-161"/>
      <point x="345" y="-161" type="curve" smooth="yes"/>
      <point x="379" y="-161"/>
      <point x="404" y="-158"/>
      <point x="434" y="-152" type="curve"/>
      <point x="424" y="-116"/>
      <point x="420" y="-79"/>
    </contour>
    <contour>
      <point x="85" y="20" type="line"/>
      <point x="79" y="-2"/>
      <point x="77" y="-20"/>
      <point x="77" y="-46" type="curve" smooth="yes"/>
      <point x="77" y="-84"/>
      <point x="86" y="-128"/>
      <point x="104" y="-146" type="curve" smooth="yes"/>
      <point x="116" y="-158"/>
      <point x="126" y="-161"/>
      <point x="148" y="-161" type="curve" smooth="yes"/>
      <point x="345" y="-161" type="line"/>
      <point x="345" y="-35"/>
      <point x="284" y="20"/>
      <point x="132" y="20" type="curve"/>
    </contour>
    <contour>
      <point x="82" y="760" type="line"/>
      <point x="77" y="741"/>
      <point x="74" y="716"/>
      <point x="74" y="687" type="curve" smooth="yes"/>
      <point x="74" y="609"/>
      <point x="96" y="578"/>
      <point x="148" y="578" type="curve" smooth="yes"/>
      <point x="420" y="578" type="line"/>
      <point x="420" y="604" type="line" smooth="yes"/>
      <point x="420" y="674"/>
      <point x="354" y="760"/>
      <point x="302" y="760" type="curve" smooth="yes"/>
    </contour>
  </outline>
</glyph>
<glyph name="grave" format="1">
  <advance width="600"/>
  <unicode hex="0060"/>
  <outline>
    <contour>
      <point x="460" y="416" type="curve"/>
      <point x="417" y="486"/>
      <point x="381" y="599"/>
      <point x="370" y="714" type="curve"/>
      <point x="336" y="718"/>
      <point x="316" y="720"/>
      <point x="288" y="720" type="curve" smooth="yes"/>
      <point x="194" y="720"/>
      <point x="144" y="704"/>
      <point x="144" y="641" type="curve" smooth="yes"/>
      <point x="144" y="574"/>
      <point x="208" y="447"/>
      <point x="271" y="390" type="curve" smooth="yes"/>
      <point x="284" y="378"/>
      <point x="302" y="373"/>
      <point x="326" y="373" type="curve" smooth="yes"/>
      <point x="384" y="373"/>
      <point x="423" y="385"/>
    </contour>
  </outline>
</glyph>
<glyph name="b" format="1">
  <advance width="600"/>
  <unicode hex="0062"/>
  <outline>
    <contour>
      <point x="50" y="0" type="line"/>
      <point x="72" y="-4"/>
      <point x="96" y="-6"/>
      <point x="122" y="-6" type="curve" smooth="yes"/>
      <point x="208" y="-6"/>
      <point x="238" y="13"/>
      <point x="238" y="76" type="curve" smooth="yes"/>
      <point x="238" y="653" type="line"/>
      <point x="238" y="724"/>
      <point x="205" y="753"/>
      <point x="105" y="753" type="curve" smooth="yes"/>
      <point x="84" y="753"/>
      <point x="62" y="752"/>
      <point x="38" y="746" type="curve"/>
      <point x="46" y="707"/>
      <point x="50" y="668"/>
      <point x="50" y="623" type="curve" smooth="yes"/>
    </contour>
    <contour>
      <point x="412" y="557" type="curve" smooth="yes"/>
      <point x="336" y="557"/>
      <point x="256" y="496"/>
      <point x="224" y="416" type="curve" smooth="yes"/>
      <point x="194" y="356"/>
      <point x="202" y="286"/>
      <point x="228" y="250" type="curve"/>
      <point x="258" y="342"/>
      <point x="300" y="376"/>
      <point x="353" y="376" type="curve" smooth="yes"/>
      <point x="380" y="376"/>
      <point x="410" y="362"/>
      <point x="446" y="320" type="curve"/>
      <point x="476" y="322"/>
      <point x="566" y="340"/>
      <point x="566" y="364" type="curve" smooth="yes"/>
      <point x="566" y="468"/>
      <point x="486" y="557"/>
    </contour>
    <contour>
      <point x="370" y="-11" type="curve" smooth="yes"/>
      <point x="479" y="-11"/>
      <point x="566" y="80"/>
      <point x="566" y="349" type="curve" smooth="yes"/>
      <point x="566" y="364" type="line" smooth="yes"/>
      <point x="566" y="418"/>
      <point x="522" y="482"/>
      <point x="440" y="482" type="curve"/>
      <point x="397" y="482"/>
      <point x="369" y="468"/>
      <point x="355" y="432" type="curve"/>
      <point x="370" y="406"/>
      <point x="376" y="374"/>
      <point x="376" y="300" type="curve" smooth="yes"/>
      <point x="376" y="292" type="line" smooth="yes"/>
      <point x="376" y="184"/>
      <point x="346" y="148"/>
      <point x="295" y="148" type="curve" smooth="yes"/>
      <point x="256" y="148"/>
      <point x="226" y="160"/>
      <point x="204" y="182" type="curve"/>
      <point x="188" y="150"/>
      <point x="197" y="95"/>
      <point x="230" y="57" type="curve" smooth="yes"/>
      <point x="260" y="22"/>
      <point x="310" y="-11"/>
    </contour>
  </outline>
</glyph>
<glyph name="d" format="1">
  <advance width="600"/>
  <unicode hex="0064"/>
  <outline>
    <contour>
      <point x="230" y="557" type="curve" smooth="yes"/>
      <point x="121" y="557"/>
      <point x="34" y="466"/>
      <point x="34" y="197" type="curve" smooth="yes"/>
      <point x="34" y="182" type="line" smooth="yes"/>
      <point x="34" y="128"/>
      <point x="78" y="64"/>
      <point x="160" y="64" type="curve" smooth="yes"/>
      <point x="203" y="64"/>
      <point x="231" y="78"/>
      <point x="245" y="114" type="curve"/>
      <point x="230" y="140"/>
      <point x="224" y="172"/>
      <point x="224" y="246" type="curve" smooth="yes"/>
      <point x="224" y="254" type="line" smooth="yes"/>
      <point x="224" y="362"/>
      <point x="254" y="398"/>
      <point x="305" y="398" type="curve" smooth="yes"/>
      <point x="344" y="398"/>
      <point x="374" y="386"/>
      <point x="396" y="364" type="curve"/>
      <point x="412" y="396"/>
      <point x="403" y="451"/>
      <point x="370" y="489" type="curve" smooth="yes"/>
      <point x="340" y="524"/>
      <point x="290" y="557"/>
    </contour>
    <contour>
      <point x="188" y="-11" type="curve" smooth="yes"/>
      <point x="264" y="-11"/>
      <point x="344" y="50"/>
      <point x="376" y="130" type="curve" smooth="yes"/>
      <point x="406" y="190"/>
      <point x="398" y="260"/>
      <point x="372" y="296" type="curve"/>
      <point x="342" y="204"/>
      <point x="300" y="170"/>
      <point x="247" y="170" type="curve" smooth="yes"/>
      <point x="220" y="170"/>
      <point x="190" y="184"/>
      <point x="154" y="226" type="curve"/>
      <point x="124" y="224"/>
      <point x="34" y="206"/>
      <point x="34" y="182" type="curve" smooth="yes"/>
      <point x="34" y="78"/>
      <point x="114" y="-11"/>
    </contour>
    <contour>
      <point x="352" y="750" type="curve"/>
      <point x="360" y="714"/>
      <point x="362" y="684"/>
      <point x="362" y="646" type="curve" smooth="yes"/>
      <point x="362" y="178" type="line"/>
      <point x="362" y="96"/>
      <point x="379" y="50"/>
      <point x="404" y="25" type="curve" smooth="yes"/>
      <point x="428" y="1"/>
      <point x="474" y="-6"/>
      <point x="508" y="-6" type="curve" smooth="yes"/>
      <point x="527" y="-6"/>
      <point x="544" y="-4"/>
      <point x="563" y="0" type="curve"/>
      <point x="554" y="36"/>
      <point x="550" y="67"/>
      <point x="550" y="106" type="curve" smooth="yes"/>
      <point x="550" y="694" type="line"/>
      <point x="550" y="711"/>
      <point x="545" y="724"/>
      <point x="536" y="733" type="curve" smooth="yes"/>
      <point x="514" y="754"/>
      <point x="476" y="758"/>
      <point x="430" y="758" type="curve" smooth="yes"/>
      <point x="401" y="758"/>
      <point x="374" y="755"/>
    </contour>
    <contour>
      <point x="448" y="711" type="move" name="caronslovak"/>
    </contour>
  </outline>
</glyph>
<glyph name="f" format="1">
  <advance width="600"/>
  <unicode hex="0066"/>
  <outline>
    <contour>
      <point x="240" y="576" type="curve"/>
      <point x="294" y="597"/>
      <point x="350" y="602"/>
      <point x="400" y="602" type="curve" smooth="yes"/>
      <point x="476" y="602"/>
      <point x="526" y="595"/>
      <point x="573" y="580" type="curve"/>
      <point x="577" y="580" type="line"/>
      <point x="582" y="602"/>
      <point x="583" y="621"/>
      <point x="583" y="646" type="curve"/>
      <point x="583" y="682"/>
      <point x="576" y="724"/>
      <point x="556" y="744" type="curve" smooth="yes"/>
      <point x="538" y="762"/>
      <point x="470" y="770"/>
      <point x="405" y="770" type="curve" smooth="yes"/>
      <point x="304" y="770"/>
      <point x="196" y="667"/>
    </contour>
    <contour>
      <point x="352" y="77" type="curve"/>
      <point x="352" y="502" type="line" smooth="yes"/>
      <point x="340" y="530"/>
      <point x="334" y="555"/>
      <point x="334" y="586" type="curve" smooth="yes"/>
      <point x="334" y="640"/>
      <point x="371" y="690"/>
      <point x="448" y="730" type="curve"/>
      <point x="442" y="756"/>
      <point x="430" y="770"/>
      <point x="405" y="770" type="curve" smooth="yes"/>
      <point x="246" y="770"/>
      <point x="162" y="656"/>
      <point x="162" y="568" type="curve" smooth="yes"/>
      <point x="162" y="256" type="line" smooth="yes"/>
      <point x="162" y="139"/>
      <point x="231" y="77"/>
    </contour>
    <contour>
      <point x="38" y="180" type="line"/>
      <point x="36" y="164"/>
      <point x="34" y="148"/>
      <point x="34" y="131" type="curve" smooth="yes"/>
      <point x="34" y="73"/>
      <point x="43" y="39"/>
      <point x="62" y="20" type="curve" smooth="yes"/>
      <point x="77" y="5"/>
      <point x="96" y="0"/>
      <point x="143" y="0" type="curve"/>
      <point x="534" y="0" type="line"/>
      <point x="539" y="16"/>
      <point x="542" y="36"/>
      <point x="542" y="58" type="curve" smooth="yes"/>
      <point x="542" y="138"/>
      <point x="487" y="180"/>
      <point x="352" y="180" type="curve"/>
    </contour>
    <contour>
      <point x="31" y="502" type="line"/>
      <point x="31" y="496"/>
      <point x="31" y="490"/>
      <point x="31" y="484" type="curve" smooth="yes"/>
      <point x="31" y="420"/>
      <point x="37" y="390"/>
      <point x="58" y="369" type="curve" smooth="yes"/>
      <point x="86" y="341"/>
      <point x="126" y="335"/>
      <point x="232" y="335" type="curve"/>
      <point x="555" y="335" type="line"/>
      <point x="560" y="354"/>
      <point x="562" y="378"/>
      <point x="562" y="403" type="curve" smooth="yes"/>
      <point x="562" y="484"/>
      <point x="545" y="502"/>
      <point x="489" y="502" type="curve"/>
    </contour>
  </outline>
</glyph>
<glyph name="g" format="1">
  <advance width="600"/>
  <unicode hex="0067"/>
  <outline>
    <contour>
      <point x="309" y="419" type="curve" smooth="yes"/>
      <point x="364" y="419"/>
      <point x="401" y="409"/>
      <point x="440" y="384" type="curve"/>
      <point x="501" y="468"/>
      <point x="422" y="561"/>
      <point x="305" y="561" type="curve" smooth="yes"/>
      <point x="155" y="561"/>
      <point x="44" y="484"/>
      <point x="44" y="362" type="curve" smooth="yes"/>
      <point x="44" y="354" type="line" smooth="yes"/>
      <point x="44" y="232"/>
      <point x="144" y="156"/>
      <point x="296" y="158" type="curve" smooth="yes"/>
      <point x="337" y="158"/>
      <point x="356" y="172"/>
      <point x="356" y="222" type="curve"/>
      <point x="265" y="235"/>
      <point x="219" y="280"/>
      <point x="219" y="342" type="curve" smooth="yes"/>
      <point x="219" y="348" type="line" smooth="yes"/>
      <point x="219" y="397"/>
      <point x="246" y="419"/>
    </contour>
    <contour>
      <point x="292" y="300" type="curve" smooth="yes"/>
      <point x="236" y="300"/>
      <point x="200" y="310"/>
      <point x="161" y="334" type="curve"/>
      <point x="100" y="250"/>
      <point x="180" y="158"/>
      <point x="296" y="158" type="curve" smooth="yes"/>
      <point x="446" y="158"/>
      <point x="557" y="234"/>
      <point x="557" y="357" type="curve" smooth="yes"/>
      <point x="557" y="365" type="line" smooth="yes"/>
      <point x="557" y="487"/>
      <point x="457" y="562"/>
      <point x="305" y="561" type="curve" smooth="yes"/>
      <point x="264" y="561"/>
      <point x="246" y="547"/>
      <point x="246" y="496" type="curve"/>
      <point x="336" y="483"/>
      <point x="382" y="438"/>
      <point x="382" y="377" type="curve" smooth="yes"/>
      <point x="382" y="370" type="line" smooth="yes"/>
      <point x="382" y="322"/>
      <point x="355" y="300"/>
    </contour>
    <contour>
      <point x="126" y="72" type="curve" smooth="yes"/>
      <point x="126" y="68" type="line" smooth="yes"/>
      <point x="126" y="-6"/>
      <point x="186" y="-52"/>
      <point x="272" y="-56" type="curve" smooth="yes"/>
      <point x="379" y="-60" type="line" smooth="yes"/>
      <point x="394" y="-61"/>
      <point x="404" y="-69"/>
      <point x="404" y="-84" type="curve" smooth="yes"/>
      <point x="404" y="-90" type="line" smooth="yes"/>
      <point x="404" y="-136"/>
      <point x="366" y="-177"/>
      <point x="198" y="-183" type="curve"/>
      <point x="198" y="-237"/>
      <point x="214" y="-250"/>
      <point x="254" y="-250" type="curve" smooth="yes"/>
      <point x="477" y="-250"/>
      <point x="584" y="-180"/>
      <point x="584" y="-42" type="curve" smooth="yes"/>
      <point x="584" y="-34" type="line" smooth="yes"/>
      <point x="584" y="41"/>
      <point x="518" y="88"/>
      <point x="430" y="90" type="curve" smooth="yes"/>
      <point x="321" y="95" type="line" smooth="yes"/>
      <point x="292" y="96"/>
      <point x="282" y="111"/>
      <point x="282" y="132" type="curve" smooth="yes"/>
      <point x="282" y="135" type="line" smooth="yes"/>
      <point x="282" y="151"/>
      <point x="287" y="166"/>
      <point x="302" y="182" type="curve"/>
      <point x="292" y="192"/>
      <point x="280" y="194"/>
      <point x="268" y="194" type="curve" smooth="yes"/>
      <point x="202" y="194"/>
      <point x="126" y="142"/>
    </contour>
    <contour>
      <point x="480" y="-90" type="curve"/>
      <point x="432" y="-124"/>
      <point x="372" y="-135"/>
      <point x="285" y="-135" type="curve" smooth="yes"/>
      <point x="272" y="-135" type="line" smooth="yes"/>
      <point x="224" y="-135"/>
      <point x="206" y="-122"/>
      <point x="206" y="-90" type="curve" smooth="yes"/>
      <point x="206" y="-84" type="line" smooth="yes"/>
      <point x="206" y="-54"/>
      <point x="218" y="-32"/>
      <point x="247" y="-12" type="curve"/>
      <point x="247" y="4"/>
      <point x="214" y="14"/>
      <point x="177" y="14" type="curve" smooth="yes"/>
      <point x="81" y="14"/>
      <point x="24" y="-40"/>
      <point x="24" y="-108" type="curve" smooth="yes"/>
      <point x="24" y="-116" type="line" smooth="yes"/>
      <point x="24" y="-195"/>
      <point x="108" y="-250"/>
      <point x="244" y="-250" type="curve" smooth="yes"/>
      <point x="254" y="-250" type="line" smooth="yes"/>
      <point x="456" y="-250"/>
      <point x="502" y="-137"/>
    </contour>
    <contour>
      <point x="452" y="496" type="curve" smooth="yes"/>
      <point x="520" y="536" type="line" smooth="yes"/>
      <point x="564" y="564"/>
      <point x="580" y="596"/>
      <point x="580" y="626" type="curve" smooth="yes"/>
      <point x="580" y="630" type="line" smooth="yes"/>
      <point x="580" y="684"/>
      <point x="522" y="705"/>
      <point x="444" y="705" type="curve" smooth="yes"/>
      <point x="425" y="705"/>
      <point x="409" y="704"/>
      <point x="392" y="700" type="curve"/>
      <point x="397" y="686"/>
      <point x="398" y="670"/>
      <point x="398" y="651" type="curve" smooth="yes"/>
      <point x="398" y="633"/>
      <point x="398" y="622"/>
      <point x="396" y="607" type="curve" smooth="yes"/>
      <point x="386" y="504" type="line"/>
      <point x="408" y="489"/>
      <point x="430" y="483"/>
    </contour>
  </outline>
</glyph>
<glyph name="h" format="1">
  <advance width="600"/>
  <unicode hex="0068"/>
  <outline>
    <contour>
      <point x="240" y="0" type="curve"/>
      <point x="240" y="630" type="line" smooth="yes"/>
      <point x="240" y="684"/>
      <point x="232" y="711"/>
      <point x="214" y="729" type="curve" smooth="yes"/>
      <point x="193" y="750"/>
      <point x="164" y="758"/>
      <point x="107" y="758" type="curve" smooth="yes"/>
      <point x="84" y="758"/>
      <point x="62" y="756"/>
      <point x="40" y="751" type="curve"/>
      <point x="48" y="714"/>
      <point x="52" y="676"/>
      <point x="52" y="628" type="curve" smooth="yes"/>
      <point x="52" y="66" type="line" smooth="yes"/>
      <point x="52" y="6"/>
      <point x="86" y="-6"/>
      <point x="169" y="-6" type="curve" smooth="yes"/>
      <point x="195" y="-6"/>
      <point x="219" y="-4"/>
    </contour>
    <contour>
      <point x="411" y="558" type="curve" smooth="yes"/>
      <point x="328" y="558"/>
      <point x="244" y="470"/>
      <point x="220" y="370" type="curve" smooth="yes"/>
      <point x="204" y="308"/>
      <point x="208" y="244"/>
      <point x="232" y="190" type="curve"/>
      <point x="258" y="334"/>
      <point x="302" y="370"/>
      <point x="346" y="370" type="curve" smooth="yes"/>
      <point x="372" y="370"/>
      <point x="396" y="354"/>
      <point x="406" y="320" type="curve"/>
      <point x="512" y="320"/>
      <point x="547" y="352"/>
      <point x="547" y="380" type="curve" smooth="yes"/>
      <point x="547" y="462"/>
      <point x="477" y="558"/>
    </contour>
    <contour>
      <point x="564" y="-2" type="curve"/>
      <point x="552" y="48"/>
      <point x="547" y="90"/>
      <point x="547" y="150" type="curve" smooth="yes"/>
      <point x="547" y="380" type="line"/>
      <point x="547" y="420"/>
      <point x="487" y="449"/>
      <point x="390" y="448" type="curve"/>
      <point x="362" y="314"/>
      <point x="348" y="210"/>
      <point x="348" y="110" type="curve" smooth="yes"/>
      <point x="348" y="106" type="line" smooth="yes"/>
      <point x="348" y="18"/>
      <point x="390" y="-8"/>
      <point x="484" y="-8" type="curve" smooth="yes"/>
      <point x="512" y="-8"/>
      <point x="537" y="-6"/>
    </contour>
    <contour>
      <point x="142" y="730" type="move" name="top"/>
    </contour>
  </outline>
</glyph>
<glyph name="i" format="1">
  <advance width="600"/>
  <unicode hex="0069"/>
  <outline>
    <contour>
      <point x="46" y="545" type="curve"/>
      <point x="40" y="523"/>
      <point x="38" y="500"/>
      <point x="38" y="476" type="curve" smooth="yes"/>
      <point x="38" y="406"/>
      <point x="53" y="359"/>
      <point x="88" y="359" type="curve" smooth="yes"/>
      <point x="132" y="359"/>
      <point x="172" y="368"/>
      <point x="268" y="407" type="curve"/>
      <point x="268" y="503"/>
      <point x="254" y="555"/>
      <point x="220" y="555" type="curve" smooth="yes"/>
      <point x="160" y="555"/>
      <point x="108" y="552"/>
    </contour>
    <contour>
      <point x="390" y="523" type="curve" smooth="yes"/>
      <point x="370" y="544"/>
      <point x="316" y="555"/>
      <point x="230" y="555" type="curve" smooth="yes"/>
      <point x="220" y="555" type="line"/>
      <point x="220" y="263" type="line" smooth="yes"/>
      <point x="220" y="139"/>
      <point x="283" y="77"/>
      <point x="406" y="77" type="curve"/>
      <point x="406" y="484" type="line" smooth="yes"/>
      <point x="406" y="503"/>
      <point x="404" y="510"/>
    </contour>
    <contour>
      <point x="38" y="180" type="line"/>
      <point x="36" y="164"/>
      <point x="34" y="148"/>
      <point x="34" y="131" type="curve" smooth="yes"/>
      <point x="34" y="73"/>
      <point x="43" y="39"/>
      <point x="62" y="20" type="curve" smooth="yes"/>
      <point x="77" y="5"/>
      <point x="96" y="0"/>
      <point x="143" y="0" type="curve"/>
      <point x="564" y="0" type="line"/>
      <point x="569" y="17"/>
      <point x="572" y="36"/>
      <point x="572" y="58" type="curve" smooth="yes"/>
      <point x="572" y="138"/>
      <point x="517" y="180"/>
      <point x="382" y="180" type="curve"/>
    </contour>
    <contour>
      <point x="422" y="624" type="curve"/>
      <point x="422" y="713" type="line" smooth="yes"/>
      <point x="422" y="770"/>
      <point x="365" y="778"/>
      <point x="292" y="778" type="curve" smooth="yes"/>
      <point x="262" y="778"/>
      <point x="225" y="776"/>
      <point x="194" y="770" type="curve"/>
      <point x="194" y="681" type="line" smooth="yes"/>
      <point x="194" y="624"/>
      <point x="251" y="616"/>
      <point x="324" y="616" type="curve" smooth="yes"/>
      <point x="354" y="616"/>
      <point x="391" y="618"/>
    </contour>
    <contour>
      <point x="565" y="0" type="move" name="ogonek"/>
    </contour>
    <contour>
      <point x="304" y="-1" type="move" name="bottom"/>
    </contour>
  </outline>
</glyph>
<glyph name="j" format="1">
  <advance width="600"/>
  <unicode hex="006A"/>
  <outline>
    <contour>
      <point x="61" y="545" type="curve"/>
      <point x="56" y="526"/>
      <point x="52" y="502"/>
      <point x="52" y="476" type="curve" smooth="yes"/>
      <point x="52" y="404"/>
      <point x="72" y="362"/>
      <point x="112" y="362" type="curve" smooth="yes"/>
      <point x="159" y="362"/>
      <point x="232" y="373"/>
      <point x="363" y="400" type="curve"/>
      <point x="363" y="469"/>
      <point x="355" y="555"/>
      <point x="308" y="555" type="curve" smooth="yes"/>
      <point x="228" y="555"/>
      <point x="135" y="554"/>
    </contour>
    <contour>
      <point x="492" y="10" type="curve" smooth="yes"/>
      <point x="492" y="482" type="line" smooth="yes"/>
      <point x="492" y="501"/>
      <point x="488" y="511"/>
      <point x="478" y="522" type="curve" smooth="yes"/>
      <point x="454" y="546"/>
      <point x="379" y="555"/>
      <point x="318" y="555" type="curve" smooth="yes"/>
      <point x="308" y="555" type="line"/>
      <point x="308" y="38" type="line" smooth="yes"/>
      <point x="308" y="-46"/>
      <point x="298" y="-80"/>
      <point x="254" y="-132" type="curve"/>
      <point x="324" y="-201"/>
      <point x="492" y="-106"/>
    </contour>
    <contour>
      <point x="209" y="-68" type="curve" smooth="yes"/>
      <point x="133" y="-68"/>
      <point x="88" y="-54"/>
      <point x="35" y="-31" type="curve"/>
      <point x="31" y="-31" type="line"/>
      <point x="26" y="-55"/>
      <point x="25" y="-76"/>
      <point x="25" y="-99" type="curve" smooth="yes"/>
      <point x="25" y="-148"/>
      <point x="37" y="-195"/>
      <point x="57" y="-215" type="curve" smooth="yes"/>
      <point x="80" y="-238"/>
      <point x="130" y="-250"/>
      <point x="230" y="-250" type="curve" smooth="yes"/>
      <point x="372" y="-250"/>
      <point x="494" y="-140"/>
      <point x="492" y="10" type="curve" smooth="yes"/>
      <point x="492" y="32"/>
      <point x="472" y="53"/>
      <point x="432" y="53" type="curve"/>
      <point x="390" y="-60"/>
      <point x="282" y="-68"/>
    </contour>
    <contour>
      <point x="506" y="624" type="curve"/>
      <point x="506" y="713" type="line" smooth="yes"/>
      <point x="506" y="770"/>
      <point x="448" y="778"/>
      <point x="375" y="778" type="curve" smooth="yes"/>
      <point x="346" y="778"/>
      <point x="308" y="776"/>
      <point x="277" y="770" type="curve"/>
      <point x="277" y="681" type="line" smooth="yes"/>
      <point x="277" y="624"/>
      <point x="335" y="616"/>
      <point x="408" y="616" type="curve" smooth="yes"/>
      <point x="437" y="616"/>
      <point x="474" y="618"/>
    </contour>
  </outline>
</glyph>
<glyph name="k" format="1">
  <advance width="600"/>
  <unicode hex="006B"/>
  <outline>
    <contour>
      <point x="245" y="0" type="curve"/>
      <point x="245" y="640" type="line" smooth="yes"/>
      <point x="245" y="690"/>
      <point x="238" y="712"/>
      <point x="220" y="730" type="curve" smooth="yes"/>
      <point x="200" y="750"/>
      <point x="158" y="757"/>
      <point x="110" y="757" type="curve" smooth="yes"/>
      <point x="86" y="757"/>
      <point x="62" y="755"/>
      <point x="40" y="750" type="curve"/>
      <point x="48" y="713"/>
      <point x="52" y="675"/>
      <point x="52" y="627" type="curve" smooth="yes"/>
      <point x="52" y="66" type="line" smooth="yes"/>
      <point x="52" y="6"/>
      <point x="88" y="-6"/>
      <point x="174" y="-6" type="curve" smooth="yes"/>
      <point x="200" y="-6"/>
      <point x="224" y="-4"/>
    </contour>
    <contour>
      <point x="379" y="558" type="line"/>
      <point x="332" y="402"/>
      <point x="232" y="326"/>
      <point x="110" y="276" type="curve"/>
      <point x="110" y="205"/>
      <point x="152" y="167"/>
      <point x="184" y="172" type="curve" smooth="yes"/>
      <point x="319" y="195"/>
      <point x="473" y="289"/>
      <point x="546" y="434" type="curve" smooth="yes"/>
      <point x="563" y="468"/>
      <point x="564" y="480"/>
      <point x="564" y="494" type="curve" smooth="yes"/>
      <point x="564" y="532"/>
      <point x="488" y="558"/>
      <point x="403" y="558" type="curve"/>
    </contour>
    <contour>
      <point x="475" y="-10" type="curve" smooth="yes"/>
      <point x="528" y="-10"/>
      <point x="558" y="-2"/>
      <point x="587" y="18" type="curve"/>
      <point x="506" y="115"/>
      <point x="445" y="217"/>
      <point x="394" y="348" type="curve"/>
      <point x="322" y="325"/>
      <point x="254" y="267"/>
      <point x="266" y="222" type="curve" smooth="yes"/>
      <point x="288" y="145"/>
      <point x="339" y="57"/>
      <point x="366" y="30" type="curve" smooth="yes"/>
      <point x="395" y="1"/>
      <point x="427" y="-10"/>
    </contour>
    <contour>
      <point x="314" y="-1" type="move" name="bottom"/>
    </contour>
  </outline>
</glyph>
<glyph name="l" format="1">
  <advance width="600"/>
  <unicode hex="006C"/>
  <outline>
    <contour>
      <point x="46" y="750" type="curve"/>
      <point x="40" y="728"/>
      <point x="38" y="704"/>
      <point x="38" y="680" type="curve" smooth="yes"/>
      <point x="38" y="611"/>
      <point x="53" y="564"/>
      <point x="88" y="564" type="curve" smooth="yes"/>
      <point x="132" y="564"/>
      <point x="172" y="574"/>
      <point x="268" y="612" type="curve"/>
      <point x="268" y="708"/>
      <point x="254" y="760"/>
      <point x="220" y="760" type="curve" smooth="yes"/>
      <point x="160" y="760"/>
      <point x="108" y="757"/>
    </contour>
    <contour>
      <point x="390" y="728" type="curve" smooth="yes"/>
      <point x="370" y="749"/>
      <point x="316" y="760"/>
      <point x="230" y="760" type="curve" smooth="yes"/>
      <point x="220" y="760" type="line"/>
      <point x="220" y="263" type="line" smooth="yes"/>
      <point x="220" y="139"/>
      <point x="283" y="77"/>
      <point x="406" y="77" type="curve"/>
      <point x="406" y="689" type="line" smooth="yes"/>
      <point x="406" y="708"/>
      <point x="404" y="715"/>
    </contour>
    <contour>
      <point x="38" y="180" type="line"/>
      <point x="36" y="164"/>
      <point x="34" y="148"/>
      <point x="34" y="131" type="curve" smooth="yes"/>
      <point x="34" y="73"/>
      <point x="43" y="39"/>
      <point x="62" y="20" type="curve" smooth="yes"/>
      <point x="77" y="5"/>
      <point x="96" y="0"/>
      <point x="143" y="0" type="curve"/>
      <point x="564" y="0" type="line"/>
      <point x="569" y="16"/>
      <point x="572" y="36"/>
      <point x="572" y="58" type="curve" smooth="yes"/>
      <point x="572" y="138"/>
      <point x="517" y="180"/>
      <point x="382" y="180" type="curve"/>
    </contour>
    <contour>
      <point x="510" y="680" type="move" name="caronslovak"/>
    </contour>
    <contour>
      <point x="311" y="746" type="move" name="top"/>
    </contour>
    <contour>
      <point x="478" y="400" type="move" name="dot"/>
    </contour>
    <contour>
      <point x="304" y="-1" type="move" name="bottom"/>
    </contour>
  </outline>
</glyph>
<glyph name="m" format="1">
  <advance width="600"/>
  <unicode hex="006D"/>
  <outline>
    <contour>
      <point x="188" y="0" type="curve"/>
      <point x="188" y="426" type="line" smooth="yes"/>
      <point x="188" y="500"/>
      <point x="182" y="514"/>
      <point x="166" y="530" type="curve" smooth="yes"/>
      <point x="149" y="548"/>
      <point x="119" y="553"/>
      <point x="82" y="553" type="curve" smooth="yes"/>
      <point x="60" y="553"/>
      <point x="40" y="551"/>
      <point x="18" y="546" type="curve"/>
      <point x="26" y="508"/>
      <point x="30" y="470"/>
      <point x="30" y="423" type="curve" smooth="yes"/>
      <point x="30" y="66" type="line" smooth="yes"/>
      <point x="30" y="6"/>
      <point x="52" y="-6"/>
      <point x="118" y="-6" type="curve" smooth="yes"/>
      <point x="145" y="-6"/>
      <point x="169" y="-4"/>
    </contour>
    <contour>
      <point x="281" y="555" type="curve" smooth="yes"/>
      <point x="247" y="555"/>
      <point x="214" y="512"/>
      <point x="202" y="465" type="curve" smooth="yes"/>
      <point x="178" y="430"/>
      <point x="148" y="352"/>
      <point x="181" y="305" type="curve"/>
      <point x="197" y="350"/>
      <point x="220" y="374"/>
      <point x="245" y="374" type="curve" smooth="yes"/>
      <point x="259" y="374"/>
      <point x="270" y="367"/>
      <point x="278" y="352" type="curve"/>
      <point x="316" y="372"/>
      <point x="348" y="405"/>
      <point x="348" y="441" type="curve" smooth="yes"/>
      <point x="348" y="506"/>
      <point x="314" y="555"/>
    </contour>
    <contour>
      <point x="348" y="0" type="curve"/>
      <point x="348" y="441" type="line" smooth="yes"/>
      <point x="348" y="476"/>
      <point x="326" y="490"/>
      <point x="278" y="482" type="curve"/>
      <point x="254" y="304"/>
      <point x="247" y="194"/>
      <point x="247" y="80" type="curve" smooth="yes"/>
      <point x="247" y="76" type="line" smooth="yes"/>
      <point x="247" y="22"/>
      <point x="268" y="-4"/>
      <point x="318" y="-4" type="curve" smooth="yes"/>
      <point x="328" y="-4"/>
      <point x="337" y="-2"/>
    </contour>
    <contour>
      <point x="460" y="556" type="curve" smooth="yes"/>
      <point x="422" y="556"/>
      <point x="378" y="515"/>
      <point x="358" y="469" type="curve" smooth="yes"/>
      <point x="331" y="431"/>
      <point x="304" y="354"/>
      <point x="340" y="306" type="curve"/>
      <point x="352" y="351"/>
      <point x="375" y="374"/>
      <point x="407" y="374" type="curve" smooth="yes"/>
      <point x="428" y="374"/>
      <point x="441" y="365"/>
      <point x="448" y="344" type="curve"/>
      <point x="547" y="361"/>
      <point x="570" y="382"/>
      <point x="570" y="410" type="curve" smooth="yes"/>
      <point x="570" y="473"/>
      <point x="512" y="556"/>
    </contour>
    <contour>
      <point x="586" y="0" type="curve"/>
      <point x="574" y="48"/>
      <point x="570" y="90"/>
      <point x="570" y="150" type="curve" smooth="yes"/>
      <point x="570" y="410" type="line" smooth="yes"/>
      <point x="570" y="439"/>
      <point x="516" y="462"/>
      <point x="442" y="462" type="curve"/>
      <point x="416" y="316"/>
      <point x="407" y="208"/>
      <point x="407" y="98" type="curve" smooth="yes"/>
      <point x="407" y="94" type="line" smooth="yes"/>
      <point x="407" y="15"/>
      <point x="436" y="-8"/>
      <point x="514" y="-8" type="curve" smooth="yes"/>
      <point x="538" y="-8"/>
      <point x="561" y="-6"/>
    </contour>
  </outline>
</glyph>
<glyph name="n" format="1">
  <advance width="600"/>
  <unicode hex="006E"/>
  <outline>
    <contour>
      <point x="236" y="0" type="curve"/>
      <point x="236" y="403" type="line" smooth="yes"/>
      <point x="236" y="466"/>
      <point x="225" y="501"/>
      <point x="202" y="524" type="curve" smooth="yes"/>
      <point x="181" y="545"/>
      <point x="152" y="553"/>
      <point x="104" y="553" type="curve" smooth="yes"/>
      <point x="81" y="553"/>
      <point x="59" y="551"/>
      <point x="37" y="546" type="curve"/>
      <point x="46" y="509"/>
      <point x="50" y="471"/>
      <point x="50" y="423" type="curve" smooth="yes"/>
      <point x="50" y="66" type="line" smooth="yes"/>
      <point x="50" y="6"/>
      <point x="82" y="-6"/>
      <point x="165" y="-6" type="curve" smooth="yes"/>
      <point x="192" y="-6"/>
      <point x="216" y="-4"/>
    </contour>
    <contour>
      <point x="411" y="558" type="curve" smooth="yes"/>
      <point x="326" y="558"/>
      <point x="240" y="472"/>
      <point x="215" y="373" type="curve" smooth="yes"/>
      <point x="200" y="309"/>
      <point x="204" y="252"/>
      <point x="229" y="194" type="curve"/>
      <point x="254" y="333"/>
      <point x="302" y="370"/>
      <point x="346" y="370" type="curve" smooth="yes"/>
      <point x="372" y="370"/>
      <point x="396" y="354"/>
      <point x="406" y="320" type="curve"/>
      <point x="512" y="320"/>
      <point x="547" y="352"/>
      <point x="547" y="380" type="curve" smooth="yes"/>
      <point x="547" y="462"/>
      <point x="481" y="558"/>
    </contour>
    <contour>
      <point x="564" y="-2" type="curve"/>
      <point x="552" y="48"/>
      <point x="547" y="90"/>
      <point x="547" y="150" type="curve" smooth="yes"/>
      <point x="547" y="380" type="line"/>
      <point x="547" y="420"/>
      <point x="487" y="449"/>
      <point x="390" y="448" type="curve"/>
      <point x="362" y="314"/>
      <point x="348" y="210"/>
      <point x="348" y="110" type="curve" smooth="yes"/>
      <point x="348" y="106" type="line" smooth="yes"/>
      <point x="348" y="18"/>
      <point x="390" y="-8"/>
      <point x="484" y="-8" type="curve" smooth="yes"/>
      <point x="512" y="-8"/>
      <point x="537" y="-6"/>
    </contour>
    <contour>
      <point x="104" y="711" type="move" name="caronslovak"/>
    </contour>
    <contour>
      <point x="300" y="556" type="move" name="top"/>
    </contour>
    <contour>
      <point x="302" y="-1" type="move" name="bottom"/>
    </contour>
  </outline>
</glyph>
<glyph name="p" format="1">
  <advance width="600"/>
  <unicode hex="0070"/>
  <outline>
    <contour>
      <point x="238" y="-196" type="curve"/>
      <point x="238" y="386" type="line" smooth="yes"/>
      <point x="238" y="466"/>
      <point x="228" y="498"/>
      <point x="202" y="524" type="curve" smooth="yes"/>
      <point x="182" y="544"/>
      <point x="152" y="553"/>
      <point x="105" y="553" type="curve"/>
      <point x="81" y="553"/>
      <point x="60" y="551"/>
      <point x="38" y="546" type="curve"/>
      <point x="46" y="509"/>
      <point x="50" y="471"/>
      <point x="50" y="423" type="curve" smooth="yes"/>
      <point x="50" y="-130" type="line" smooth="yes"/>
      <point x="50" y="-191"/>
      <point x="84" y="-203"/>
      <point x="166" y="-203" type="curve"/>
      <point x="192" y="-203"/>
      <point x="217" y="-201"/>
    </contour>
    <contour>
      <point x="412" y="557" type="curve" smooth="yes"/>
      <point x="336" y="557"/>
      <point x="256" y="496"/>
      <point x="224" y="416" type="curve" smooth="yes"/>
      <point x="194" y="356"/>
      <point x="202" y="286"/>
      <point x="228" y="250" type="curve"/>
      <point x="258" y="342"/>
      <point x="300" y="376"/>
      <point x="353" y="376" type="curve" smooth="yes"/>
      <point x="380" y="376"/>
      <point x="410" y="362"/>
      <point x="446" y="320" type="curve"/>
      <point x="476" y="322"/>
      <point x="566" y="340"/>
      <point x="566" y="364" type="curve" smooth="yes"/>
      <point x="566" y="468"/>
      <point x="486" y="557"/>
    </contour>
    <contour>
      <point x="370" y="-11" type="curve" smooth="yes"/>
      <point x="479" y="-11"/>
      <point x="566" y="80"/>
      <point x="566" y="349" type="curve" smooth="yes"/>
      <point x="566" y="364" type="line" smooth="yes"/>
      <point x="566" y="418"/>
      <point x="522" y="482"/>
      <point x="440" y="482" type="curve" smooth="yes"/>
      <point x="397" y="482"/>
      <point x="369" y="468"/>
      <point x="355" y="432" type="curve"/>
      <point x="370" y="406"/>
      <point x="376" y="374"/>
      <point x="376" y="300" type="curve" smooth="yes"/>
      <point x="376" y="292" type="line" smooth="yes"/>
      <point x="376" y="184"/>
      <point x="346" y="148"/>
      <point x="295" y="148" type="curve" smooth="yes"/>
      <point x="256" y="148"/>
      <point x="226" y="160"/>
      <point x="204" y="182" type="curve"/>
      <point x="188" y="150"/>
      <point x="197" y="95"/>
      <point x="230" y="57" type="curve" smooth="yes"/>
      <point x="260" y="22"/>
      <point x="310" y="-11"/>
    </contour>
  </outline>
</glyph>
<glyph name="s" format="1">
  <advance width="600"/>
  <unicode hex="0073"/>
  <outline>
    <contour>
      <point x="356" y="556" type="curve" smooth="yes"/>
      <point x="345" y="556" type="line" smooth="yes"/>
      <point x="178" y="556"/>
      <point x="58" y="499"/>
      <point x="58" y="382" type="curve" smooth="yes"/>
      <point x="58" y="324"/>
      <point x="138" y="286"/>
      <point x="252" y="286" type="curve"/>
      <point x="239" y="314"/>
      <point x="235" y="340"/>
      <point x="235" y="359" type="curve" smooth="yes"/>
      <point x="235" y="375"/>
      <point x="258" y="387"/>
      <point x="335" y="387" type="curve" smooth="yes"/>
      <point x="434" y="387"/>
      <point x="492" y="374"/>
      <point x="533" y="354" type="curve"/>
      <point x="537" y="354" type="line"/>
      <point x="540" y="371"/>
      <point x="542" y="388"/>
      <point x="542" y="404" type="curve"/>
      <point x="542" y="468"/>
      <point x="533" y="496"/>
      <point x="508" y="522" type="curve" smooth="yes"/>
      <point x="486" y="544"/>
      <point x="439" y="556"/>
    </contour>
    <contour>
      <point x="389" y="314" type="curve" smooth="yes"/>
      <point x="303" y="330" type="line" smooth="yes"/>
      <point x="249" y="339"/>
      <point x="235" y="345"/>
      <point x="235" y="359" type="curve" smooth="yes"/>
      <point x="235" y="385"/>
      <point x="239" y="412"/>
      <point x="254" y="442" type="curve"/>
      <point x="111" y="436"/>
      <point x="58" y="414"/>
      <point x="58" y="382" type="curve"/>
      <point x="58" y="294"/>
      <point x="106" y="257"/>
      <point x="248" y="230" type="curve" smooth="yes"/>
      <point x="342" y="212" type="line" smooth="yes"/>
      <point x="379" y="204"/>
      <point x="394" y="195"/>
      <point x="394" y="178" type="curve" smooth="yes"/>
      <point x="394" y="147"/>
      <point x="389" y="123"/>
      <point x="375" y="98" type="curve"/>
      <point x="515" y="98"/>
      <point x="565" y="120"/>
      <point x="565" y="156" type="curve" smooth="yes"/>
      <point x="565" y="240"/>
      <point x="515" y="294"/>
    </contour>
    <contour>
      <point x="302" y="159" type="curve" smooth="yes"/>
      <point x="173" y="159"/>
      <point x="124" y="170"/>
      <point x="49" y="207" type="curve"/>
      <point x="45" y="207" type="line"/>
      <point x="40" y="186"/>
      <point x="38" y="166"/>
      <point x="38" y="138" type="curve" smooth="yes"/>
      <point x="38" y="78"/>
      <point x="52" y="52"/>
      <point x="70" y="34" type="curve" smooth="yes"/>
      <point x="88" y="16"/>
      <point x="150" y="-11"/>
      <point x="282" y="-11" type="curve" smooth="yes"/>
      <point x="298" y="-11" type="line" smooth="yes"/>
      <point x="498" y="-11"/>
      <point x="565" y="47"/>
      <point x="565" y="156" type="curve" smooth="yes"/>
      <point x="565" y="200"/>
      <point x="521" y="222"/>
      <point x="428" y="228" type="curve"/>
      <point x="433" y="214"/>
      <point x="434" y="204"/>
      <point x="434" y="196" type="curve" smooth="yes"/>
      <point x="434" y="175"/>
      <point x="387" y="159"/>
    </contour>
    <contour>
      <point x="310" y="556" type="move" name="top"/>
    </contour>
    <contour>
      <point x="301" y="-1" type="move" name="bottom"/>
    </contour>
  </outline>
</glyph>
<glyph name="t" format="1">
  <advance width="600"/>
  <unicode hex="0074"/>
  <outline>
    <contour>
      <point x="158" y="701" type="curve"/>
      <point x="158" y="179" type="line" smooth="yes"/>
      <point x="158" y="106"/>
      <point x="252" y="38"/>
      <point x="382" y="86" type="curve"/>
      <point x="354" y="118"/>
      <point x="345" y="158"/>
      <point x="345" y="210" type="curve" smooth="yes"/>
      <point x="345" y="635" type="line" smooth="yes"/>
      <point x="345" y="696"/>
      <point x="316" y="708"/>
      <point x="230" y="708" type="curve" smooth="yes"/>
      <point x="204" y="708"/>
      <point x="178" y="706"/>
    </contour>
    <contour>
      <point x="554" y="200" type="curve"/>
      <point x="550" y="200" type="line"/>
      <point x="496" y="177"/>
      <point x="454" y="169"/>
      <point x="382" y="169" type="curve" smooth="yes"/>
      <point x="326" y="169"/>
      <point x="256" y="185"/>
      <point x="218" y="225" type="curve"/>
      <point x="172" y="224"/>
      <point x="158" y="204"/>
      <point x="158" y="179" type="curve" smooth="yes"/>
      <point x="158" y="79"/>
      <point x="250" y="-11"/>
      <point x="370" y="-11" type="curve" smooth="yes"/>
      <point x="380" y="-11" type="line" smooth="yes"/>
      <point x="460" y="-11"/>
      <point x="510" y="12"/>
      <point x="528" y="30" type="curve" smooth="yes"/>
      <point x="549" y="52"/>
      <point x="560" y="94"/>
      <point x="560" y="145" type="curve" smooth="yes"/>
      <point x="560" y="162"/>
      <point x="558" y="180"/>
    </contour>
    <contour>
      <point x="31" y="545" type="line"/>
      <point x="31" y="539"/>
      <point x="31" y="533"/>
      <point x="31" y="526" type="curve" smooth="yes"/>
      <point x="31" y="462"/>
      <point x="37" y="423"/>
      <point x="58" y="402" type="curve" smooth="yes"/>
      <point x="83" y="377"/>
      <point x="116" y="365"/>
      <point x="207" y="365" type="curve" smooth="yes"/>
      <point x="555" y="365" type="line"/>
      <point x="560" y="384"/>
      <point x="562" y="413"/>
      <point x="562" y="438" type="curve" smooth="yes"/>
      <point x="562" y="520"/>
      <point x="545" y="545"/>
      <point x="489" y="545" type="curve" smooth="yes"/>
    </contour>
    <contour>
      <point x="486" y="706" type="move" name="caronslovak"/>
    </contour>
    <contour>
      <point x="371" y="-1" type="move" name="bottom"/>
    </contour>
  </outline>
</glyph>
<glyph name="v" format="1">
  <advance width="600"/>
  <unicode hex="0076"/>
  <outline>
    <contour>
      <point x="400" y="556" type="curve" smooth="yes"/>
      <point x="376" y="556" type="line"/>
      <point x="348" y="264"/>
      <point x="330" y="180"/>
      <point x="243" y="109" type="curve"/>
      <point x="215" y="86"/>
      <point x="248" y="-10"/>
      <point x="308" y="-10" type="curve"/>
      <point x="371" y="-10" type="line"/>
      <point x="472" y="76"/>
      <point x="541" y="268"/>
      <point x="561" y="482" type="curve"/>
      <point x="565" y="525"/>
      <point x="516" y="556"/>
    </contour>
    <contour>
      <point x="58" y="556" type="curve" smooth="yes"/>
      <point x="34" y="556" type="line"/>
      <point x="58" y="298"/>
      <point x="106" y="130"/>
      <point x="198" y="37" type="curve"/>
      <point x="239" y="-4"/>
      <point x="269" y="-10"/>
      <point x="301" y="-10" type="curve" smooth="yes"/>
      <point x="320" y="-10" type="line" smooth="yes"/>
      <point x="358" y="-10"/>
      <point x="394" y="20"/>
      <point x="410" y="70" type="curve"/>
      <point x="404" y="70"/>
      <point x="400" y="70"/>
      <point x="394" y="70" type="curve" smooth="yes"/>
      <point x="386" y="70"/>
      <point x="378" y="71"/>
      <point x="365" y="81" type="curve"/>
      <point x="292" y="139"/>
      <point x="259" y="244"/>
      <point x="231" y="497" type="curve"/>
      <point x="228" y="532"/>
      <point x="174" y="556"/>
    </contour>
  </outline>
</glyph>
<glyph name="w" format="1">
  <advance width="600"/>
  <unicode hex="0077"/>
  <outline>
    <contour>
      <point x="33" y="554" type="curve"/>
      <point x="33" y="245"/>
      <point x="51" y="90"/>
      <point x="129" y="12" type="curve" smooth="yes"/>
      <point x="144" y="-2"/>
      <point x="166" y="-10"/>
      <point x="187" y="-10" type="curve" smooth="yes"/>
      <point x="190" y="-10" type="line" smooth="yes"/>
      <point x="205" y="-10"/>
      <point x="232" y="48"/>
      <point x="232" y="86" type="curve" smooth="yes"/>
      <point x="191" y="109"/>
      <point x="182" y="209"/>
      <point x="182" y="502" type="curve"/>
      <point x="182" y="511"/>
      <point x="180" y="515"/>
      <point x="173" y="524" type="curve" smooth="yes"/>
      <point x="156" y="545"/>
      <point x="119" y="556"/>
      <point x="68" y="556" type="curve"/>
      <point x="57" y="556"/>
      <point x="45" y="556"/>
    </contour>
    <contour>
      <point x="264" y="458" type="curve" smooth="yes"/>
      <point x="252" y="458" type="line"/>
      <point x="252" y="241"/>
      <point x="215" y="154"/>
      <point x="144" y="55" type="curve"/>
      <point x="146" y="18"/>
      <point x="158" y="-10"/>
      <point x="187" y="-10" type="curve"/>
      <point x="220" y="-10" type="line"/>
      <point x="296" y="111"/>
      <point x="320" y="266"/>
      <point x="320" y="408" type="curve" smooth="yes"/>
      <point x="320" y="440"/>
      <point x="286" y="458"/>
    </contour>
    <contour>
      <point x="264" y="458" type="curve" smooth="yes"/>
      <point x="258" y="458" type="line"/>
      <point x="258" y="327"/>
      <point x="313" y="79"/>
      <point x="372" y="11" type="curve" smooth="yes"/>
      <point x="386" y="-4"/>
      <point x="406" y="-10"/>
      <point x="426" y="-10" type="curve" smooth="yes"/>
      <point x="436" y="-10" type="line" smooth="yes"/>
      <point x="458" y="-10"/>
      <point x="469" y="24"/>
      <point x="469" y="50" type="curve" smooth="yes"/>
      <point x="405" y="95"/>
      <point x="346" y="240"/>
      <point x="346" y="418" type="curve" smooth="yes"/>
      <point x="346" y="438"/>
      <point x="312" y="458"/>
    </contour>
    <contour>
      <point x="415" y="554" type="curve"/>
      <point x="415" y="185"/>
      <point x="407" y="134"/>
      <point x="378" y="82" type="curve"/>
      <point x="380" y="30"/>
      <point x="396" y="-10"/>
      <point x="431" y="-10" type="curve"/>
      <point x="460" y="-10" type="line"/>
      <point x="548" y="97"/>
      <point x="564" y="243"/>
      <point x="564" y="492" type="curve"/>
      <point x="564" y="507"/>
      <point x="562" y="512"/>
      <point x="556" y="518" type="curve" smooth="yes"/>
      <point x="531" y="543"/>
      <point x="489" y="556"/>
      <point x="450" y="556" type="curve"/>
      <point x="439" y="556"/>
      <point x="426" y="556"/>
    </contour>
    <contour>
      <point x="298" y="556" type="move" name="top"/>
    </contour>
  </outline>
</glyph>
<glyph name="x" format="1">
  <advance width="600"/>
  <unicode hex="0078"/>
  <outline>
    <contour>
      <point x="498" y="-10" type="curve" smooth="yes"/>
      <point x="538" y="-10"/>
      <point x="566" y="-5"/>
      <point x="586" y="8" type="curve"/>
      <point x="510" y="85"/>
      <point x="442" y="179"/>
      <point x="383" y="276" type="curve" smooth="yes"/>
      <point x="370" y="297"/>
      <point x="352" y="309"/>
      <point x="340" y="331" type="curve" smooth="yes"/>
      <point x="311" y="385"/>
      <point x="287" y="440"/>
      <point x="264" y="496" type="curve" smooth="yes"/>
      <point x="248" y="538"/>
      <point x="179" y="555"/>
      <point x="107" y="555" type="curve" smooth="yes"/>
      <point x="80" y="555"/>
      <point x="52" y="552"/>
      <point x="30" y="546" type="curve"/>
      <point x="84" y="421"/>
      <point x="144" y="309"/>
      <point x="212" y="208" type="curve" smooth="yes"/>
      <point x="225" y="189"/>
      <point x="246" y="178"/>
      <point x="260" y="158" type="curve" smooth="yes"/>
      <point x="285" y="123"/>
      <point x="313" y="85"/>
      <point x="341" y="52" type="curve" smooth="yes"/>
      <point x="382" y="2"/>
      <point x="428" y="-10"/>
    </contour>
    <contour>
      <point x="422" y="557" type="curve" smooth="yes"/>
      <point x="398" y="557" type="line"/>
      <point x="372" y="468"/>
      <point x="334" y="388"/>
      <point x="289" y="319" type="curve" smooth="yes"/>
      <point x="275" y="298"/>
      <point x="236" y="296"/>
      <point x="220" y="275" type="curve" smooth="yes"/>
      <point x="174" y="214"/>
      <point x="122" y="158"/>
      <point x="48" y="96" type="curve" smooth="yes"/>
      <point x="25" y="76"/>
      <point x="21" y="66"/>
      <point x="21" y="51" type="curve" smooth="yes"/>
      <point x="21" y="14"/>
      <point x="80" y="-10"/>
      <point x="176" y="-10" type="curve" smooth="yes"/>
      <point x="188" y="-10" type="line"/>
      <point x="243" y="44"/>
      <point x="290" y="102"/>
      <point x="330" y="150" type="curve" smooth="yes"/>
      <point x="346" y="170"/>
      <point x="380" y="172"/>
      <point x="395" y="190" type="curve" smooth="yes"/>
      <point x="470" y="290"/>
      <point x="523" y="378"/>
      <point x="558" y="466" type="curve" smooth="yes"/>
      <point x="563" y="478"/>
      <point x="566" y="488"/>
      <point x="566" y="497" type="curve" smooth="yes"/>
      <point x="566" y="540"/>
      <point x="502" y="557"/>
    </contour>
  </outline>
</glyph>
<glyph name="braceleft" format="1">
  <advance width="600"/>
  <unicode hex="007B"/>
  <outline>
    <contour>
      <point x="452" y="588" type="curve" smooth="yes"/>
      <point x="485" y="588"/>
      <point x="515" y="585"/>
      <point x="532" y="580" type="curve"/>
      <point x="536" y="580" type="line"/>
      <point x="540" y="600"/>
      <point x="542" y="616"/>
      <point x="542" y="644" type="curve"/>
      <point x="542" y="714"/>
      <point x="506" y="770"/>
      <point x="460" y="770" type="curve" smooth="yes"/>
      <point x="456" y="770" type="line" smooth="yes"/>
      <point x="316" y="770"/>
      <point x="218" y="714"/>
      <point x="218" y="640" type="curve" smooth="yes"/>
      <point x="218" y="638" type="line" smooth="yes"/>
      <point x="218" y="596"/>
      <point x="266" y="561"/>
      <point x="321" y="556" type="curve"/>
      <point x="364" y="580"/>
      <point x="409" y="588"/>
    </contour>
    <contour>
      <point x="420" y="420" type="curve" smooth="yes"/>
      <point x="420" y="520"/>
      <point x="358" y="576"/>
      <point x="358" y="618" type="curve" smooth="yes"/>
      <point x="358" y="638"/>
      <point x="362" y="654"/>
      <point x="371" y="674" type="curve"/>
      <point x="290" y="699"/>
      <point x="218" y="686"/>
      <point x="218" y="638" type="curve" smooth="yes"/>
      <point x="218" y="634" type="line" smooth="yes"/>
      <point x="218" y="594"/>
      <point x="250" y="532"/>
      <point x="250" y="466" type="curve" smooth="yes"/>
      <point x="250" y="408"/>
      <point x="208" y="382"/>
      <point x="101" y="382" type="curve" smooth="yes"/>
      <point x="80" y="382" type="line"/>
      <point x="80" y="362" type="line" smooth="yes"/>
      <point x="80" y="320"/>
      <point x="104" y="280"/>
      <point x="149" y="280" type="curve" smooth="yes"/>
      <point x="165" y="280" type="line" smooth="yes"/>
      <point x="324" y="280"/>
      <point x="420" y="342"/>
    </contour>
    <contour>
      <point x="420" y="180" type="curve" smooth="yes"/>
      <point x="420" y="262"/>
      <point x="328" y="319"/>
      <point x="167" y="319" type="curve" smooth="yes"/>
      <point x="126" y="319"/>
      <point x="103" y="332"/>
      <point x="80" y="374" type="curve"/>
      <point x="80" y="352" type="line" smooth="yes"/>
      <point x="80" y="282"/>
      <point x="106" y="218"/>
      <point x="148" y="218" type="curve" smooth="yes"/>
      <point x="152" y="218" type="line" smooth="yes"/>
      <point x="215" y="218"/>
      <point x="250" y="190"/>
      <point x="250" y="134" type="curve" smooth="yes"/>
      <point x="250" y="67"/>
      <point x="218" y="2"/>
      <point x="218" y="-38" type="curve" smooth="yes"/>
      <point x="218" y="-42" type="line" smooth="yes"/>
      <point x="218" y="-88"/>
      <point x="290" y="-102"/>
      <point x="371" y="-76" type="curve"/>
      <point x="362" y="-57"/>
      <point x="358" y="-41"/>
      <point x="358" y="-21" type="curve" smooth="yes"/>
      <point x="358" y="21"/>
      <point x="420" y="83"/>
    </contour>
    <contour>
      <point x="439" y="10" type="curve" smooth="yes"/>
      <point x="394" y="10"/>
      <point x="354" y="19"/>
      <point x="312" y="46" type="curve"/>
      <point x="252" y="22"/>
      <point x="218" y="-12"/>
      <point x="218" y="-39" type="curve" smooth="yes"/>
      <point x="218" y="-42" type="line" smooth="yes"/>
      <point x="218" y="-114"/>
      <point x="272" y="-172"/>
      <point x="444" y="-172" type="curve" smooth="yes"/>
      <point x="448" y="-172" type="line" smooth="yes"/>
      <point x="506" y="-172"/>
      <point x="540" y="-100"/>
      <point x="540" y="16" type="curve"/>
      <point x="540" y="24" type="line"/>
      <point x="536" y="24" type="line"/>
      <point x="502" y="14"/>
      <point x="476" y="10"/>
    </contour>
  </outline>
</glyph>
<glyph name="bar" format="1">
  <advance width="600"/>
  <unicode hex="007C"/>
  <outline>
    <contour>
      <point x="188" y="758" type="curve"/>
      <point x="198" y="721"/>
      <point x="203" y="684"/>
      <point x="203" y="642" type="curve" smooth="yes"/>
      <point x="203" y="-84" type="line" smooth="yes"/>
      <point x="203" y="-138"/>
      <point x="251" y="-165"/>
      <point x="352" y="-165" type="curve" smooth="yes"/>
      <point x="373" y="-165"/>
      <point x="388" y="-164"/>
      <point x="397" y="-162" type="curve"/>
      <point x="397" y="692" type="line" smooth="yes"/>
      <point x="397" y="718"/>
      <point x="392" y="728"/>
      <point x="382" y="740" type="curve" smooth="yes"/>
      <point x="362" y="758"/>
      <point x="332" y="766"/>
      <point x="270" y="766" type="curve" smooth="yes"/>
      <point x="240" y="766"/>
      <point x="216" y="764"/>
    </contour>
  </outline>
</glyph>
<glyph name="braceright" format="1">
  <advance width="600"/>
  <unicode hex="007D"/>
  <outline>
    <contour>
      <point x="148" y="10" type="curve" smooth="yes"/>
      <point x="115" y="10"/>
      <point x="85" y="13"/>
      <point x="68" y="18" type="curve"/>
      <point x="64" y="18" type="line"/>
      <point x="60" y="-2"/>
      <point x="58" y="-18"/>
      <point x="58" y="-46" type="curve"/>
      <point x="58" y="-116"/>
      <point x="94" y="-172"/>
      <point x="140" y="-172" type="curve" smooth="yes"/>
      <point x="144" y="-172" type="line" smooth="yes"/>
      <point x="284" y="-172"/>
      <point x="382" y="-116"/>
      <point x="382" y="-42" type="curve" smooth="yes"/>
      <point x="382" y="-40" type="line" smooth="yes"/>
      <point x="382" y="2"/>
      <point x="334" y="37"/>
      <point x="279" y="42" type="curve"/>
      <point x="236" y="18"/>
      <point x="191" y="10"/>
    </contour>
    <contour>
      <point x="180" y="178" type="curve" smooth="yes"/>
      <point x="180" y="78"/>
      <point x="242" y="22"/>
      <point x="242" y="-20" type="curve" smooth="yes"/>
      <point x="242" y="-40"/>
      <point x="238" y="-56"/>
      <point x="229" y="-76" type="curve"/>
      <point x="310" y="-101"/>
      <point x="382" y="-88"/>
      <point x="382" y="-40" type="curve" smooth="yes"/>
      <point x="382" y="-36" type="line" smooth="yes"/>
      <point x="382" y="4"/>
      <point x="350" y="66"/>
      <point x="350" y="132" type="curve" smooth="yes"/>
      <point x="350" y="190"/>
      <point x="392" y="216"/>
      <point x="499" y="216" type="curve" smooth="yes"/>
      <point x="520" y="216" type="line"/>
      <point x="520" y="236" type="line" smooth="yes"/>
      <point x="520" y="278"/>
      <point x="496" y="318"/>
      <point x="451" y="318" type="curve" smooth="yes"/>
      <point x="435" y="318" type="line" smooth="yes"/>
      <point x="276" y="318"/>
      <point x="180" y="256"/>
    </contour>
    <contour>
      <point x="180" y="418" type="curve" smooth="yes"/>
      <point x="180" y="336"/>
      <point x="272" y="279"/>
      <point x="433" y="279" type="curve" smooth="yes"/>
      <point x="474" y="279"/>
      <point x="497" y="266"/>
      <point x="520" y="224" type="curve"/>
      <point x="520" y="246" type="line" smooth="yes"/>
      <point x="520" y="316"/>
      <point x="494" y="380"/>
      <point x="452" y="380" type="curve" smooth="yes"/>
      <point x="448" y="380" type="line" smooth="yes"/>
      <point x="385" y="380"/>
      <point x="350" y="408"/>
      <point x="350" y="464" type="curve" smooth="yes"/>
      <point x="350" y="531"/>
      <point x="382" y="596"/>
      <point x="382" y="636" type="curve" smooth="yes"/>
      <point x="382" y="640" type="line" smooth="yes"/>
      <point x="382" y="686"/>
      <point x="310" y="700"/>
      <point x="229" y="674" type="curve"/>
      <point x="238" y="655"/>
      <point x="242" y="639"/>
      <point x="242" y="619" type="curve" smooth="yes"/>
      <point x="242" y="577"/>
      <point x="180" y="515"/>
    </contour>
    <contour>
      <point x="161" y="588" type="curve" smooth="yes"/>
      <point x="206" y="588"/>
      <point x="246" y="579"/>
      <point x="288" y="552" type="curve"/>
      <point x="348" y="576"/>
      <point x="382" y="610"/>
      <point x="382" y="637" type="curve" smooth="yes"/>
      <point x="382" y="640" type="line" smooth="yes"/>
      <point x="382" y="712"/>
      <point x="328" y="770"/>
      <point x="156" y="770" type="curve" smooth="yes"/>
      <point x="152" y="770" type="line" smooth="yes"/>
      <point x="94" y="770"/>
      <point x="60" y="698"/>
      <point x="60" y="582" type="curve"/>
      <point x="60" y="574" type="line"/>
      <point x="64" y="574" type="line"/>
      <point x="98" y="584"/>
      <point x="124" y="588"/>
    </contour>
  </outline>
</glyph>
<glyph name="asciitilde" format="1">
  <advance width="600"/>
  <unicode hex="007E"/>
  <outline>
    <contour>
      <point x="419" y="342" type="curve" smooth="yes"/>
      <point x="332" y="342"/>
      <point x="252" y="468"/>
      <point x="164" y="468" type="curve" smooth="yes"/>
      <point x="112" y="468"/>
      <point x="78" y="440"/>
      <point x="60" y="379" type="curve" smooth="yes"/>
      <point x="53" y="355"/>
      <point x="47" y="318"/>
      <point x="47" y="278" type="curve" smooth="yes"/>
      <point x="47" y="249"/>
      <point x="50" y="222"/>
      <point x="58" y="198" type="curve"/>
      <point x="62" y="198" type="line"/>
      <point x="100" y="242"/>
      <point x="130" y="258"/>
      <point x="181" y="258" type="curve" smooth="yes"/>
      <point x="268" y="258"/>
      <point x="348" y="132"/>
      <point x="436" y="132" type="curve" smooth="yes"/>
      <point x="488" y="132"/>
      <point x="522" y="160"/>
      <point x="540" y="221" type="curve" smooth="yes"/>
      <point x="547" y="245"/>
      <point x="553" y="282"/>
      <point x="553" y="322" type="curve" smooth="yes"/>
      <point x="553" y="351"/>
      <point x="550" y="378"/>
      <point x="542" y="402" type="curve"/>
      <point x="538" y="402" type="line"/>
      <point x="500" y="358"/>
      <point x="470" y="342"/>
    </contour>
  </outline>
</glyph>
<glyph name="exclamdown" format="1">
  <advance width="600"/>
  <unicode hex="00A1"/>
  <outline>
    <contour>
      <point x="232" y="236" type="line"/>
      <point x="210" y="172"/>
      <point x="192" y="81"/>
      <point x="192" y="-6" type="curve"/>
      <point x="192" y="-88" type="line" smooth="yes"/>
      <point x="192" y="-144"/>
      <point x="262" y="-168"/>
      <point x="338" y="-168" type="curve" smooth="yes"/>
      <point x="370" y="-168"/>
      <point x="393" y="-166"/>
      <point x="421" y="-160" type="curve"/>
      <point x="412" y="-124"/>
      <point x="407" y="-86"/>
      <point x="407" y="-45" type="curve" smooth="yes"/>
      <point x="407" y="-14" type="line"/>
      <point x="407" y="64"/>
      <point x="391" y="174"/>
      <point x="363" y="202" type="curve" smooth="yes"/>
      <point x="340" y="225"/>
      <point x="307" y="236"/>
      <point x="251" y="236" type="curve"/>
    </contour>
    <contour>
      <point x="183" y="544" type="curve"/>
      <point x="183" y="409" type="line" smooth="yes"/>
      <point x="183" y="334"/>
      <point x="243" y="313"/>
      <point x="323" y="313" type="curve" smooth="yes"/>
      <point x="359" y="313"/>
      <point x="388" y="316"/>
      <point x="417" y="322" type="curve"/>
      <point x="417" y="457" type="line" smooth="yes"/>
      <point x="417" y="533"/>
      <point x="357" y="554"/>
      <point x="277" y="554" type="curve" smooth="yes"/>
      <point x="241" y="554"/>
      <point x="211" y="550"/>
    </contour>
  </outline>
</glyph>
<glyph name="cent" format="1">
  <advance width="600"/>
  <unicode hex="00A2"/>
  <outline>
    <contour>
      <point x="374" y="446" type="line"/>
      <point x="458" y="686" type="line" smooth="yes"/>
      <point x="485" y="757"/>
      <point x="443" y="803"/>
      <point x="354" y="803" type="curve" smooth="yes"/>
      <point x="337" y="803"/>
      <point x="306" y="798"/>
      <point x="286" y="791" type="curve"/>
      <point x="298" y="760"/>
      <point x="306" y="730"/>
      <point x="306" y="687" type="curve"/>
      <point x="306" y="495" type="line" smooth="yes"/>
      <point x="306" y="464"/>
      <point x="344" y="446"/>
      <point x="370" y="446" type="curve" smooth="yes"/>
    </contour>
    <contour>
      <point x="308" y="250" type="line"/>
      <point x="225" y="10" type="line" smooth="yes"/>
      <point x="198" y="-60"/>
      <point x="240" y="-106"/>
      <point x="329" y="-106" type="curve" smooth="yes"/>
      <point x="346" y="-106"/>
      <point x="377" y="-102"/>
      <point x="397" y="-94" type="curve"/>
      <point x="384" y="-64"/>
      <point x="377" y="-34"/>
      <point x="377" y="10" type="curve"/>
      <point x="377" y="202" type="line" smooth="yes"/>
      <point x="377" y="233"/>
      <point x="340" y="250"/>
      <point x="312" y="250" type="curve" smooth="yes"/>
    </contour>
    <contour>
      <point x="352" y="638" type="curve" smooth="yes"/>
      <point x="164" y="638"/>
      <point x="44" y="514"/>
      <point x="44" y="330" type="curve" smooth="yes"/>
      <point x="44" y="320" type="line" smooth="yes"/>
      <point x="44" y="164"/>
      <point x="176" y="67"/>
      <point x="324" y="67" type="curve" smooth="yes"/>
      <point x="355" y="67"/>
      <point x="378" y="92"/>
      <point x="376" y="149" type="curve"/>
      <point x="247" y="191"/>
      <point x="230" y="257"/>
      <point x="230" y="326" type="curve" smooth="yes"/>
      <point x="230" y="334" type="line" smooth="yes"/>
      <point x="230" y="416"/>
      <point x="277" y="466"/>
      <point x="357" y="466" type="curve" smooth="yes"/>
      <point x="422" y="466"/>
      <point x="468" y="452"/>
      <point x="525" y="410" type="curve"/>
      <point x="529" y="410" type="line"/>
      <point x="540" y="440"/>
      <point x="544" y="469"/>
      <point x="544" y="500" type="curve" smooth="yes"/>
      <point x="544" y="548"/>
      <point x="536" y="574"/>
      <point x="516" y="594" type="curve" smooth="yes"/>
      <point x="488" y="622"/>
      <point x="436" y="638"/>
    </contour>
    <contour>
      <point x="140" y="326" type="curve"/>
      <point x="67" y="216"/>
      <point x="173" y="67"/>
      <point x="324" y="67" type="curve" smooth="yes"/>
      <point x="430" y="67"/>
      <point x="482" y="86"/>
      <point x="511" y="114" type="curve" smooth="yes"/>
      <point x="534" y="138"/>
      <point x="548" y="178"/>
      <point x="548" y="222" type="curve"/>
      <point x="548" y="247"/>
      <point x="546" y="269"/>
      <point x="541" y="290" type="curve"/>
      <point x="537" y="290" type="line"/>
      <point x="471" y="251"/>
      <point x="421" y="236"/>
      <point x="340" y="236" type="curve" smooth="yes"/>
      <point x="254" y="236"/>
      <point x="204" y="258"/>
    </contour>
  </outline>
</glyph>
<glyph name="sterling" format="1">
  <advance width="600"/>
  <unicode hex="00A3"/>
  <outline>
    <contour>
      <point x="350" y="533" type="curve" smooth="yes"/>
      <point x="426" y="533"/>
      <point x="481" y="524"/>
      <point x="542" y="479" type="curve"/>
      <point x="546" y="479" type="line"/>
      <point x="552" y="500"/>
      <point x="555" y="519"/>
      <point x="555" y="552" type="curve" smooth="yes"/>
      <point x="555" y="615"/>
      <point x="544" y="649"/>
      <point x="515" y="678" type="curve" smooth="yes"/>
      <point x="485" y="708"/>
      <point x="420" y="720"/>
      <point x="336" y="720" type="curve" smooth="yes"/>
      <point x="159" y="720"/>
      <point x="72" y="642"/>
      <point x="72" y="543" type="curve" smooth="yes"/>
      <point x="72" y="531" type="line" smooth="yes"/>
      <point x="72" y="492"/>
      <point x="132" y="464"/>
      <point x="223" y="458" type="curve"/>
      <point x="223" y="508"/>
      <point x="252" y="533"/>
    </contour>
    <contour>
      <point x="72" y="531" type="curve" smooth="yes"/>
      <point x="72" y="422"/>
      <point x="169" y="334"/>
      <point x="169" y="224" type="curve" smooth="yes"/>
      <point x="169" y="181"/>
      <point x="129" y="148"/>
      <point x="58" y="148" type="curve" smooth="yes"/>
      <point x="56" y="148"/>
      <point x="54" y="148"/>
      <point x="52" y="148" type="curve"/>
      <point x="48" y="148" type="line"/>
      <point x="43" y="125"/>
      <point x="40" y="106"/>
      <point x="40" y="78" type="curve" smooth="yes"/>
      <point x="40" y="14"/>
      <point x="58" y="-20"/>
      <point x="102" y="-20" type="curve" smooth="yes"/>
      <point x="110" y="-20" type="line" smooth="yes"/>
      <point x="219" y="-20"/>
      <point x="321" y="53"/>
      <point x="321" y="178" type="curve" smooth="yes"/>
      <point x="321" y="278"/>
      <point x="260" y="374"/>
      <point x="260" y="474" type="curve" smooth="yes"/>
      <point x="260" y="515"/>
      <point x="268" y="549"/>
      <point x="301" y="593" type="curve"/>
      <point x="156" y="593"/>
      <point x="72" y="570"/>
    </contour>
    <contour>
      <point x="220" y="108" type="curve"/>
      <point x="308" y="11"/>
      <point x="380" y="-20"/>
      <point x="474" y="-20" type="curve" smooth="yes"/>
      <point x="479" y="-20" type="line" smooth="yes"/>
      <point x="543" y="-20"/>
      <point x="566" y="16"/>
      <point x="566" y="106" type="curve"/>
      <point x="566" y="140"/>
      <point x="562" y="170"/>
      <point x="555" y="194" type="curve"/>
      <point x="551" y="194" type="line"/>
      <point x="526" y="175"/>
      <point x="497" y="166"/>
      <point x="452" y="166" type="curve" smooth="yes"/>
      <point x="386" y="166"/>
      <point x="327" y="174"/>
      <point x="247" y="206" type="curve"/>
      <point x="206" y="170"/>
      <point x="204" y="128"/>
    </contour>
    <contour>
      <point x="45" y="405" type="line"/>
      <point x="45" y="399"/>
      <point x="45" y="393"/>
      <point x="45" y="386" type="curve" smooth="yes"/>
      <point x="45" y="327"/>
      <point x="53" y="293"/>
      <point x="71" y="275" type="curve" smooth="yes"/>
      <point x="86" y="260"/>
      <point x="106" y="255"/>
      <point x="152" y="255" type="curve" smooth="yes"/>
      <point x="475" y="255" type="line"/>
      <point x="479" y="276"/>
      <point x="482" y="299"/>
      <point x="482" y="318" type="curve" smooth="yes"/>
      <point x="482" y="384"/>
      <point x="465" y="405"/>
      <point x="409" y="405" type="curve" smooth="yes"/>
    </contour>
  </outline>
</glyph>
<glyph name="yen" format="1">
  <advance width="600"/>
  <unicode hex="00A5"/>
  <outline>
    <contour>
      <point x="5" y="430" type="line"/>
      <point x="5" y="424"/>
      <point x="5" y="418"/>
      <point x="5" y="411" type="curve" smooth="yes"/>
      <point x="5" y="358"/>
      <point x="14" y="327"/>
      <point x="31" y="310" type="curve" smooth="yes"/>
      <point x="46" y="295"/>
      <point x="66" y="290"/>
      <point x="112" y="290" type="curve"/>
      <point x="180" y="290" type="line"/>
      <point x="184" y="311"/>
      <point x="187" y="334"/>
      <point x="187" y="353" type="curve" smooth="yes"/>
      <point x="187" y="411"/>
      <point x="170" y="430"/>
      <point x="114" y="430" type="curve"/>
    </contour>
    <contour>
      <point x="378" y="430" type="line"/>
      <point x="375" y="416"/>
      <point x="373" y="406"/>
      <point x="373" y="390" type="curve" smooth="yes"/>
      <point x="373" y="324"/>
      <point x="405" y="290"/>
      <point x="440" y="290" type="curve"/>
      <point x="588" y="290" type="line"/>
      <point x="592" y="311"/>
      <point x="595" y="334"/>
      <point x="595" y="353" type="curve" smooth="yes"/>
      <point x="595" y="411"/>
      <point x="578" y="430"/>
      <point x="522" y="430" type="curve"/>
    </contour>
    <contour>
      <point x="584" y="85" type="line"/>
      <point x="584" y="92"/>
      <point x="585" y="102"/>
      <point x="585" y="110" type="curve" smooth="yes"/>
      <point x="585" y="160"/>
      <point x="576" y="188"/>
      <point x="559" y="205" type="curve" smooth="yes"/>
      <point x="544" y="220"/>
      <point x="524" y="225"/>
      <point x="478" y="225" type="curve"/>
      <point x="22" y="225" type="line"/>
      <point x="18" y="204"/>
      <point x="15" y="181"/>
      <point x="15" y="162" type="curve" smooth="yes"/>
      <point x="15" y="104"/>
      <point x="32" y="85"/>
      <point x="88" y="85" type="curve"/>
    </contour>
    <contour>
      <point x="33" y="710" type="line"/>
      <point x="55" y="473"/>
      <point x="101" y="316"/>
      <point x="185" y="232" type="curve"/>
      <point x="227" y="190"/>
      <point x="261" y="185"/>
      <point x="290" y="185" type="curve"/>
      <point x="349" y="185"/>
      <point x="388" y="215"/>
      <point x="388" y="292" type="curve"/>
      <point x="283" y="352"/>
      <point x="249" y="440"/>
      <point x="228" y="660" type="curve"/>
      <point x="225" y="692"/>
      <point x="143" y="710"/>
      <point x="57" y="710" type="curve" smooth="yes"/>
    </contour>
    <contour>
      <point x="380" y="710" type="line"/>
      <point x="362" y="476"/>
      <point x="336" y="392"/>
      <point x="252" y="323" type="curve"/>
      <point x="196" y="277"/>
      <point x="234" y="185"/>
      <point x="290" y="185" type="curve"/>
      <point x="370" y="185" type="line"/>
      <point x="463" y="264"/>
      <point x="546" y="440"/>
      <point x="562" y="636" type="curve"/>
      <point x="566" y="685"/>
      <point x="491" y="710"/>
      <point x="404" y="710" type="curve"/>
    </contour>
    <contour>
      <point x="410" y="-2" type="curve"/>
      <point x="401" y="36"/>
      <point x="397" y="76"/>
      <point x="397" y="125" type="curve" smooth="yes"/>
      <point x="397" y="258" type="line" smooth="yes"/>
      <point x="397" y="320"/>
      <point x="326" y="335"/>
      <point x="204" y="335" type="curve"/>
      <point x="204" y="83" type="line" smooth="yes"/>
      <point x="204" y="47"/>
      <point x="210" y="28"/>
      <point x="223" y="14" type="curve" smooth="yes"/>
      <point x="240" y="-4"/>
      <point x="269" y="-10"/>
      <point x="327" y="-10" type="curve" smooth="yes"/>
      <point x="356" y="-10"/>
      <point x="382" y="-8"/>
    </contour>
  </outline>
</glyph>
<glyph name="brokenbar" format="1">
  <advance width="600"/>
  <unicode hex="00A6"/>
  <outline>
    <contour>
      <point x="188" y="758" type="curve"/>
      <point x="198" y="721"/>
      <point x="203" y="684"/>
      <point x="203" y="642" type="curve" smooth="yes"/>
      <point x="203" y="446" type="line" smooth="yes"/>
      <point x="203" y="392"/>
      <point x="251" y="366"/>
      <point x="352" y="366" type="curve" smooth="yes"/>
      <point x="373" y="366"/>
      <point x="388" y="366"/>
      <point x="397" y="369" type="curve"/>
      <point x="397" y="692" type="line" smooth="yes"/>
      <point x="397" y="718"/>
      <point x="392" y="728"/>
      <point x="382" y="740" type="curve" smooth="yes"/>
      <point x="362" y="758"/>
      <point x="332" y="766"/>
      <point x="270" y="766" type="curve" smooth="yes"/>
      <point x="240" y="766"/>
      <point x="216" y="764"/>
    </contour>
    <contour>
      <point x="203" y="228" type="curve"/>
      <point x="203" y="-84" type="line"/>
      <point x="203" y="-138"/>
      <point x="251" y="-164"/>
      <point x="352" y="-164" type="curve" smooth="yes"/>
      <point x="373" y="-164"/>
      <point x="388" y="-164"/>
      <point x="397" y="-161" type="curve"/>
      <point x="397" y="162" type="line" smooth="yes"/>
      <point x="397" y="216"/>
      <point x="367" y="236"/>
      <point x="282" y="236" type="curve" smooth="yes"/>
      <point x="253" y="236"/>
      <point x="230" y="234"/>
    </contour>
  </outline>
</glyph>
<glyph name="section" format="1">
  <advance width="600"/>
  <unicode hex="00A7"/>
  <outline>
    <contour>
      <point x="364" y="720" type="curve" smooth="yes"/>
      <point x="196" y="720"/>
      <point x="54" y="593"/>
      <point x="54" y="457" type="curve" smooth="yes"/>
      <point x="54" y="444" type="line" smooth="yes"/>
      <point x="54" y="412"/>
      <point x="138" y="373"/>
      <point x="242" y="373" type="curve"/>
      <point x="234" y="396"/>
      <point x="233" y="421"/>
      <point x="233" y="442" type="curve" smooth="yes"/>
      <point x="233" y="494"/>
      <point x="298" y="546"/>
      <point x="357" y="546" type="curve" smooth="yes"/>
      <point x="431" y="546"/>
      <point x="472" y="514"/>
      <point x="472" y="468" type="curve"/>
      <point x="528" y="468"/>
      <point x="547" y="500"/>
      <point x="547" y="520" type="curve" smooth="yes"/>
      <point x="547" y="588"/>
      <point x="539" y="620"/>
      <point x="490" y="669" type="curve" smooth="yes"/>
      <point x="458" y="702"/>
      <point x="420" y="720"/>
    </contour>
    <contour>
      <point x="392" y="358" type="curve" smooth="yes"/>
      <point x="296" y="388" type="line" smooth="yes"/>
      <point x="246" y="406"/>
      <point x="233" y="417"/>
      <point x="233" y="442" type="curve" smooth="yes"/>
      <point x="233" y="469"/>
      <point x="236" y="500"/>
      <point x="246" y="530" type="curve"/>
      <point x="140" y="530"/>
      <point x="54" y="509"/>
      <point x="54" y="444" type="curve" smooth="yes"/>
      <point x="54" y="370"/>
      <point x="91" y="316"/>
      <point x="236" y="268" type="curve" smooth="yes"/>
      <point x="327" y="238" type="line" smooth="yes"/>
      <point x="380" y="220"/>
      <point x="393" y="204"/>
      <point x="393" y="166" type="curve" smooth="yes"/>
      <point x="393" y="160" type="line" smooth="yes"/>
      <point x="393" y="130"/>
      <point x="388" y="114"/>
      <point x="373" y="94" type="curve"/>
      <point x="391" y="79"/>
      <point x="416" y="70"/>
      <point x="444" y="70" type="curve" smooth="yes"/>
      <point x="502" y="70"/>
      <point x="562" y="112"/>
      <point x="562" y="184" type="curve" smooth="yes"/>
      <point x="562" y="188" type="line" smooth="yes"/>
      <point x="562" y="248"/>
      <point x="534" y="312"/>
    </contour>
    <contour>
      <point x="392" y="128" type="curve" smooth="yes"/>
      <point x="296" y="159" type="line" smooth="yes"/>
      <point x="246" y="176"/>
      <point x="231" y="192"/>
      <point x="231" y="222" type="curve" smooth="yes"/>
      <point x="231" y="228" type="line" smooth="yes"/>
      <point x="231" y="248"/>
      <point x="238" y="270"/>
      <point x="252" y="293" type="curve"/>
      <point x="230" y="307"/>
      <point x="211" y="312"/>
      <point x="172" y="312" type="curve" smooth="yes"/>
      <point x="98" y="312"/>
      <point x="54" y="255"/>
      <point x="54" y="202" type="curve" smooth="yes"/>
      <point x="54" y="195" type="line" smooth="yes"/>
      <point x="54" y="132"/>
      <point x="91" y="87"/>
      <point x="238" y="38" type="curve" smooth="yes"/>
      <point x="332" y="6" type="line" smooth="yes"/>
      <point x="387" y="-12"/>
      <point x="404" y="-42"/>
      <point x="404" y="-100" type="curve" smooth="yes"/>
      <point x="404" y="-110"/>
      <point x="403" y="-122"/>
      <point x="398" y="-134" type="curve"/>
      <point x="472" y="-134"/>
      <point x="562" y="-89"/>
      <point x="562" y="-48" type="curve"/>
      <point x="562" y="4"/>
      <point x="534" y="82"/>
    </contour>
    <contour>
      <point x="300" y="-250" type="curve" smooth="yes"/>
      <point x="472" y="-250"/>
      <point x="562" y="-172"/>
      <point x="562" y="-64" type="curve" smooth="yes"/>
      <point x="562" y="-48" type="line" smooth="yes"/>
      <point x="562" y="-12"/>
      <point x="504" y="22"/>
      <point x="421" y="28" type="curve"/>
      <point x="426" y="14"/>
      <point x="426" y="7"/>
      <point x="426" y="-7" type="curve" smooth="yes"/>
      <point x="426" y="-46"/>
      <point x="374" y="-74"/>
      <point x="287" y="-74" type="curve" smooth="yes"/>
      <point x="190" y="-74"/>
      <point x="116" y="-49"/>
      <point x="50" y="8" type="curve"/>
      <point x="46" y="8" type="line"/>
      <point x="41" y="-9"/>
      <point x="38" y="-34"/>
      <point x="38" y="-64" type="curve" smooth="yes"/>
      <point x="38" y="-125"/>
      <point x="53" y="-171"/>
      <point x="76" y="-194" type="curve" smooth="yes"/>
      <point x="108" y="-226"/>
      <point x="200" y="-250"/>
    </contour>
    <contour>
      <point x="547" y="428" type="curve"/>
      <point x="547" y="520" type="line" smooth="yes"/>
      <point x="547" y="596"/>
      <point x="478" y="638"/>
      <point x="406" y="638" type="curve"/>
      <point x="376" y="592"/>
      <point x="367" y="522"/>
      <point x="367" y="492" type="curve" smooth="yes"/>
      <point x="367" y="486" type="line" smooth="yes"/>
      <point x="367" y="468"/>
      <point x="372" y="454"/>
      <point x="382" y="446" type="curve" smooth="yes"/>
      <point x="398" y="429"/>
      <point x="421" y="420"/>
      <point x="476" y="420" type="curve" smooth="yes"/>
      <point x="504" y="420"/>
      <point x="528" y="422"/>
    </contour>
  </outline>
</glyph>
<glyph name="ordfeminine" format="1">
  <advance width="600"/>
  <unicode hex="00AA"/>
  <outline>
    <contour>
      <point x="292" y="761" type="curve" smooth="yes"/>
      <point x="187" y="761"/>
      <point x="150" y="753"/>
      <point x="126" y="729" type="curve" smooth="yes"/>
      <point x="108" y="712"/>
      <point x="102" y="690"/>
      <point x="102" y="657" type="curve" smooth="yes"/>
      <point x="102" y="637"/>
      <point x="104" y="624"/>
      <point x="108" y="608" type="curve"/>
      <point x="112" y="608" type="line"/>
      <point x="159" y="624"/>
      <point x="200" y="628"/>
      <point x="250" y="628" type="curve" smooth="yes"/>
      <point x="336" y="628"/>
      <point x="398" y="602"/>
      <point x="436" y="544" type="curve"/>
      <point x="475" y="548"/>
      <point x="495" y="558"/>
      <point x="495" y="584" type="curve"/>
      <point x="495" y="674"/>
      <point x="412" y="761"/>
    </contour>
    <contour>
      <point x="345" y="676" type="curve"/>
      <point x="354" y="634"/>
      <point x="352" y="610"/>
      <point x="342" y="562" type="curve" smooth="yes"/>
      <point x="342" y="490"/>
      <point x="342" y="471"/>
      <point x="342" y="416" type="curve" smooth="yes"/>
      <point x="342" y="350"/>
      <point x="422" y="325"/>
      <point x="500" y="336" type="curve"/>
      <point x="496" y="364"/>
      <point x="495" y="374"/>
      <point x="495" y="399" type="curve" smooth="yes"/>
      <point x="495" y="476"/>
      <point x="495" y="522"/>
      <point x="495" y="584" type="curve" smooth="yes"/>
      <point x="495" y="638"/>
      <point x="428" y="689"/>
    </contour>
    <contour>
      <point x="540" y="436" type="line"/>
      <point x="538" y="436" type="line"/>
      <point x="536" y="436"/>
      <point x="535" y="436"/>
      <point x="534" y="436" type="curve" smooth="yes"/>
      <point x="506" y="436"/>
      <point x="475" y="446"/>
      <point x="450" y="477" type="curve"/>
      <point x="380" y="468"/>
      <point x="342" y="450"/>
      <point x="342" y="416" type="curve" smooth="yes"/>
      <point x="342" y="352"/>
      <point x="414" y="286"/>
      <point x="492" y="286" type="curve" smooth="yes"/>
      <point x="495" y="286" type="line" smooth="yes"/>
      <point x="526" y="286"/>
      <point x="540" y="343"/>
      <point x="540" y="424" type="curve"/>
    </contour>
    <contour>
      <point x="230" y="442" type="curve" smooth="yes"/>
      <point x="230" y="448" type="line" smooth="yes"/>
      <point x="230" y="475"/>
      <point x="236" y="492"/>
      <point x="252" y="509" type="curve"/>
      <point x="173" y="520"/>
      <point x="78" y="480"/>
      <point x="78" y="426" type="curve" smooth="yes"/>
      <point x="78" y="416" type="line" smooth="yes"/>
      <point x="78" y="335"/>
      <point x="127" y="286"/>
      <point x="214" y="286" type="curve" smooth="yes"/>
      <point x="282" y="286"/>
      <point x="340" y="314"/>
      <point x="372" y="366" type="curve" smooth="yes"/>
      <point x="395" y="403"/>
      <point x="383" y="427"/>
      <point x="368" y="444" type="curve"/>
      <point x="332" y="416"/>
      <point x="301" y="410"/>
      <point x="270" y="410" type="curve" smooth="yes"/>
      <point x="268" y="410" type="line" smooth="yes"/>
      <point x="237" y="410"/>
      <point x="230" y="420"/>
    </contour>
    <contour>
      <point x="378" y="527" type="curve" smooth="yes"/>
      <point x="354" y="550"/>
      <point x="300" y="564"/>
      <point x="218" y="564" type="curve" smooth="yes"/>
      <point x="136" y="564"/>
      <point x="78" y="494"/>
      <point x="78" y="426" type="curve" smooth="yes"/>
      <point x="78" y="405"/>
      <point x="92" y="386"/>
      <point x="120" y="382" type="curve"/>
      <point x="172" y="457"/>
      <point x="217" y="479"/>
      <point x="282" y="479" type="curve" smooth="yes"/>
      <point x="316" y="479"/>
      <point x="359" y="474"/>
      <point x="398" y="462" type="curve"/>
      <point x="398" y="496"/>
      <point x="390" y="514"/>
    </contour>
  </outline>
</glyph>
<glyph name="logicalnot" format="1">
  <advance width="600"/>
  <unicode hex="00AC"/>
  <outline>
    <contour>
      <point x="52" y="455" type="line"/>
      <point x="48" y="436"/>
      <point x="46" y="416"/>
      <point x="46" y="398" type="curve" smooth="yes"/>
      <point x="46" y="348"/>
      <point x="53" y="320"/>
      <point x="70" y="302" type="curve" smooth="yes"/>
      <point x="86" y="287"/>
      <point x="109" y="282"/>
      <point x="152" y="282" type="curve"/>
      <point x="540" y="282" type="line"/>
      <point x="540" y="295" type="line"/>
      <point x="540" y="409"/>
      <point x="521" y="455"/>
      <point x="434" y="455" type="curve"/>
    </contour>
    <contour>
      <point x="540" y="124" type="curve"/>
      <point x="540" y="295" type="line" smooth="yes"/>
      <point x="540" y="338"/>
      <point x="464" y="349"/>
      <point x="376" y="349" type="curve"/>
      <point x="354" y="349" type="line"/>
      <point x="354" y="190" type="line" smooth="yes"/>
      <point x="354" y="130"/>
      <point x="384" y="118"/>
      <point x="470" y="118" type="curve" smooth="yes"/>
      <point x="496" y="118"/>
      <point x="520" y="120"/>
    </contour>
  </outline>
</glyph>
<glyph name="macron" format="1">
  <advance width="600"/>
  <unicode hex="00AF"/>
  <outline>
    <contour>
      <point x="106" y="759" type="line"/>
      <point x="106" y="753"/>
      <point x="106" y="745"/>
      <point x="106" y="738" type="curve" smooth="yes"/>
      <point x="106" y="660"/>
      <point x="122" y="618"/>
      <point x="242" y="618" type="curve"/>
      <point x="494" y="618" type="line"/>
      <point x="497" y="632"/>
      <point x="501" y="657"/>
      <point x="501" y="684" type="curve" smooth="yes"/>
      <point x="501" y="741"/>
      <point x="484" y="759"/>
      <point x="428" y="759" type="curve"/>
    </contour>
  </outline>
</glyph>
<glyph name="threesuperior" format="1">
  <advance width="600"/>
  <unicode hex="00B3"/>
  <outline>
    <contour>
      <point x="273" y="612" type="curve" smooth="yes"/>
      <point x="315" y="612"/>
      <point x="334" y="600"/>
      <point x="334" y="582" type="curve" smooth="yes"/>
      <point x="334" y="574"/>
      <point x="333" y="569"/>
      <point x="332" y="564" type="curve"/>
      <point x="366" y="566"/>
      <point x="431" y="603"/>
      <point x="431" y="618" type="curve" smooth="yes"/>
      <point x="431" y="625" type="line" smooth="yes"/>
      <point x="431" y="673"/>
      <point x="379" y="711"/>
      <point x="295" y="711" type="curve"/>
      <point x="248" y="711"/>
      <point x="210" y="701"/>
      <point x="194" y="685" type="curve" smooth="yes"/>
      <point x="177" y="668"/>
      <point x="172" y="648"/>
      <point x="172" y="621" type="curve" smooth="yes"/>
      <point x="172" y="606"/>
      <point x="173" y="595"/>
      <point x="178" y="579" type="curve"/>
      <point x="180" y="579" type="line"/>
      <point x="212" y="606"/>
      <point x="239" y="612"/>
    </contour>
    <contour>
      <point x="253" y="525" type="curve" smooth="yes"/>
      <point x="374" y="525"/>
      <point x="431" y="569"/>
      <point x="431" y="618" type="curve" smooth="yes"/>
      <point x="431" y="642"/>
      <point x="373" y="653"/>
      <point x="343" y="653" type="curve"/>
      <point x="343" y="652"/>
      <point x="343" y="650"/>
      <point x="343" y="648" type="curve" smooth="yes"/>
      <point x="343" y="584"/>
      <point x="308" y="569"/>
      <point x="234" y="569" type="curve"/>
      <point x="232" y="561"/>
      <point x="230" y="554"/>
      <point x="230" y="540" type="curve" smooth="yes"/>
      <point x="230" y="528"/>
      <point x="248" y="525"/>
    </contour>
    <contour>
      <point x="253" y="494" type="curve" smooth="yes"/>
      <point x="309" y="490"/>
      <point x="350" y="472"/>
      <point x="350" y="436" type="curve" smooth="yes"/>
      <point x="350" y="435"/>
      <point x="350" y="433"/>
      <point x="350" y="431" type="curve"/>
      <point x="380" y="431"/>
      <point x="436" y="444"/>
      <point x="436" y="454" type="curve" smooth="yes"/>
      <point x="436" y="534"/>
      <point x="344" y="547"/>
      <point x="233" y="547" type="curve"/>
      <point x="232" y="543"/>
      <point x="230" y="543"/>
      <point x="230" y="540" type="curve" smooth="yes"/>
      <point x="230" y="509"/>
      <point x="237" y="496"/>
    </contour>
    <contour>
      <point x="284" y="452" type="curve" smooth="yes"/>
      <point x="241" y="452"/>
      <point x="209" y="459"/>
      <point x="174" y="488" type="curve"/>
      <point x="172" y="488" type="line"/>
      <point x="166" y="476"/>
      <point x="163" y="462"/>
      <point x="163" y="442" type="curve" smooth="yes"/>
      <point x="163" y="414"/>
      <point x="167" y="397"/>
      <point x="181" y="383" type="curve" smooth="yes"/>
      <point x="198" y="367"/>
      <point x="242" y="357"/>
      <point x="295" y="357" type="curve" smooth="yes"/>
      <point x="385" y="357"/>
      <point x="436" y="396"/>
      <point x="436" y="446" type="curve" smooth="yes"/>
      <point x="436" y="454" type="line" smooth="yes"/>
      <point x="436" y="480"/>
      <point x="391" y="489"/>
      <point x="341" y="491" type="curve"/>
      <point x="342" y="486"/>
      <point x="343" y="480"/>
      <point x="343" y="474" type="curve" smooth="yes"/>
      <point x="343" y="460"/>
      <point x="328" y="452"/>
    </contour>
  </outline>
</glyph>
<glyph name="acute" format="1">
  <advance width="600"/>
  <unicode hex="00B4"/>
  <outline>
    <contour>
      <point x="304" y="611" type="curve" smooth="yes"/>
      <point x="336" y="611"/>
      <point x="360" y="618"/>
      <point x="376" y="627" type="curve" smooth="yes"/>
      <point x="426" y="655"/>
      <point x="450" y="686"/>
      <point x="472" y="749" type="curve"/>
      <point x="478" y="765"/>
      <point x="474" y="784"/>
      <point x="455" y="792" type="curve" smooth="yes"/>
      <point x="413" y="810"/>
      <point x="366" y="814"/>
      <point x="320" y="814" type="curve"/>
      <point x="298" y="734"/>
      <point x="270" y="692"/>
      <point x="208" y="627" type="curve"/>
      <point x="240" y="614"/>
      <point x="274" y="611"/>
    </contour>
  </outline>
</glyph>
